<svg width="22" height="28" viewBox="0 0 22 28" fill="none" xmlns="http://www.w3.org/2000/svg">
<path d="M19.8135 10.1067L21.6668 9.30672V4.66672H16.1468C15.8398 3.5369 15.1695 2.5395 14.2394 1.82841C13.3092 1.11732 12.171 0.732056 11.0002 0.732056C9.82936 0.732056 8.69108 1.11732 7.76096 1.82841C6.83083 2.5395 6.16054 3.5369 5.8535 4.66672H0.333496V9.30672L2.18683 10.1067C4.97316 11.295 7.97102 11.9076 11.0002 11.9076C14.0293 11.9076 17.0272 11.295 19.8135 10.1067ZM11.0002 3.33339C11.4678 3.33387 11.9271 3.45731 12.3319 3.69134C12.7368 3.92536 13.073 4.26174 13.3068 4.66672H8.6935C8.92731 4.26174 9.26352 3.92536 9.66838 3.69134C10.0732 3.45731 10.5325 3.33387 11.0002 3.33339Z" fill="#F13005"/>
<path d="M0.333496 27.3334H21.6668V12.2134L20.8535 12.56C18.15 13.7047 15.2658 14.3637 12.3335 14.5067V16.6667H9.66683V14.5067C6.73445 14.3639 3.85024 13.705 1.14683 12.56L0.333496 12.2134V27.3334Z" fill="#F13005"/>
</svg>
