<svg width="26" height="22" viewBox="0 0 26 22" fill="none" xmlns="http://www.w3.org/2000/svg">
<path d="M7.55394 1.36882e-08H24.8072C25.1236 1.36882e-08 25.427 0.128769 25.6506 0.357981C25.8743 0.587192 26 0.898069 26 1.22222V20.7778C26 21.1019 25.8743 21.4128 25.6506 21.642C25.427 21.8712 25.1236 22 24.8072 22H7.55394C7.35762 22 7.16433 21.9504 6.99121 21.8555C6.8181 21.7606 6.67052 21.6235 6.56156 21.4561L0.200562 11.6783C0.0697893 11.4775 0 11.2414 0 11C0 10.7586 0.0697893 10.5225 0.200562 10.3217L6.56156 0.543889C6.67052 0.376547 6.8181 0.239351 6.99121 0.144473C7.16433 0.0495952 7.35762 -3.00902e-05 7.55394 1.36882e-08ZM8.19207 2.44444L2.62664 11L8.19207 19.5556H23.6145V2.44444H8.19207ZM18.8434 9.77778V12.2222H10.4941V9.77778H18.8434Z" fill="black"/>
</svg>
