<svg width="12" height="20" viewBox="0 0 12 20" fill="none" xmlns="http://www.w3.org/2000/svg">
<path d="M10.1766 1.31719C8.8875 0.3375 7.43438 0 5.59219 0C4.19531 0 3 0.285937 2.05313 0.923437C0.65625 1.875 0 3.47344 0 6H3.6C3.6 5.325 3.53438 4.59844 3.92813 3.975C4.32188 3.35156 4.87031 2.87344 5.8125 2.87344C6.76875 2.87344 7.26094 3.15 7.725 3.72187C8.11875 4.20937 8.26875 4.79062 8.26875 5.40937C8.26875 5.94375 7.99688 6.43594 7.67344 6.88125C7.49531 7.14375 7.26094 7.37812 6.96563 7.60312C6.96563 7.60312 5.02031 8.76094 4.33594 9.85781C3.825 10.6734 3.64219 11.6953 3.6 12.9188C3.59531 13.0078 3.62812 13.1906 3.9375 13.1906C4.24219 13.1906 6.5625 13.1906 6.83437 13.1906C7.10625 13.1906 7.1625 12.9844 7.16719 12.9C7.18594 12.4547 7.24219 11.7703 7.32188 11.5125C7.47656 11.025 7.77656 10.5984 8.24531 10.2328L9.21563 9.5625C10.0922 8.87813 10.7906 8.32031 11.1 7.87969C11.6297 7.15781 12 6.26719 12 5.2125C12 3.49219 11.3672 2.22187 10.1766 1.31719ZM5.34375 15.0563C4.12969 15.0188 3.12656 15.8625 3.08438 17.1797C3.04688 18.5016 3.99844 19.3687 5.21719 19.4062C6.48281 19.4438 7.4625 18.6281 7.5 17.3109C7.5375 15.9937 6.60938 15.0938 5.34375 15.0563Z" fill="white"/>
</svg>
