<svg width="34" height="36" viewBox="0 0 34 36" fill="none" xmlns="http://www.w3.org/2000/svg">
<path d="M31.6789 5.88398L18.1776 0.258428C17.7663 0.0878186 17.3254 0 16.8802 0C16.4349 0 15.994 0.0878186 15.5828 0.258428L2.08145 5.88398C0.822736 6.40434 0 7.63493 0 8.99912C0 22.9575 8.05157 32.6053 15.5757 35.7416C16.4055 36.0861 17.3408 36.0861 18.1705 35.7416C24.1969 33.2312 33.7533 24.5608 33.7533 8.99912C33.7533 7.63493 32.9306 6.40434 31.6789 5.88398ZM16.8837 31.3818L16.8766 4.5901L29.2458 9.74451C29.0138 20.3909 23.4726 28.1049 16.8837 31.3818Z" fill="#F13005"/>
</svg>
