<svg width="64" height="64" viewBox="0 0 64 64" fill="none" xmlns="http://www.w3.org/2000/svg">
<path d="M2 22.7693L32 41.2308L62 22.7693" stroke="#F13005" stroke-width="4" stroke-miterlimit="10" stroke-linecap="round" stroke-linejoin="round"/>
<path d="M11.2305 28.5385V6.61538C11.2305 4.07692 13.3074 2 15.8459 2H48.1535C50.692 2 52.7689 4.07692 52.7689 6.61538V28.5385" stroke="#F13005" stroke-width="4" stroke-miterlimit="10" stroke-linecap="round" stroke-linejoin="round"/>
<path d="M52.7692 11.2307C57.8462 11.2307 62 15.3846 62 20.4615V52.7692C62 57.8461 57.8462 61.9999 52.7692 61.9999H11.2308C6.15385 61.9999 2 57.8461 2 52.7692V20.4615C2 15.3846 6.15385 11.2307 11.2308 11.2307" stroke="#F13005" stroke-width="4" stroke-miterlimit="10" stroke-linecap="round" stroke-linejoin="round"/>
<path d="M20.4619 11.2307H36.6158" stroke="#F13005" stroke-width="4" stroke-miterlimit="10" stroke-linecap="round" stroke-linejoin="round"/>
<path d="M20.4619 20.4615H27.385" stroke="#F13005" stroke-width="4" stroke-miterlimit="10" stroke-linecap="round" stroke-linejoin="round"/>
</svg>
