<svg width="70" height="70" viewBox="0 0 70 70" fill="none" xmlns="http://www.w3.org/2000/svg">
<circle cx="35" cy="35" r="34" stroke="#E5E5E5" stroke-width="2"/>
<path d="M43.8135 31.1067L45.6668 30.3067V25.6667H40.1468C39.8398 24.5369 39.1695 23.5395 38.2394 22.8284C37.3092 22.1173 36.171 21.7321 35.0002 21.7321C33.8294 21.7321 32.6911 22.1173 31.761 22.8284C30.8308 23.5395 30.1605 24.5369 29.8535 25.6667H24.3335V30.3067L26.1868 31.1067C28.9732 32.295 31.971 32.9076 35.0002 32.9076C38.0293 32.9076 41.0272 32.295 43.8135 31.1067ZM35.0002 24.3334C35.4678 24.3339 35.9271 24.4573 36.3319 24.6913C36.7368 24.9254 37.073 25.2617 37.3068 25.6667H32.6935C32.9273 25.2617 33.2635 24.9254 33.6684 24.6913C34.0732 24.4573 34.5325 24.3339 35.0002 24.3334Z" fill="#F13005"/>
<path d="M24.3335 48.3334H45.6668V33.2134L44.8535 33.56C42.15 34.7047 39.2658 35.3637 36.3335 35.5067V37.6667H33.6668V35.5067C30.7344 35.3639 27.8502 34.705 25.1468 33.56L24.3335 33.2134V48.3334Z" fill="#F13005"/>
</svg>
