<svg width="27" height="25" viewBox="0 0 27 25" fill="none" xmlns="http://www.w3.org/2000/svg">
<path d="M19.5445 0C18.2873 0.0195558 17.0574 0.370521 15.9792 1.01745C14.901 1.66439 14.0126 2.58438 13.4037 3.68452C12.7948 2.58438 11.9063 1.66439 10.8281 1.01745C9.74989 0.370521 8.52005 0.0195558 7.26279 0C5.25857 0.0870783 3.37027 0.963841 2.01043 2.43874C0.650597 3.91364 -0.0702397 5.86679 0.00540519 7.87147C0.00540519 15.4359 12.238 24.1727 12.7583 24.5434L13.4037 25L14.049 24.5434C14.5693 24.1749 26.8019 15.4359 26.8019 7.87147C26.8776 5.86679 26.1567 3.91364 24.7969 2.43874C23.437 0.963841 21.5487 0.0870783 19.5445 0ZM13.4037 22.2511C9.77161 19.538 2.23845 12.8724 2.23845 7.87147C2.16212 6.45876 2.6475 5.07317 3.58873 4.01691C4.52995 2.96064 5.85065 2.31941 7.26279 2.23304C8.67493 2.31941 9.99563 2.96064 10.9369 4.01691C11.8781 5.07317 12.3635 6.45876 12.2871 7.87147H14.5202C14.4439 6.45876 14.9292 5.07317 15.8705 4.01691C16.8117 2.96064 18.1324 2.31941 19.5445 2.23304C20.9567 2.31941 22.2774 2.96064 23.2186 4.01691C24.1598 5.07317 24.6452 6.45876 24.5689 7.87147C24.5689 12.8746 17.0357 19.538 13.4037 22.2511Z" fill="#D3D3D3"/>
</svg>
