<svg width="8" height="29" viewBox="0 0 8 29" fill="none" xmlns="http://www.w3.org/2000/svg">
<path d="M2.08809 28.2211C5.87426 24.5205 8.00021 19.509 8.00021 14.2846C8.00021 9.06014 5.87426 4.04869 2.08809 0.348069C1.97614 0.238259 1.84307 0.151001 1.69649 0.0912801C1.54991 0.0315595 1.39267 0.00054638 1.23379 7.15339e-06C1.07491 -0.000532074 0.917503 0.0294192 0.770503 0.0881435C0.623503 0.146868 0.489784 0.233218 0.377046 0.342265C0.264308 0.451313 0.174733 0.580918 0.11342 0.723687C0.0521065 0.866457 0.0202756 1.01959 0.019722 1.17435C0.0191684 1.3291 0.0499273 1.48245 0.110217 1.62563C0.170508 1.76882 0.25916 1.89903 0.371115 2.00884C3.69861 5.27232 5.56603 9.68513 5.56603 14.2846C5.56603 18.884 3.69861 23.2968 0.371115 26.5603C0.253864 26.6688 0.160481 26.7994 0.0966813 26.9442C0.0328813 27.0889 0 27.2448 0 27.4023C0 27.5598 0.0328813 27.7157 0.0966813 27.8605C0.160481 28.0052 0.253864 28.1358 0.371115 28.2443C0.482341 28.3567 0.615686 28.4461 0.763189 28.5072C0.910693 28.5683 1.06933 28.5997 1.2296 28.5997C1.38988 28.5997 1.54848 28.5683 1.69598 28.5072C1.84348 28.4461 1.97686 28.3567 2.08809 28.2443V28.2211Z" fill="white"/>
</svg>
