<svg width="21" height="19" viewBox="0 0 21 19" fill="none" xmlns="http://www.w3.org/2000/svg">
<path d="M14.8538 0C13.8983 0.0148624 12.9636 0.281596 12.1442 0.773264C11.3247 1.26493 10.6495 1.96412 10.1868 2.80023C9.724 1.96412 9.0488 1.26493 8.22935 0.773264C7.40991 0.281596 6.47523 0.0148624 5.51972 0C3.99651 0.0661794 2.5614 0.732519 1.52793 1.85344C0.494454 2.97436 -0.0533821 4.45876 0.00410794 5.98232C0.00410794 11.7313 9.30088 18.3712 9.69631 18.6529L10.1868 19L10.6772 18.6529C11.0727 18.3729 20.3694 11.7313 20.3694 5.98232C20.4269 4.45876 19.8791 2.97436 18.8456 1.85344C17.8121 0.732519 16.377 0.0661794 14.8538 0ZM10.1868 16.9109C7.42642 14.8489 1.70122 9.78299 1.70122 5.98232C1.64321 4.90865 2.0121 3.85561 2.72743 3.05285C3.44276 2.25009 4.44649 1.76275 5.51972 1.69711C6.59294 1.76275 7.59667 2.25009 8.312 3.05285C9.02733 3.85561 9.39622 4.90865 9.33822 5.98232H11.0353C10.9773 4.90865 11.3462 3.85561 12.0615 3.05285C12.7769 2.25009 13.7806 1.76275 14.8538 1.69711C15.927 1.76275 16.9308 2.25009 17.6461 3.05285C18.3614 3.85561 18.7303 4.90865 18.6723 5.98232C18.6723 9.78469 12.9471 14.8489 10.1868 16.9109Z" fill="white"/>
</svg>
