<svg width="24" height="24" viewBox="0 0 24 24" fill="none" xmlns="http://www.w3.org/2000/svg">
<path d="M12 14.985C10.3432 14.985 9 16.3282 9 17.985V23.985H15V17.985C15 16.3282 13.6568 14.985 12 14.985Z" fill="white"/>
<path d="M17 17.9851V23.9851H21C22.6568 23.9851 24 22.6419 24 20.9851V11.8641C24.0002 11.3446 23.7983 10.8453 23.437 10.4721L14.939 1.28504C13.4396 -0.337303 10.9089 -0.436913 9.28655 1.06253C9.20949 1.13378 9.13523 1.20798 9.06403 1.28504L0.581016 10.4691C0.208734 10.8439 -0.000140554 11.3508 7.09607e-08 11.8791V20.9851C7.09607e-08 22.6419 1.34316 23.9851 3 23.9851H6.99998V17.9851C7.01869 15.2582 9.22027 13.0315 11.8784 12.9674C14.6255 12.9011 16.9791 15.1658 17 17.9851Z" fill="white"/>
<path d="M12 14.985C10.3432 14.985 9 16.3282 9 17.985V23.985H15V17.985C15 16.3282 13.6568 14.985 12 14.985Z" fill="white"/>
</svg>
