<svg width="139" height="155" viewBox="0 0 139 155" fill="none" xmlns="http://www.w3.org/2000/svg">
<path d="M15.4384 54.8495L0 155H24.8104L19.9791 55.0855C19.9672 54.5101 19.7377 53.9604 19.3369 53.5471C18.9361 53.1338 18.3936 52.8874 17.8185 52.8575C17.2434 52.8277 16.6783 53.0165 16.2367 53.386C15.7952 53.7555 15.51 54.2784 15.4384 54.8495Z" fill="#FFA305"/>
<path d="M130.545 102.873L120.247 39.3377C119.932 37.4345 118.953 35.7042 117.483 34.4532C116.014 33.2023 114.149 32.5115 112.219 32.5031H104.354V18.852C104.35 13.8552 102.362 9.06425 98.8277 5.53012C95.2934 1.99599 90.5009 0.00720809 85.5014 0L61.245 0C56.2438 0.00719666 51.4494 1.9954 47.9122 5.52901C44.375 9.06262 42.3834 13.8535 42.3738 18.852V32.5303H33.6012C32.4776 32.5356 31.3671 32.7725 30.3392 33.226C29.3112 33.6795 28.3879 34.3401 27.6269 35.1663C26.8658 35.9925 26.2834 36.9667 25.916 38.028C25.5486 39.0893 25.4041 40.2149 25.4915 41.3345L34.0371 146.314L34.7454 154.991H139L130.545 102.873ZM101.194 41.4162C102.378 41.4162 103.535 41.767 104.519 42.4243C105.503 43.0815 106.27 44.0157 106.723 45.1087C107.176 46.2016 107.295 47.4043 107.064 48.5646C106.833 49.7249 106.263 50.7906 105.426 51.6272C104.589 52.4637 103.523 53.0334 102.362 53.2642C101.201 53.495 99.9974 53.3765 98.9038 52.9238C97.8103 52.4711 96.8756 51.7044 96.218 50.7208C95.5604 49.7371 95.2094 48.5807 95.2094 47.3977C95.2082 46.6118 95.3622 45.8335 95.6625 45.1072C95.9629 44.381 96.4036 43.7211 96.9596 43.1655C97.5156 42.6098 98.1758 42.1693 98.9024 41.8691C99.6291 41.5689 100.408 41.415 101.194 41.4162ZM100.804 107.802L89.3519 119.338L75.4937 105.406L71.9792 117.55C71.7943 118.194 71.3981 118.757 70.8544 119.149C70.3106 119.541 69.6509 119.738 68.9812 119.71C68.3115 119.682 67.6708 119.429 67.162 118.993C66.6533 118.557 66.3061 117.962 66.1762 117.305L58.8293 80.645C58.7385 80.1639 58.767 79.6679 58.9124 79.2004C59.0578 78.7328 59.3156 78.3081 59.6633 77.9632C60.011 77.6184 60.438 77.364 60.9069 77.2223C61.3758 77.0806 61.8723 77.056 62.3529 77.1505L98.7966 84.5116C99.4524 84.6503 100.043 85.0035 100.476 85.5154C100.908 86.0272 101.158 86.6685 101.185 87.3379C101.212 88.0074 101.015 88.6667 100.625 89.2118C100.236 89.7569 99.6752 90.1566 99.0327 90.3478L86.9363 93.8604L100.804 107.802ZM49.2938 18.852C49.2962 17.2857 49.6072 15.7353 50.2091 14.2892C50.811 12.8432 51.692 11.5297 52.8018 10.4239C53.9115 9.31812 55.2284 8.44161 56.677 7.84445C58.1257 7.24729 59.6779 6.94116 61.245 6.94355H85.5014C88.6584 6.95075 91.6838 8.20798 93.9153 10.4399C96.1467 12.6719 97.4023 15.6967 97.4071 18.852V32.5303H49.3302L49.2938 18.852ZM45.852 41.4162C47.0356 41.4162 48.1927 41.767 49.1769 42.4243C50.1611 43.0815 50.9281 44.0157 51.3811 45.1087C51.834 46.2016 51.9526 47.4043 51.7216 48.5646C51.4907 49.7249 50.9207 50.7906 50.0838 51.6272C49.2468 52.4637 48.1805 53.0334 47.0195 53.2642C45.8586 53.495 44.6553 53.3765 43.5618 52.9238C42.4682 52.4711 41.5335 51.7044 40.8759 50.7208C40.2183 49.7371 39.8674 48.5807 39.8674 47.3977C39.8674 45.8113 40.4979 44.2899 41.6202 43.1681C42.7426 42.0464 44.2648 41.4162 45.852 41.4162Z" fill="#F13005"/>
</svg>
