<svg width="71" height="14" viewBox="0 0 71 14" fill="none" xmlns="http://www.w3.org/2000/svg">
<path d="M13.2472 5.43472C12.9938 5.72169 12.7478 6.00866 12.4913 6.28402C11.8022 7.02549 11.1054 7.76033 10.4117 8.49682C10.3024 8.61294 10.1855 8.72407 10.0854 8.8518C10.0459 8.90322 10.0201 8.99445 10.0307 9.05915C10.2827 10.6964 10.5392 12.3319 10.7958 13.9691C10.7973 13.9758 10.7958 13.984 10.7942 13.9957C10.7912 14.0106 10.7274 13.9857 10.65 13.9409C10.3814 13.7883 10.1172 13.6374 9.85311 13.4848C8.80724 12.8843 7.75985 12.2838 6.71702 11.6784C6.62594 11.6253 6.5637 11.6502 6.48477 11.6949C5.17781 12.448 3.87085 13.1994 2.56238 13.9509C2.53961 13.9641 2.51684 13.9758 2.49255 13.9874C2.45309 14.0073 2.43335 13.9459 2.44853 13.8513C2.50773 13.4649 2.5639 13.0883 2.6231 12.7134C2.81588 11.4859 3.01321 10.2601 3.20144 9.03261C3.21055 8.97455 3.1726 8.88829 3.13161 8.8435C2.45309 8.11364 1.76545 7.3954 1.093 6.6589C0.725657 6.25582 0.376527 5.83283 0.0334701 5.42975C-0.02573 5.36008 -0.00447863 5.29207 0.0820447 5.27714C0.262681 5.24728 0.472159 5.21245 0.683154 5.17927C1.60152 5.0333 2.52139 4.88733 3.43976 4.7397C3.7479 4.68993 4.05453 4.63188 4.36419 4.59704C4.48107 4.58377 4.53724 4.53069 4.58581 4.42121C5.22639 2.99301 5.87152 1.56646 6.51513 0.139914C6.52879 0.108397 6.54397 0.0785388 6.56067 0.0453633C6.58647 -0.00605874 6.62594 -0.0160114 6.65023 0.0271168C6.66541 0.0536572 6.67907 0.0785389 6.69121 0.105079C7.34241 1.54655 7.99513 2.98803 8.6433 4.43282C8.69035 4.53733 8.74348 4.58211 8.85278 4.5987C10.2007 4.80937 11.5471 5.02666 12.8951 5.24231C12.9968 5.25889 13.0985 5.27382 13.2002 5.28875C13.2867 5.2987 13.308 5.36505 13.2472 5.43472Z" fill="#FFA305"/>
<path d="M27.4782 5.43472C27.2247 5.72169 26.9788 6.00866 26.7223 6.28402C26.0331 7.02549 25.3364 7.76033 24.6427 8.49682C24.5334 8.61294 24.4165 8.72407 24.3163 8.8518C24.2768 8.90322 24.251 8.99445 24.2617 9.05915C24.5136 10.6964 24.7702 12.3319 25.0267 13.9691C25.0282 13.9758 25.0267 13.984 25.0252 13.9957C25.0222 14.0106 24.9584 13.9857 24.881 13.9409C24.6123 13.7883 24.3482 13.6374 24.0841 13.4848C23.0382 12.8843 21.9908 12.2838 20.948 11.6784C20.8569 11.6253 20.7947 11.6502 20.7157 11.6949C19.4088 12.448 18.1018 13.1994 16.7933 13.9509C16.7706 13.9641 16.7478 13.9758 16.7235 13.9874C16.684 14.0073 16.6643 13.9459 16.6795 13.8513C16.7387 13.4649 16.7949 13.0883 16.8541 12.7134C17.0468 11.4859 17.2442 10.2601 17.4324 9.03261C17.4415 8.97455 17.4036 8.88829 17.3626 8.8435C16.684 8.11364 15.9964 7.3954 15.324 6.6589C14.9566 6.25582 14.6075 5.83283 14.2644 5.42975C14.2052 5.36008 14.2265 5.29207 14.313 5.27714C14.4936 5.24728 14.7031 5.21245 14.9141 5.17927C15.8325 5.0333 16.7524 4.88733 17.6707 4.7397C17.9789 4.68993 18.2855 4.63188 18.5951 4.59704C18.712 4.58377 18.7682 4.53069 18.8168 4.42121C19.4573 2.99301 20.1025 1.56646 20.7461 0.139914C20.7597 0.108397 20.7749 0.0785388 20.7916 0.0453633C20.8174 -0.00605874 20.8569 -0.0160114 20.8812 0.0271168C20.8964 0.0536572 20.91 0.0785389 20.9222 0.105079C21.5734 1.54655 22.2261 2.98803 22.8743 4.43282C22.9213 4.53733 22.9744 4.58211 23.0837 4.5987C24.4317 4.80937 25.7781 5.02666 27.126 5.24231C27.2277 5.25889 27.3294 5.27382 27.4311 5.28875C27.5177 5.2987 27.5389 5.36505 27.4782 5.43472Z" fill="#FFA305"/>
<path d="M41.7087 5.43472C41.4552 5.72169 41.2093 6.00866 40.9527 6.28402C40.2636 7.02549 39.5668 7.76033 38.8731 8.49682C38.7638 8.61294 38.647 8.72407 38.5468 8.8518C38.5073 8.90322 38.4815 8.99445 38.4921 9.05915C38.7441 10.6964 39.0006 12.3319 39.2572 13.9691C39.2587 13.9758 39.2572 13.984 39.2557 13.9957C39.2526 14.0106 39.1889 13.9857 39.1115 13.9409C38.8428 13.7883 38.5787 13.6374 38.3145 13.4848C37.2687 12.8843 36.2213 12.2838 35.1784 11.6784C35.0874 11.6253 35.0251 11.6502 34.9462 11.6949C33.6392 12.448 32.3323 13.1994 31.0238 13.9509C31.001 13.9641 30.9783 13.9758 30.954 13.9874C30.9145 14.0073 30.8948 13.9459 30.91 13.8513C30.9692 13.4649 31.0253 13.0883 31.0845 12.7134C31.2773 11.4859 31.4746 10.2601 31.6629 9.03261C31.672 8.97455 31.634 8.88829 31.593 8.8435C30.9145 8.11364 30.2269 7.3954 29.5544 6.6589C29.1871 6.25582 28.838 5.83283 28.4949 5.42975C28.4357 5.36008 28.4569 5.29207 28.5435 5.27714C28.7241 5.24728 28.9336 5.21245 29.1446 5.17927C30.0629 5.0333 30.9828 4.88733 31.9012 4.7397C32.2093 4.68993 32.516 4.63188 32.8256 4.59704C32.9425 4.58377 32.9987 4.53069 33.0472 4.42121C33.6878 2.99301 34.3329 1.56646 34.9766 0.139914C34.9902 0.108397 35.0054 0.0785388 35.0221 0.0453633C35.0479 -0.00605874 35.0874 -0.0160114 35.1117 0.0271168C35.1268 0.0536572 35.1405 0.0785389 35.1526 0.105079C35.8038 1.54655 36.4566 2.98803 37.1047 4.43282C37.1518 4.53733 37.2049 4.58211 37.3142 4.5987C38.6621 4.80937 40.0086 5.02666 41.3565 5.24231C41.4582 5.25889 41.5599 5.27382 41.6616 5.28875C41.7481 5.2987 41.7694 5.36505 41.7087 5.43472Z" fill="#FFA305"/>
<path d="M55.9396 5.43472C55.6861 5.72169 55.4402 6.00866 55.1837 6.28402C54.4945 7.02549 53.7978 7.76033 53.1041 8.49682C52.9948 8.61294 52.8779 8.72407 52.7777 8.8518C52.7383 8.90322 52.7125 8.99445 52.7231 9.05915C52.9751 10.6964 53.2316 12.3319 53.4881 13.9691C53.4897 13.9758 53.4881 13.984 53.4866 13.9957C53.4836 14.0106 53.4198 13.9857 53.3424 13.9409C53.0737 13.7883 52.8096 13.6374 52.5455 13.4848C51.4996 12.8843 50.4522 12.2838 49.4094 11.6784C49.3183 11.6253 49.2561 11.6502 49.1772 11.6949C47.8702 12.448 46.5632 13.1994 45.2548 13.9509C45.232 13.9641 45.2092 13.9758 45.1849 13.9874C45.1455 14.0073 45.1257 13.9459 45.1409 13.8513C45.2001 13.4649 45.2563 13.0883 45.3155 12.7134C45.5083 11.4859 45.7056 10.2601 45.8938 9.03261C45.9029 8.97455 45.865 8.88829 45.824 8.8435C45.1455 8.11364 44.4578 7.3954 43.7854 6.6589C43.418 6.25582 43.0689 5.83283 42.7259 5.42975C42.6667 5.36008 42.6879 5.29207 42.7744 5.27714C42.9551 5.24728 43.1645 5.21245 43.3755 5.17927C44.2939 5.0333 45.2138 4.88733 46.1321 4.7397C46.4403 4.68993 46.7469 4.63188 47.0566 4.59704C47.1735 4.58377 47.2296 4.53069 47.2782 4.42121C47.9188 2.99301 48.5639 1.56646 49.2075 0.139914C49.2212 0.108397 49.2364 0.0785388 49.253 0.0453633C49.2789 -0.00605874 49.3183 -0.0160114 49.3426 0.0271168C49.3578 0.0536572 49.3714 0.0785389 49.3836 0.105079C50.0348 1.54655 50.6875 2.98803 51.3357 4.43282C51.3827 4.53733 51.4359 4.58211 51.5452 4.5987C52.8931 4.80937 54.2395 5.02666 55.5875 5.24231C55.6892 5.25889 55.7909 5.27382 55.8926 5.28875C55.9791 5.2987 56.0003 5.36505 55.9396 5.43472Z" fill="#405069"/>
<path d="M70.1706 5.43472C69.9171 5.72169 69.6712 6.00866 69.4146 6.28402C68.7255 7.02549 68.0288 7.76033 67.3351 8.49682C67.2258 8.61294 67.1089 8.72407 67.0087 8.8518C66.9692 8.90322 66.9434 8.99445 66.954 9.05915C67.206 10.6964 67.4626 12.3319 67.7191 13.9691C67.7206 13.9758 67.7191 13.984 67.7176 13.9957C67.7145 14.0106 67.6508 13.9857 67.5734 13.9409C67.3047 13.7883 67.0406 13.6374 66.7764 13.4848C65.7306 12.8843 64.6832 12.2838 63.6404 11.6784C63.5493 11.6253 63.487 11.6502 63.4081 11.6949C62.1012 12.448 60.7942 13.1994 59.4857 13.9509C59.4629 13.9641 59.4402 13.9758 59.4159 13.9874C59.3764 14.0073 59.3567 13.9459 59.3719 13.8513C59.4311 13.4649 59.4872 13.0883 59.5464 12.7134C59.7392 11.4859 59.9366 10.2601 60.1248 9.03261C60.1339 8.97455 60.0959 8.88829 60.055 8.8435C59.3764 8.11364 58.6888 7.3954 58.0163 6.6589C57.649 6.25582 57.2999 5.83283 56.9568 5.42975C56.8976 5.36008 56.9189 5.29207 57.0054 5.27714C57.186 5.24728 57.3955 5.21245 57.6065 5.17927C58.5249 5.0333 59.4447 4.88733 60.3631 4.7397C60.6712 4.68993 60.9779 4.63188 61.2875 4.59704C61.4044 4.58377 61.4606 4.53069 61.5092 4.42121C62.1497 2.99301 62.7949 1.56646 63.4385 0.139914C63.4521 0.108397 63.4673 0.0785388 63.484 0.0453633C63.5098 -0.00605874 63.5493 -0.0160114 63.5736 0.0271168C63.5887 0.0536572 63.6024 0.0785389 63.6146 0.105079C64.2658 1.54655 64.9185 2.98803 65.5666 4.43282C65.6137 4.53733 65.6668 4.58211 65.7761 4.5987C67.1241 4.80937 68.4705 5.02666 69.8184 5.24231C69.9201 5.25889 70.0218 5.27382 70.1235 5.28875C70.2101 5.2987 70.2313 5.36505 70.1706 5.43472Z" fill="#405069"/>
</svg>
