<svg width="10" height="19" viewBox="0 0 10 19" fill="none" xmlns="http://www.w3.org/2000/svg">
<path d="M8.99537 18.0041C8.86391 18.0049 8.7336 17.9796 8.6119 17.9299C8.49021 17.8801 8.37952 17.8068 8.28619 17.7141L0.295456 9.71409C0.201836 9.62113 0.127528 9.51053 0.0768181 9.38867C0.0261082 9.26681 0 9.1361 0 9.00409C0 8.87208 0.0261082 8.74137 0.0768181 8.61951C0.127528 8.49765 0.201836 8.38706 0.295456 8.29409L8.28619 0.294092C8.47428 0.105788 8.72937 0 8.99537 0C9.26136 0 9.51646 0.105788 9.70454 0.294092C9.89263 0.482395 9.99829 0.73779 9.99829 1.00409C9.99829 1.27039 9.89263 1.52579 9.70454 1.71409L2.413 9.00409L9.70454 16.2941C9.79816 16.3871 9.87247 16.4977 9.92318 16.6195C9.97389 16.7414 10 16.8721 10 17.0041C10 17.1361 9.97389 17.2668 9.92318 17.3887C9.87247 17.5105 9.79816 17.6211 9.70454 17.7141C9.61121 17.8068 9.50053 17.8801 9.37883 17.9299C9.25713 17.9796 9.12682 18.0049 8.99537 18.0041Z" fill="black"/>
</svg>
