<svg width="20" height="16" viewBox="0 0 20 16" fill="none" xmlns="http://www.w3.org/2000/svg">
<path d="M19.7336 8.6293C19.8179 8.54644 19.8846 8.44814 19.93 8.34002C19.9762 8.23237 20 8.11677 20 8C20 7.88323 19.9762 7.76763 19.93 7.65998C19.8846 7.55186 19.8179 7.45356 19.7336 7.3707L12.4609 0.249863C12.2894 0.0877231 12.0598 -0.00199438 11.8215 3.36483e-05C11.5831 0.00206168 11.3551 0.095673 11.1865 0.260706C11.018 0.425738 10.9224 0.648987 10.9203 0.88237C10.9182 1.11575 11.0099 1.34059 11.1755 1.50847L16.8964 7.1099H0.909091C0.667985 7.1099 0.436754 7.20367 0.266266 7.3706C0.0957789 7.53753 0 7.76393 0 8C0 8.23607 0.0957789 8.46247 0.266266 8.6294C0.436754 8.79633 0.667985 8.8901 0.909091 8.8901H16.8964L11.1755 14.4915C11.0099 14.6594 10.9182 14.8842 10.9203 15.1176C10.9224 15.351 11.018 15.5743 11.1865 15.7393C11.3551 15.9043 11.5831 15.9979 11.8215 16C12.0598 16.002 12.2894 15.9123 12.4609 15.7501L19.7336 8.6293Z" fill="black"/>
</svg>
