<svg width="7" height="21" viewBox="0 0 7 21" fill="none" xmlns="http://www.w3.org/2000/svg">
<path d="M2.12657 0.36247C2.01488 0.24795 1.88044 0.156761 1.73143 0.0944468C1.58241 0.032133 1.42194 0 1.25977 0C1.09761 0 0.93717 0.032133 0.788159 0.0944468C0.639147 0.156761 0.504707 0.24795 0.393017 0.36247C0.275449 0.471263 0.181814 0.602226 0.117841 0.747373C0.0538685 0.892521 0.0208618 1.04883 0.0208618 1.20679C0.0208618 1.36475 0.0538685 1.52105 0.117841 1.6662C0.181814 1.81135 0.275449 1.9423 0.393017 2.05109C2.69495 4.29584 3.98793 7.33887 3.98793 10.5117C3.98793 13.6844 2.69495 16.7275 0.393017 18.9722C0.210341 19.1334 0.0832302 19.3456 0.0291441 19.5798C-0.024942 19.814 -0.00339468 20.0588 0.0908416 20.2807C0.185078 20.5025 0.347419 20.6905 0.555598 20.819C0.763777 20.9476 1.00762 21.0103 1.25379 20.9986C1.41599 21.0011 1.57704 20.9714 1.72708 20.9113C1.87713 20.8512 2.01303 20.7621 2.12657 20.6492C4.88189 17.9557 6.42898 14.3082 6.42898 10.5058C6.42898 6.70343 4.88189 3.056 2.12657 0.36247Z" fill="white"/>
</svg>
