<svg width="62" height="55" viewBox="0 0 62 55" fill="none" xmlns="http://www.w3.org/2000/svg">
<path d="M31.0001 6.28967C32.7694 6.28967 34.5294 7.40294 35.8698 9.62948L54.5161 40.6187C57.2001 45.0686 55.1279 48.7103 49.9239 48.7103H12.0763C6.87221 48.7103 4.80006 45.0655 7.48408 40.6187L26.1303 9.62948C27.4708 7.40294 29.2307 6.28967 31.0001 6.28967ZM31.0001 0C26.9125 0 23.1719 2.32718 20.7213 6.38716L2.07503 37.3826C-0.403994 41.4992 -0.675235 45.8894 1.33384 49.4274C3.34292 52.9653 7.26015 55 12.0763 55H49.9239C54.74 55 58.6604 52.9684 60.6663 49.4305C62.6722 45.8926 62.4041 41.5024 59.9251 37.3858L41.2789 6.39659C38.8282 2.32718 35.0876 0 31.0001 0Z" fill="#F13005"/>
<path d="M35.7331 41.6282C35.7331 41.6282 33.4906 42.7634 32.3425 42.2005C31.2008 41.6219 30.9737 40.4992 31.6203 38.5777L32.9008 34.7378C34.1718 30.898 32.5192 28.2091 29.4882 28.0362C25.5205 27.816 23.1172 30.6338 23.1172 30.6338C23.1172 30.6338 25.3565 29.486 26.5077 30.0615C27.6494 30.6401 27.8702 31.7628 27.23 33.6843L25.9495 37.5241C24.6721 41.364 26.3248 44.0465 29.362 44.2258C33.3297 44.4491 35.7331 41.6282 35.7331 41.6282Z" fill="#F13005"/>
<path d="M31.0017 24.4983C33.2679 24.4983 35.1051 22.6665 35.1051 20.4069C35.1051 18.1472 33.2679 16.3154 31.0017 16.3154C28.7356 16.3154 26.8984 18.1472 26.8984 20.4069C26.8984 22.6665 28.7356 24.4983 31.0017 24.4983Z" fill="#F13005"/>
</svg>
