<svg width="343" height="299" viewBox="0 0 343 299" fill="none" xmlns="http://www.w3.org/2000/svg">
<path d="M306.241 297.952C329.254 269.297 343 233.063 343 193.658C343 100.871 266.815 25.6525 172.834 25.6525C78.8532 25.6525 2.66852 100.871 2.66852 193.658C2.66852 233.067 16.4149 269.301 39.4274 297.952H306.241Z" fill="#FEF3F0"/>
<path d="M43.0065 49.2941C49.5441 49.2941 54.8438 44.0628 54.8438 37.6095C54.8438 31.1562 49.5441 25.9249 43.0065 25.9249C36.469 25.9249 31.1692 31.1562 31.1692 37.6095C31.1692 44.0628 36.469 49.2941 43.0065 49.2941Z" fill="#DBE6F1"/>
<path d="M86.9531 222.795H60.0415V256.916H86.9531V222.795Z" fill="#FFA305"/>
<path d="M86.9532 256.912V222.795H102.752L102.506 256.912H86.9532Z" fill="#DE7F04"/>
<path d="M74.1117 222.795H70.0911V230.561H74.1117V222.795Z" fill="#FFC766"/>
<path d="M47.6194 256.912V222.795H60.0416L59.8466 256.912H47.6194Z" fill="#DE7F04"/>
<path d="M61.513 196.179H41.5757V222.795H61.513V196.179Z" fill="#DE7F04"/>
<path d="M43.9041 222.795V196.179H28.1971L28.4031 222.795H43.9041Z" fill="#FFA305"/>
<path d="M53.6741 196.179H50.5364V202.237H53.6741V196.179Z" fill="#FFC766"/>
<path d="M94.7074 196.179H74.7701V222.795H94.7074V196.179Z" fill="#FFA305"/>
<path d="M74.7701 222.795V196.179H61.3879L61.5975 222.795H74.7701Z" fill="#FFA305"/>
<path d="M94.7074 196.179H82.7487V222.795H94.7074V196.179Z" fill="#DE7F04"/>
<path d="M48.2741 222.795H20.395V256.916H48.2741V222.795Z" fill="#FFA305"/>
<path d="M36.3449 222.795H32.3243V230.561H36.3449V222.795Z" fill="#FFC766"/>
<path d="M73.4974 196.179H70.3596V202.237H73.4974V196.179Z" fill="#FFC766"/>
<path d="M76.3261 170.009H56.3888V196.625H76.3261V170.009Z" fill="#DE7F04"/>
<path d="M58.7136 196.622V170.009H43.0066L43.2162 196.622H58.7136Z" fill="#FFA305"/>
<path d="M68.4836 170.009H65.3459V176.067H68.4836V170.009Z" fill="#FFC766"/>
<path d="M105.193 290.639C105.219 286.208 101.602 282.594 97.1145 282.569C92.6268 282.543 88.9676 286.114 88.9415 290.545C88.9153 294.977 92.5322 298.59 97.0199 298.616C101.508 298.641 105.167 295.07 105.193 290.639Z" fill="#4D4D4D"/>
<path d="M101.953 290.642C101.98 287.966 99.8049 285.776 97.0951 285.749C94.3852 285.722 92.1665 287.87 92.1394 290.545C92.1123 293.221 94.2871 295.412 96.9969 295.439C99.7067 295.465 101.925 293.318 101.953 290.642Z" fill="#BDBDBD"/>
<path d="M85.2478 290.637C85.273 286.206 81.6555 282.594 77.1677 282.569C72.68 282.544 69.0216 286.116 68.9963 290.547C68.9711 294.978 72.5886 298.591 77.0763 298.616C81.5641 298.641 85.2225 295.069 85.2478 290.637Z" fill="#4D4D4D"/>
<path d="M82.0377 290.636C82.0633 287.96 79.887 285.77 77.1769 285.745C74.4668 285.72 72.2491 287.868 72.2235 290.544C72.1979 293.22 74.3741 295.41 77.0842 295.435C79.7943 295.461 82.0121 293.312 82.0377 290.636Z" fill="#BDBDBD"/>
<path d="M40.9137 290.637C40.9392 286.206 37.3218 282.594 32.8341 282.568C28.3464 282.543 24.6877 286.115 24.6622 290.546C24.6368 294.977 28.2541 298.59 32.7418 298.615C37.2295 298.64 40.8882 295.069 40.9137 290.637Z" fill="#4D4D4D"/>
<path d="M37.7034 290.637C37.729 287.961 35.5527 285.771 32.8426 285.746C30.1325 285.72 27.9148 287.869 27.8893 290.545C27.8637 293.221 30.0399 295.411 32.75 295.436C35.4601 295.461 37.6778 293.313 37.7034 290.637Z" fill="#BDBDBD"/>
<path d="M25.9402 290.638C25.9658 286.207 22.3486 282.594 17.8609 282.569C13.3732 282.544 9.71438 286.116 9.68873 290.548C9.66308 294.979 13.2803 298.591 17.768 298.616C22.2557 298.641 25.9145 295.069 25.9402 290.638Z" fill="#4D4D4D"/>
<path d="M22.73 290.639C22.7561 287.963 20.5802 285.773 17.8701 285.747C15.16 285.722 12.9419 287.87 12.9159 290.546C12.8898 293.222 15.0657 295.412 17.7758 295.438C20.4859 295.464 22.704 293.315 22.73 290.639Z" fill="#BDBDBD"/>
<path d="M96.7747 288.406L101.66 286.005V278.919H108.575V287.073L98.8126 291.893C95.7594 292.965 94.4058 289.485 96.7747 288.406Z" fill="#4D4D4D"/>
<path d="M76.8301 288.406L81.7151 286.005V278.919H88.6306V287.073L78.8679 291.893C75.8148 292.965 74.4611 289.485 76.8301 288.406Z" fill="#4D4D4D"/>
<path d="M32.4935 288.406L37.3785 286.005V278.919H44.294V287.073L34.5314 291.893C31.4819 292.965 30.1246 289.485 32.4935 288.406Z" fill="#4D4D4D"/>
<path d="M17.5221 288.406L22.4071 286.005V278.919H29.3226V287.073L19.56 291.893C16.5069 292.965 15.1495 289.485 17.5221 288.406Z" fill="#4D4D4D"/>
<path d="M49.4218 257.308C49.2893 257.271 49.1569 257.206 49.0392 257.115C48.8516 256.974 48.7192 256.792 48.6897 256.621L38.5298 202.19C38.4857 201.95 38.6365 201.783 38.905 201.783L122.583 201.409C122.774 201.409 123.002 201.507 123.186 201.67C123.37 201.834 123.48 202.037 123.48 202.212L123.631 256.974C123.631 257.17 123.488 257.293 123.267 257.293L49.6572 257.337C49.5762 257.344 49.499 257.33 49.4218 257.308ZM39.9865 202.963L49.9036 256.211L122.391 256.222L122.233 202.528L39.9865 202.963Z" fill="#4D4D4D"/>
<path d="M42.8409 221.135L42.4657 220.438L122.741 219.562L123.065 220.223L42.8409 221.135Z" fill="#4D4D4D"/>
<path d="M46.284 239.63L45.9235 238.944L122.8 238.199L123.112 238.853L46.284 239.63Z" fill="#4D4D4D"/>
<path d="M55.9804 256.945C55.8664 256.912 55.7671 256.818 55.7487 256.727L45.5924 202.284C45.5741 202.186 45.6587 202.132 45.78 202.164C45.9014 202.197 46.0155 202.302 46.0339 202.401L56.1827 256.825C56.2011 256.919 56.1202 256.977 56.0025 256.948C55.9915 256.948 55.9841 256.948 55.9804 256.945Z" fill="#4D4D4D"/>
<path d="M62.0903 256.945C61.9763 256.912 61.8769 256.818 61.8585 256.727L52.6219 202.252C52.6072 202.154 52.6881 202.103 52.8095 202.135C52.9272 202.168 53.0413 202.277 53.056 202.375L62.2816 256.832C62.2963 256.927 62.2154 256.981 62.0976 256.952C62.0976 256.945 62.094 256.945 62.0903 256.945Z" fill="#4D4D4D"/>
<path d="M68.2039 256.941C68.0899 256.908 67.9906 256.81 67.9759 256.719L59.6662 202.212C59.6515 202.114 59.7361 202.063 59.8538 202.099C59.9752 202.135 60.0819 202.241 60.0966 202.339L68.3989 256.828C68.4136 256.923 68.329 256.974 68.215 256.945C68.2113 256.945 68.2076 256.941 68.2039 256.941Z" fill="#4D4D4D"/>
<path d="M74.3286 256.941C74.2145 256.908 74.1152 256.81 74.1005 256.719L66.7178 202.179C66.7031 202.085 66.7914 202.034 66.9091 202.07C67.0268 202.103 67.1335 202.212 67.1482 202.31L74.5235 256.832C74.5346 256.926 74.4536 256.977 74.3359 256.945C74.3323 256.941 74.3286 256.941 74.3286 256.941Z" fill="#4D4D4D"/>
<path d="M80.4569 256.937C80.3429 256.905 80.2436 256.807 80.2325 256.716L73.7768 202.143C73.7658 202.048 73.8504 202.001 73.9681 202.037C74.0895 202.074 74.1888 202.183 74.1999 202.277L80.6445 256.832C80.6592 256.919 80.5746 256.97 80.4569 256.937C80.4606 256.937 80.4569 256.937 80.4569 256.937Z" fill="#4D4D4D"/>
<path d="M86.5926 256.937C86.4785 256.905 86.3792 256.803 86.3682 256.712L80.8431 202.106C80.8321 202.012 80.9204 201.965 81.0381 202.005C81.1558 202.041 81.2551 202.15 81.2661 202.244L86.7802 256.832C86.7912 256.919 86.7066 256.97 86.5926 256.937Z" fill="#4D4D4D"/>
<path d="M92.732 256.934C92.6179 256.901 92.5186 256.799 92.5113 256.709L87.9205 202.07C87.9132 201.976 87.9978 201.932 88.1118 201.972C88.1118 201.972 88.1118 201.972 88.1155 201.972C88.2295 202.012 88.3288 202.117 88.3399 202.212L92.9232 256.832C92.9306 256.919 92.846 256.966 92.732 256.934Z" fill="#4D4D4D"/>
<path d="M98.8823 256.93H98.8786C98.7646 256.894 98.669 256.796 98.6653 256.705L95.0089 202.03C95.0015 201.939 95.0861 201.896 95.2038 201.936C95.3179 201.976 95.4172 202.081 95.4209 202.175L99.0699 256.828C99.0773 256.919 98.9927 256.963 98.8823 256.93Z" fill="#4D4D4D"/>
<path d="M105.036 256.931C105.033 256.931 105.033 256.931 105.029 256.928C104.919 256.891 104.823 256.789 104.819 256.702L102.101 201.995C102.097 201.904 102.186 201.86 102.296 201.904C102.41 201.944 102.506 202.053 102.509 202.144L105.22 256.829C105.228 256.92 105.143 256.964 105.036 256.931Z" fill="#4D4D4D"/>
<path d="M111.198 256.927C111.194 256.927 111.19 256.923 111.187 256.923C111.076 256.887 110.984 256.785 110.981 256.698L109.204 201.958C109.2 201.867 109.289 201.827 109.403 201.871C109.513 201.911 109.609 202.02 109.609 202.11L111.382 256.832C111.385 256.916 111.305 256.96 111.198 256.927Z" fill="#4D4D4D"/>
<path d="M117.363 256.926C117.359 256.926 117.356 256.923 117.352 256.923C117.242 256.886 117.153 256.785 117.15 256.698L116.315 201.925C116.315 201.834 116.403 201.798 116.513 201.841C116.624 201.885 116.716 201.99 116.716 202.081L117.547 256.836C117.551 256.916 117.47 256.956 117.363 256.926Z" fill="#4D4D4D"/>
<path d="M10.4374 257.326C10.3639 257.286 10.2866 257.21 10.213 257.112C10.099 256.952 10.0107 256.748 9.97394 256.556L0.0126589 202.47C-0.0278042 202.255 0.0310512 202.114 0.156119 202.11L39.2655 201.776C39.3538 201.776 39.4789 201.863 39.5893 202.005C39.6996 202.15 39.7842 202.328 39.81 202.484L49.5579 256.988C49.5984 257.206 49.5469 257.348 49.4291 257.348L10.5588 257.362C10.522 257.362 10.4779 257.348 10.4374 257.326ZM0.755709 203.156L10.5699 256.102L48.7597 256.153L39.2766 202.771L0.755709 203.156Z" fill="#4D4D4D"/>
<path d="M3.77575 221.883L3.53298 221.215L42.4548 220.391L42.7233 221.019L3.77575 221.883Z" fill="#4D4D4D"/>
<path d="M7.14524 240.356L6.89511 239.645L45.7103 238.904L45.9862 239.576L7.14524 240.356Z" fill="#4D4D4D"/>
<path d="M13.8547 256.919C13.7922 256.883 13.726 256.778 13.7076 256.676L3.32698 202.553C3.30859 202.466 3.34538 202.419 3.40423 202.448C3.46309 202.477 3.52562 202.571 3.54401 202.658L13.943 256.785C13.9651 256.89 13.9283 256.956 13.8621 256.923C13.8621 256.923 13.8584 256.923 13.8547 256.919Z" fill="#4D4D4D"/>
<path d="M17.077 256.923C17.0145 256.886 16.9483 256.781 16.9299 256.676L6.61915 202.52C6.60443 202.433 6.63754 202.386 6.6964 202.419C6.75525 202.448 6.81779 202.542 6.8325 202.629L17.1653 256.792C17.1837 256.897 17.1506 256.959 17.0844 256.926C17.0807 256.923 17.0807 256.923 17.077 256.923Z" fill="#4D4D4D"/>
<path d="M20.3031 256.923C20.2406 256.887 20.1743 256.778 20.1523 256.676L9.91511 202.488C9.90039 202.401 9.9335 202.357 9.99235 202.386C10.0512 202.415 10.1137 202.51 10.1285 202.597L20.3914 256.796C20.4098 256.901 20.373 256.959 20.3104 256.927C20.3068 256.923 20.3031 256.923 20.3031 256.923Z" fill="#4D4D4D"/>
<path d="M23.5328 256.923C23.4702 256.887 23.4004 256.778 23.382 256.676L13.211 202.455C13.1963 202.372 13.2294 202.328 13.2883 202.357C13.3471 202.386 13.4096 202.484 13.4244 202.568L23.6174 256.796C23.6394 256.901 23.6027 256.959 23.5328 256.923C23.5328 256.927 23.5328 256.923 23.5328 256.923Z" fill="#4D4D4D"/>
<path d="M26.7662 256.923C26.7 256.886 26.6338 256.774 26.6154 256.672L16.5143 202.426C16.4996 202.342 16.5327 202.299 16.5916 202.331C16.6504 202.364 16.7093 202.459 16.7277 202.542L26.8508 256.803C26.8692 256.905 26.8324 256.959 26.7662 256.923C26.7662 256.926 26.7662 256.926 26.7662 256.923Z" fill="#4D4D4D"/>
<path d="M30.0032 256.926C29.937 256.89 29.8708 256.778 29.8524 256.676L19.8212 202.393C19.8065 202.31 19.8396 202.27 19.8985 202.302C19.9573 202.335 20.0162 202.43 20.0309 202.513L30.0841 256.807C30.1062 256.908 30.0694 256.963 30.0032 256.926Z" fill="#4D4D4D"/>
<path d="M33.2439 256.926C33.1777 256.886 33.1115 256.774 33.0894 256.672L23.1318 202.361C23.1171 202.277 23.1502 202.241 23.2091 202.273C23.2679 202.306 23.3268 202.4 23.3415 202.484L33.3248 256.81C33.3432 256.912 33.3064 256.963 33.2439 256.926Z" fill="#4D4D4D"/>
<path d="M36.4884 256.926C36.4847 256.926 36.4884 256.926 36.4884 256.926C36.4222 256.887 36.3523 256.774 36.3339 256.672L26.4462 202.328C26.4315 202.248 26.4646 202.208 26.5271 202.244C26.586 202.281 26.6448 202.375 26.6595 202.455L36.573 256.814C36.5877 256.912 36.5509 256.963 36.4884 256.926Z" fill="#4D4D4D"/>
<path d="M39.7365 256.931C39.7365 256.931 39.7328 256.931 39.7328 256.927C39.6666 256.888 39.6004 256.775 39.582 256.673L29.7641 202.296C29.7494 202.216 29.7862 202.18 29.8451 202.216C29.9039 202.253 29.9628 202.347 29.9775 202.427L39.8174 256.819C39.8358 256.917 39.799 256.964 39.7365 256.931Z" fill="#4D4D4D"/>
<path d="M42.9882 256.931C42.9882 256.931 42.9845 256.927 42.9808 256.927C42.9146 256.887 42.8484 256.774 42.83 256.673L33.0821 202.263C33.0674 202.183 33.1041 202.147 33.163 202.187C33.2219 202.223 33.2807 202.318 33.2954 202.397L43.0654 256.822C43.0838 256.916 43.0507 256.963 42.9882 256.931Z" fill="#4D4D4D"/>
<path d="M46.2436 256.93C46.2399 256.93 46.2399 256.926 46.2363 256.926C46.1701 256.883 46.1038 256.77 46.0854 256.672L36.4111 202.23C36.3964 202.15 36.4332 202.117 36.492 202.154C36.5509 202.19 36.6097 202.284 36.6244 202.364L46.3245 256.821C46.3393 256.919 46.3062 256.963 46.2436 256.93Z" fill="#4D4D4D"/>
<path d="M85.0588 257.308C84.9926 257.268 84.93 257.191 84.8749 257.09C84.7866 256.93 84.7351 256.723 84.7314 256.53L83.878 201.979C83.8743 201.765 83.9552 201.62 84.0803 201.616L122.91 201.296C122.998 201.296 123.105 201.383 123.193 201.529C123.278 201.674 123.333 201.856 123.333 202.012L123.903 256.988C123.907 257.21 123.833 257.351 123.716 257.351L85.1765 257.344C85.136 257.344 85.0956 257.333 85.0588 257.308ZM84.4997 202.669L85.3972 256.073L123.252 256.142L122.756 202.299L84.4997 202.669Z" fill="#4D4D4D"/>
<path d="M84.3672 221.556L84.2385 220.885L122.962 220.071L123.124 220.707L84.3672 221.556Z" fill="#4D4D4D"/>
<path d="M84.6247 240.193L84.4959 239.474L123.101 238.744L123.267 239.423L84.6247 240.193Z" fill="#4D4D4D"/>
<path d="M88.5165 256.901C88.4613 256.864 88.4135 256.759 88.4098 256.654L87.1481 202.063C87.1444 201.975 87.1886 201.928 87.2437 201.954C87.2989 201.983 87.343 202.077 87.3467 202.164L88.6305 256.763C88.6342 256.872 88.5864 256.933 88.5275 256.901C88.5202 256.904 88.5165 256.904 88.5165 256.901Z" fill="#4D4D4D"/>
<path d="M91.7094 256.904C91.6542 256.868 91.6064 256.759 91.6027 256.657L90.4145 202.033C90.4109 201.946 90.455 201.899 90.5102 201.928C90.5617 201.957 90.6095 202.052 90.6095 202.139L91.816 256.77C91.8197 256.875 91.7719 256.937 91.713 256.904H91.7094Z" fill="#4D4D4D"/>
<path d="M94.906 256.904C94.8472 256.868 94.803 256.759 94.7993 256.654L93.6884 202.001C93.6884 201.914 93.7289 201.87 93.7841 201.899C93.8393 201.932 93.8834 202.026 93.8834 202.11L95.0164 256.774C95.02 256.879 94.9722 256.941 94.9134 256.904C94.9097 256.908 94.9097 256.908 94.906 256.904Z" fill="#4D4D4D"/>
<path d="M98.1099 256.908C98.0511 256.872 98.0032 256.759 98.0032 256.657L96.9659 201.972C96.9659 201.884 97.0064 201.841 97.0579 201.874C97.1094 201.903 97.1572 202.001 97.1572 202.088L98.2166 256.781C98.2166 256.886 98.1724 256.944 98.1099 256.908Z" fill="#4D4D4D"/>
<path d="M101.314 256.912C101.255 256.875 101.207 256.763 101.207 256.661L100.243 201.943C100.243 201.859 100.284 201.816 100.335 201.848C100.391 201.881 100.431 201.975 100.435 202.063L101.421 256.792C101.421 256.89 101.376 256.948 101.314 256.912Z" fill="#4D4D4D"/>
<path d="M104.522 256.912C104.463 256.875 104.415 256.763 104.411 256.658L103.525 201.906C103.525 201.823 103.565 201.783 103.617 201.816C103.668 201.848 103.712 201.943 103.716 202.03L104.625 256.792C104.628 256.897 104.58 256.952 104.522 256.912C104.525 256.912 104.522 256.912 104.522 256.912Z" fill="#4D4D4D"/>
<path d="M107.736 256.915C107.678 256.875 107.63 256.763 107.626 256.661L106.813 201.877C106.813 201.794 106.854 201.754 106.905 201.79C106.957 201.826 107.001 201.921 107.001 202.004L107.836 256.799C107.839 256.901 107.795 256.952 107.736 256.915Z" fill="#4D4D4D"/>
<path d="M110.951 256.919C110.951 256.915 110.951 256.919 110.951 256.919C110.893 256.879 110.841 256.763 110.841 256.661L110.102 201.845C110.102 201.761 110.139 201.725 110.194 201.761C110.245 201.798 110.289 201.892 110.289 201.975L111.047 256.803C111.054 256.905 111.01 256.955 110.951 256.919Z" fill="#4D4D4D"/>
<path d="M114.174 256.92C114.174 256.92 114.17 256.92 114.17 256.916C114.111 256.876 114.063 256.76 114.063 256.662L113.401 201.813C113.401 201.733 113.442 201.693 113.493 201.733C113.545 201.769 113.589 201.864 113.589 201.947L114.273 256.811C114.273 256.909 114.229 256.956 114.174 256.92Z" fill="#4D4D4D"/>
<path d="M117.396 256.923L117.392 256.92C117.334 256.88 117.286 256.763 117.286 256.665L116.701 201.783C116.701 201.703 116.741 201.667 116.793 201.703C116.844 201.74 116.888 201.834 116.888 201.918L117.495 256.814C117.495 256.912 117.451 256.959 117.396 256.923Z" fill="#4D4D4D"/>
<path d="M120.626 256.926C120.622 256.926 120.622 256.923 120.618 256.923C120.56 256.879 120.515 256.766 120.512 256.668L120 201.754C120 201.674 120.041 201.641 120.092 201.678C120.144 201.714 120.188 201.812 120.188 201.892L120.721 256.821C120.721 256.915 120.681 256.959 120.626 256.926Z" fill="#4D4D4D"/>
<path d="M123.561 257.351C124.205 257.351 124.731 256.836 124.731 256.196V188.082C124.731 185.104 127.185 182.681 130.201 182.681H146.691C147.335 182.681 147.861 182.166 147.861 181.526C147.861 180.891 147.339 180.371 146.691 180.371H130.201C125.897 180.371 122.395 183.829 122.395 188.079V256.193C122.395 256.836 122.918 257.351 123.561 257.351Z" fill="#4D4D4D"/>
<path d="M85.3971 257.351C86.0409 257.351 86.5669 256.836 86.5669 256.196V188.082C86.5669 185.104 89.0204 182.681 92.0368 182.681H108.527C109.171 182.681 109.697 182.166 109.697 181.526C109.697 180.891 109.175 180.371 108.527 180.371H92.0368C87.733 180.371 84.2311 183.829 84.2311 188.079V256.193C84.2311 256.836 84.7534 257.351 85.3971 257.351Z" fill="#4D4D4D"/>
<path d="M46.8359 279.014H113.655C116.594 279.014 119.353 277.88 121.428 275.828C123.502 273.772 124.639 271.045 124.632 268.142C124.613 262.186 119.688 257.34 113.655 257.34H42.5357C41.892 257.34 41.366 257.856 41.366 258.495C41.366 259.131 41.8883 259.651 42.5357 259.651H113.655C118.404 259.651 122.277 263.464 122.292 268.15C122.3 270.434 121.406 272.581 119.772 274.197C118.139 275.814 115.969 276.703 113.655 276.703H46.8359C46.1921 276.703 45.6661 277.219 45.6661 277.859C45.6698 278.498 46.1921 279.014 46.8359 279.014Z" fill="#4D4D4D"/>
<path d="M20.0161 279.014H86.8354C89.7745 279.014 92.5334 277.88 94.608 275.828C96.6827 273.772 97.8193 271.045 97.812 268.142C97.7936 262.186 92.8681 257.34 86.8354 257.34H15.716C15.0723 257.34 14.5463 257.856 14.5463 258.495C14.5463 259.131 15.0686 259.651 15.716 259.651H86.8354C91.5843 259.651 95.4578 263.464 95.4725 268.15C95.4798 270.434 94.586 272.581 92.9527 274.197C91.3195 275.814 89.1492 276.703 86.8354 276.703H20.0161C19.3724 276.703 18.8464 277.219 18.8464 277.859C18.8464 278.498 19.3687 279.014 20.0161 279.014Z" fill="#4D4D4D"/>
<path d="M107.31 183.571H143.499C144.65 183.571 145.584 182.649 145.584 181.512C145.584 180.375 144.65 179.452 143.499 179.452H107.31C106.158 179.452 105.224 180.375 105.224 181.512C105.224 182.649 106.155 183.571 107.31 183.571Z" fill="#4D4D4D"/>
<path d="M105.246 16.4958C105.114 -1.45068 139.596 -4.08399 139.191 5.35598L201.096 5.57028C208.258 5.66835 214.044 12.0718 214.018 19.8628L213.202 280.15C213.176 287.778 207.423 293.956 200.342 293.96L134.766 294.283C134.137 295.554 132.952 296.706 131.084 297.661C112.736 297.516 104.393 290.382 104.323 281.193C103.642 279.507 104.51 19.8737 105.246 16.4958Z" fill="#4D4D4D"/>
<path d="M132.18 297.716L212.863 297.625C220.194 297.636 226.161 291.295 226.187 283.456L227.169 15.7518C227.198 7.73566 221.21 1.16146 213.79 1.07792L132.871 0.03912C125.389 -0.0444197 119.313 6.42082 119.298 14.4733L118.82 283.431C118.809 291.313 124.79 297.702 132.18 297.716Z" fill="#4D4D4D"/>
<path d="M130.55 295.816C131.04 295.881 131.54 295.918 132.036 295.918L212.701 295.703C219.003 295.707 224.182 290.146 224.208 283.299L225.164 15.8855C225.19 8.88636 219.989 3.12576 213.614 3.04585L132.717 1.87993C132.529 1.8763 132.342 1.87993 132.158 1.8872C129.167 1.99979 126.379 3.3219 124.301 5.60653C122.178 7.93837 121.008 11.0439 121.005 14.3491L120.508 283.579C120.497 289.776 124.797 295.031 130.55 295.816Z" fill="#0D0D0D"/>
<path d="M125.176 15.773L124.635 284.015L220.286 284.008L221.202 16.5503L125.176 15.773Z" fill="white"/>
<path d="M192.33 58.2292L181.53 58.142L146.824 15.9509L157.672 16.0381L192.33 58.2292Z" fill="#F13005"/>
<path d="M181.53 58.142L170.741 58.0548L135.976 15.8601L146.824 15.9509L181.53 58.142Z" fill="#F1E3E0"/>
<path d="M170.741 58.055L159.941 57.9678L125.14 15.773L135.976 15.8602L170.741 58.055Z" fill="#F13005"/>
<path d="M203.123 58.3164L192.33 58.2292L157.672 16.0381L168.512 16.1253L203.123 58.3164Z" fill="#F1E3E0"/>
<path d="M224.712 58.4908L213.919 58.4037L179.36 16.2125L190.197 16.2997L224.712 58.4908Z" fill="#F1E3E0"/>
<path d="M256.034 58.745L246.301 58.6651L211.881 16.4776L221.655 16.5539L256.034 58.745Z" fill="#F13005"/>
<path d="M246.301 58.6652L235.508 58.578L201.044 16.3869L211.881 16.4777L246.301 58.6652Z" fill="#F1E3E0"/>
<path d="M213.919 58.4035L203.123 58.3164L168.512 16.1252L179.36 16.2124L213.919 58.4035Z" fill="#F13005"/>
<path d="M235.508 58.5779L224.712 58.4907L190.197 16.2996L201.044 16.3868L235.508 58.5779Z" fill="#F13005"/>
<path d="M170.741 58.055L170.745 64.4767C170.749 71.2833 159.963 71.1962 159.952 64.3895L159.941 57.9678L170.741 58.055Z" fill="#D62B04"/>
<path d="M181.53 58.1421L181.526 64.5637C181.523 71.3704 170.745 71.2832 170.741 64.4765L170.737 58.0549L181.53 58.1421Z" fill="#F1C5BC"/>
<path d="M192.33 58.2293L192.319 64.6545C192.308 71.4612 181.523 71.374 181.526 64.5674L181.53 58.1457L192.33 58.2293Z" fill="#D62B04"/>
<path d="M203.123 58.3165L203.104 64.7382C203.086 71.5448 192.308 71.4577 192.319 64.651L192.33 58.2293L203.123 58.3165Z" fill="#F1C5BC"/>
<path d="M213.919 58.4035L213.893 64.8252C213.868 71.6319 203.082 71.5447 203.101 64.738L203.119 58.3164L213.919 58.4035Z" fill="#D62B04"/>
<path d="M224.712 58.4907L224.678 64.9124C224.645 71.719 213.867 71.6319 213.897 64.8252L213.923 58.4035L224.712 58.4907Z" fill="#F1C5BC"/>
<path d="M235.508 58.5779L235.467 64.9995C235.427 71.8062 224.642 71.719 224.675 64.9124L224.708 58.4907L235.508 58.5779Z" fill="#D62B04"/>
<path d="M246.301 58.6651L246.253 65.0867C246.201 71.8934 235.427 71.8062 235.471 64.9995L235.512 58.5779L246.301 58.6651Z" fill="#F1C5BC"/>
<path d="M256.034 58.7451L255.979 65.1667C255.923 71.9734 246.198 71.8935 246.249 65.0868L246.297 58.6652L256.034 58.7451Z" fill="#D62B04"/>
<path d="M159.941 57.9678L160.787 58.084L125.091 57.7717L125.139 15.773L159.941 57.9678Z" fill="#F1E3E0"/>
<path d="M111.834 106.272C113.353 106.305 114.608 105.12 114.623 103.635L115.211 35.6773C115.226 34.1699 113.983 32.9096 112.449 32.8769C110.918 32.8406 109.653 34.0464 109.642 35.5538L109.094 103.515C109.079 104.997 110.315 106.239 111.834 106.272Z" fill="#0D0D0D"/>
<path d="M210.583 85.6777H195.659V167.005H210.583V85.6777Z" fill="#0776ED" fill-opacity="0.5"/>
<path d="M203.123 159.759C202.255 159.759 201.552 159.065 201.552 158.208V94.4783C201.552 93.6211 202.255 92.9274 203.123 92.9274C203.991 92.9274 204.693 93.6211 204.693 94.4783V158.208C204.693 159.065 203.991 159.759 203.123 159.759Z" fill="#0D0D0D"/>
<path d="M276.526 171.93C276.526 171.93 281.901 171.607 284.663 176.318C287.429 181.029 283.957 185.409 283.957 185.409C283.957 185.409 293.892 185.62 295.051 194.82C296.21 204.02 287.709 205.379 287.709 205.379C287.709 205.379 291.167 212.411 282.938 217.902C274.713 223.391 266.698 213.297 266.698 213.297C266.698 213.297 259.841 215.923 254.342 209.203C248.842 202.484 254.886 195.703 254.886 195.703C254.886 195.703 250.851 192.804 251.734 185.758C252.616 178.708 258.384 178.555 258.384 178.555C258.384 178.555 255.662 174.364 258.679 171.291C261.695 168.218 266.495 170.91 266.495 170.91C266.495 170.91 267.926 165.574 271.752 166.308C275.577 167.034 276.526 171.93 276.526 171.93Z" fill="#0D0D0D"/>
<path d="M258.318 185.58L247.18 174.404L247.191 155.063L243.512 154.583C243.512 154.583 240.5 172.174 240.511 175.911C240.518 179.231 251.8 193.654 251.8 193.654L258.318 185.58Z" fill="#FFA88F"/>
<path d="M271.307 186.455C267.79 183.524 257.63 184.89 257.63 184.89C257.63 184.89 251.002 190.265 250.454 194.239C250.064 197.09 251.741 212.97 251.741 212.97H268.033L274.194 196.284C274.194 196.284 274.827 189.386 271.307 186.455Z" fill="#029E73"/>
<path d="M272.723 231.676C274.055 239.423 275.603 252.034 276.228 260.82C280.477 279.239 279.473 282.813 281.11 293.978C279.326 295.347 276.696 294.418 276.696 294.418C273.69 286.837 269.022 274.168 267.838 263.348C265.035 254.358 262.077 244.875 259.013 235.05L258.789 234.487C256.199 225.919 270.681 220.801 272.723 231.676Z" fill="#FFA88F"/>
<path d="M251.759 212.97C251.759 212.97 249.725 218.349 248.452 226.692C247.18 235.035 243.019 293.393 243.019 293.393L247.643 293.419C250.115 283.423 255.026 275.465 254.419 262.593L266.153 227.197L260.404 212.966H251.759V212.97Z" fill="#FFA88F"/>
<path d="M270.023 186.572L281.441 176.06L276.88 155.778L280.816 154.583C280.816 154.583 290.442 173.859 290.431 177.597C290.424 180.916 274.194 196.382 274.194 196.382C271.638 197.577 267.823 192.002 270.023 186.572Z" fill="#FFA88F"/>
<path d="M258.318 169.936C255.622 174.807 255.28 179.547 259.477 181.842C263.67 184.138 269.258 182.049 271.954 177.179C274.65 172.308 273.436 166.497 269.243 164.197C265.05 161.902 261.014 165.062 258.318 169.936Z" fill="#FFA88F"/>
<path d="M260.93 179.932H267.051L267.293 186.441C267.293 187.788 264.134 189.688 261.57 189.539C259.576 189.423 258.248 188.046 258.892 186.626L260.93 179.932Z" fill="#FFA88F"/>
<path d="M244.899 253.934C246.849 228.61 251.759 212.97 251.759 212.97H268.037C270.917 215.2 273.536 219.087 275.202 223.238C276.339 226.529 280.904 240.901 282.662 253.934C269.791 258.535 246.554 256.847 244.899 253.934Z" fill="#029E73"/>
<path d="M269.173 210.555L268.379 213.409H251.55L251.406 210.555H269.173Z" fill="#0D0D0D"/>
<path d="M234.695 298.01C234.695 297.952 237.435 297.952 240.371 297.962C243.744 297.973 247.948 298.01 247.948 298.01C248.033 296.724 248.081 295.391 247.65 293.422L242.364 293.397C242.364 293.397 240.897 293.64 238.329 294.414C238.16 294.465 237.98 294.501 237.792 294.545C233.683 295.482 234.695 298.13 234.695 298.01Z" fill="#994803"/>
<path d="M234.695 298.01C234.695 297.952 237.435 297.952 240.371 297.962C240.463 297.701 240.511 297.418 240.511 297.131C240.511 295.874 239.598 294.806 238.329 294.414C238.16 294.461 237.98 294.501 237.792 294.545C233.683 295.482 234.695 298.13 234.695 298.01Z" fill="#994803"/>
<path d="M248.125 297.192H234.423V298.013H248.125V297.192Z" fill="#994803"/>
<path d="M275.861 298.05C275.938 298.053 277.284 298.035 278.947 298.017C281.658 297.992 285.219 297.97 285.553 298.05C286.499 295.798 284.538 294.639 282.736 294.003C281.967 293.735 281.224 293.56 280.749 293.437L276.159 293.462C275.728 295.427 275.776 296.76 275.861 298.05Z" fill="#994803"/>
<path d="M285.826 297.229H275.68V298.05H285.826V297.229Z" fill="#994803"/>
<path d="M278.947 298.017C281.658 297.992 285.219 297.97 285.553 298.05C286.499 295.798 284.538 294.639 282.736 294.003C281.691 293.894 280.47 294.065 279.51 295.053C278.498 296.099 278.583 297.178 278.947 298.017Z" fill="#994803"/>
<path d="M264.682 166.293C264.8 166.126 263.313 172.406 272.153 176.322C277.597 172.646 276.103 161.063 266.278 163.398C265.094 161.317 259.451 160.202 257.693 165.291C253.106 165.886 253.209 170.205 256.225 169.965C256.225 169.969 261.654 170.554 264.682 166.293Z" fill="#0D0D0D"/>
<path d="M270.023 176.322C270.023 177.24 270.777 177.985 271.708 177.985C272.638 177.985 273.392 177.24 273.392 176.322C273.392 175.403 272.638 174.658 271.708 174.658C270.777 174.658 270.023 175.403 270.023 176.322Z" fill="#FFA88F"/>
<path d="M281.982 98.5862H201.552V154.096H281.985C284.792 154.096 287.069 151.848 287.069 149.077V103.602C287.065 100.834 284.788 98.5862 281.982 98.5862Z" fill="#F13005"/>
<path d="M271.726 112.61H265.061V109.973C265.061 109.094 265.782 108.382 266.672 108.382H276V114.746C276 115.127 276.206 115.436 276.593 115.436C276.979 115.436 277.13 115.127 277.13 114.746V108.386H278.745C279.635 108.386 280.356 109.098 280.356 109.977V117.684H271.608C271.336 117.684 271.09 117.877 271.06 118.145C271.031 118.454 271.274 118.712 271.579 118.712H280.356V121.894C280.356 122.773 279.635 123.485 278.745 123.485H266.676C265.785 123.485 265.064 122.773 265.064 121.894V113.66H271.759C272.072 113.66 272.318 113.394 272.285 113.082C272.256 112.81 272.002 112.61 271.726 112.61Z" fill="#FFCA05"/>
<path d="M203.115 147.852H221.607V138.641H203.115V147.852Z" fill="#ECEAE9"/>
<path d="M280.352 129.1H263.096V133.397H280.352V129.1Z" fill="#ECEAE9"/>
<path d="M260.669 129.1H243.093V133.397H260.669V129.1Z" fill="#ECEAE9"/>
<path d="M221.173 129.1H203.218V133.397H221.173V129.1Z" fill="#ECEAE9"/>
<path d="M240.341 129.1H223.733V133.397H240.341V129.1Z" fill="#ECEAE9"/>
<path d="M227.035 144.191H280.248V138.641H227.035V144.191Z" fill="#FFCA05"/>
<path d="M203.115 110.279H226.01V103.806H203.115V110.279Z" fill="#ECEAE9"/>
<path d="M246.926 155.44C246.926 155.44 248.368 155.095 248.765 152.658C249.162 150.217 249.221 150.784 249.221 150.784C249.221 150.784 247.864 150.09 247.143 152.909C245.009 152.767 243.659 154.1 243.659 154.1C243.659 154.1 243.126 154.343 243.413 155.132C243.703 155.92 246.665 155.822 246.926 155.44Z" fill="#FFA88F"/>
<path d="M276.88 155.778C276.88 155.778 274.753 155.077 273.911 150.708C275.276 149.749 275.817 152.284 275.817 152.284C275.817 152.284 281.029 151.852 280.816 154.583C280.599 157.314 276.88 155.778 276.88 155.778Z" fill="#FFA88F"/>
<path d="M202.575 98.5862H201.552V154.096H202.575V98.5862Z" fill="#0D0D0D"/>
<path d="M183.516 85.6777H138.058V110.543H183.516V85.6777Z" fill="#0776ED"/>
<path d="M183.516 113.892H138.058V138.758H183.516V113.892Z" fill="#0776ED"/>
<path d="M183.516 142.056H138.058V166.922H183.516V142.056Z" fill="#0776ED"/>
<path d="M208.479 186.851H137.514V256.915H208.479V186.851Z" fill="#0776ED"/>
<path d="M183.811 230.085H158.628C158.128 230.085 157.683 229.765 157.532 229.293L152.709 214.456C152.595 214.111 152.658 213.729 152.875 213.439C153.092 213.144 153.438 212.97 153.806 212.97H188.637C189.005 212.97 189.351 213.144 189.568 213.439C189.785 213.733 189.847 214.111 189.733 214.456L184.911 229.293C184.753 229.765 184.311 230.085 183.811 230.085ZM159.467 227.807H182.968L187.052 215.247H155.38L159.467 227.807Z" fill="white"/>
<path d="M181.74 236.368H160.261C159.625 236.368 159.11 235.86 159.11 235.232C159.11 234.603 159.625 234.095 160.261 234.095H180.898C182.303 234.058 182.935 233.1 183.038 232.119C183.13 231.24 182.792 230.346 182.192 230.088L189.443 207.667C189.593 207.195 190.039 206.875 190.542 206.875H198.043C198.679 206.875 199.194 207.384 199.194 208.012C199.194 208.641 198.679 209.149 198.043 209.149H191.385L184.738 229.961C186.504 232.827 184.101 236.368 181.74 236.368Z" fill="white"/>
<path d="M164.657 242.801C166.122 242.801 167.309 241.629 167.309 240.182C167.309 238.736 166.122 237.563 164.657 237.563C163.192 237.563 162.005 238.736 162.005 240.182C162.005 241.629 163.192 242.801 164.657 242.801Z" fill="white"/>
<path d="M178.003 242.801C179.467 242.801 180.655 241.629 180.655 240.182C180.655 238.736 179.467 237.563 178.003 237.563C176.538 237.563 175.35 238.736 175.35 240.182C175.35 241.629 176.538 242.801 178.003 242.801Z" fill="white"/>
<path d="M171.841 230.085C171.205 230.085 170.69 229.576 170.69 228.948V214.111C170.69 213.482 171.205 212.974 171.841 212.974C172.478 212.974 172.993 213.482 172.993 214.111V228.948C172.996 229.573 172.481 230.085 171.841 230.085Z" fill="white"/>
<path d="M165.415 230.085C164.889 230.085 164.414 229.725 164.293 229.199L160.883 214.361C160.743 213.747 161.129 213.137 161.751 212.999C162.373 212.861 162.991 213.243 163.131 213.856L166.54 228.694C166.68 229.308 166.294 229.918 165.672 230.056C165.584 230.074 165.499 230.085 165.415 230.085Z" fill="white"/>
<path d="M178.006 230.085C177.951 230.085 177.896 230.081 177.837 230.074C177.208 229.983 176.77 229.406 176.862 228.784L179.047 213.947C179.139 213.326 179.724 212.894 180.353 212.985C180.982 213.075 181.42 213.653 181.328 214.274L179.143 229.111C179.062 229.674 178.569 230.085 178.006 230.085Z" fill="white"/>
<path d="M186.22 222.755H156.241C155.604 222.755 155.089 222.247 155.089 221.618C155.089 220.99 155.604 220.481 156.241 220.481H186.22C186.857 220.481 187.372 220.99 187.372 221.618C187.375 222.247 186.857 222.755 186.22 222.755Z" fill="white"/>
<path d="M159.243 213.985C159.268 210.884 156.742 208.35 153.601 208.326C150.46 208.301 147.894 210.795 147.869 213.896C147.844 216.998 150.37 219.532 153.511 219.556C156.652 219.581 159.218 217.087 159.243 213.985Z" fill="#F13005"/>
<path d="M161.324 94.2933C160.129 92.6807 158.201 91.6273 156.024 91.6273C152.393 91.6273 149.454 94.5331 149.454 98.1144C149.454 101.699 152.397 104.601 156.024 104.601C158.205 104.601 160.133 103.548 161.324 101.935C160.53 100.864 160.055 99.5454 160.055 98.1144C160.055 96.6833 160.53 95.3648 161.324 94.2933Z" fill="white"/>
<path d="M166.625 91.6233C164.444 91.6233 162.516 92.6766 161.324 94.2893C162.119 95.3608 162.593 96.6792 162.593 98.1103C162.593 99.5414 162.119 100.86 161.324 101.931C162.52 103.544 164.447 104.597 166.625 104.597C170.256 104.597 173.198 101.692 173.198 98.1103C173.198 94.529 170.256 91.6233 166.625 91.6233Z" fill="#073B73"/>
<path d="M161.324 94.2929C160.53 95.3644 160.055 96.6829 160.055 98.1139C160.055 99.545 160.53 100.863 161.324 101.935C162.119 100.863 162.593 99.545 162.593 98.1139C162.593 96.6829 162.119 95.3644 161.324 94.2929Z" fill="#0776ED"/>
<path d="M173.132 119.166H150.984V131.247H173.132V119.166Z" fill="#073B73"/>
<path d="M172.191 127.81C172.198 127.81 172.202 127.81 172.209 127.81V122.566C170.598 122.555 169.792 121.316 169.792 120.078H154.361C154.361 121.323 153.548 122.566 151.926 122.566C151.919 122.566 151.911 122.566 151.904 122.566V127.85C151.911 127.85 151.919 127.85 151.926 127.85C153.552 127.85 154.361 129.096 154.361 130.338H169.752C169.741 129.082 170.55 127.81 172.191 127.81Z" fill="white"/>
<path d="M162.174 127.956C163.712 127.956 164.959 126.725 164.959 125.206C164.959 123.688 163.712 122.457 162.174 122.457C160.636 122.457 159.39 123.688 159.39 125.206C159.39 126.725 160.636 127.956 162.174 127.956Z" fill="#03ADB0"/>
<path d="M170.237 122.497H148.089V134.577H170.237V122.497Z" fill="#073B73"/>
<path d="M169.299 131.141C169.307 131.141 169.31 131.141 169.318 131.141V125.896C167.706 125.885 166.901 124.647 166.901 123.408H151.47C151.47 124.654 150.657 125.896 149.035 125.896C149.027 125.896 149.02 125.896 149.013 125.896V131.181C149.02 131.181 149.027 131.181 149.035 131.181C150.66 131.181 151.47 132.427 151.47 133.669H166.86C166.849 132.412 167.659 131.141 169.299 131.141Z" fill="white"/>
<path d="M159.333 131.299C160.871 131.272 162.096 130.02 162.07 128.502C162.043 126.984 160.775 125.774 159.238 125.8C157.7 125.826 156.475 127.078 156.501 128.597C156.528 130.115 157.796 131.325 159.333 131.299Z" fill="#04D6D9"/>
<path d="M151.904 149.08V160.736L167.122 158.655V146.789L151.904 149.08Z" fill="#073B73"/>
<path d="M153.824 149.08L153.861 160.471L168.416 161.244L168.38 149.647L153.824 149.08Z" fill="white"/>
<path d="M151.904 149.08V160.736L167.122 164.274V152.407L151.904 149.08Z" fill="#073B73"/>
<path d="M62.0647 102.356C58.1802 106.617 51.9489 109.995 45.21 111.578C45.2173 112.025 45.2504 114.495 45.4086 125.885C45.6183 141.079 60.4977 148.241 62.7121 149.222C64.8971 148.183 79.5742 140.621 79.3645 125.428C79.2063 114.037 79.1732 111.567 79.1659 111.121C72.3865 109.719 66.0632 106.511 62.0647 102.356Z" fill="#318F66"/>
<path d="M62.6532 144.94C61.1671 144.21 58.2354 142.579 55.4251 139.916C51.1507 135.863 48.9436 131.141 48.8737 125.882L48.7155 114.382C53.9684 112.944 58.7246 110.391 62.1346 107.191C65.6291 110.3 70.4516 112.722 75.7449 114.019L75.9031 125.519C75.9766 130.782 73.902 135.561 69.7416 139.728C67.0012 142.463 64.1173 144.17 62.6532 144.94Z" fill="#40B883"/>
<path d="M72.8279 118.276C68.7742 118.966 63.3044 122.729 59.8907 127.193C59.361 125.126 57.1282 123.27 55.9695 122.874L52.5448 126.397C54.7409 127.327 57.1687 130.03 57.5365 132.834L61.0274 133.306C62.4436 130.415 66.111 123.499 73.5893 119.678C73.4348 119.119 72.8868 118.352 72.8279 118.276Z" fill="white"/>
<path d="M331.225 297.886H5.98279V298.889H331.225V297.886Z" fill="#0776ED"/>
</svg>
