<svg width="5" height="14" viewBox="0 0 5 14" fill="none" xmlns="http://www.w3.org/2000/svg">
<path d="M2.13963 0.357579C1.90458 0.128625 1.58579 0 1.25338 0C0.920965 0 0.602168 0.128625 0.367118 0.357579C0.132068 0.586534 0 0.897065 0 1.22086C0 1.54465 0.132068 1.85518 0.367118 2.08413C1.70207 3.38972 2.45157 5.15733 2.45157 7C2.45157 8.84268 1.70207 10.6103 0.367118 11.9159C0.132068 12.1448 0 12.4554 0 12.7792C0 13.1029 0.132068 13.4135 0.367118 13.6424C0.602168 13.8714 0.920965 14 1.25338 14C1.58579 14 1.90458 13.8714 2.13963 13.6424C3.94663 11.8799 4.96155 9.49089 4.96155 7C4.96155 4.50912 3.94663 2.12008 2.13963 0.357579Z" fill="white"/>
</svg>
