<svg width="15" height="15" viewBox="0 0 15 15" fill="none" xmlns="http://www.w3.org/2000/svg">
<path d="M0 13.5149C0 14.3317 0.668317 15 1.48515 15H3.41584L0 11.5842V13.5149Z" fill="#12991F"/>
<path d="M14.5533 2.82178L12.1771 0.445545C11.583 -0.148515 10.6919 -0.148515 10.0979 0.445545L9.94933 0.59406C9.65231 0.891089 9.65231 1.33663 9.94933 1.63366L13.3652 5.04951C13.6622 5.34654 14.1078 5.34654 14.4048 5.04951L14.5533 4.90099C15.1474 4.30693 15.1474 3.41584 14.5533 2.82178Z" fill="#12991F"/>
<path d="M8.91173 2.67327C8.6147 2.37624 8.16915 2.37624 7.87212 2.67327L1.11469 9.4307C0.743407 9.80199 0.743407 10.2475 1.04044 10.5446L4.45628 13.9604C4.75331 14.2574 5.19885 14.2574 5.49588 13.9604L12.2533 7.20298C12.5503 6.90595 12.5503 6.4604 12.2533 6.16337L8.91173 2.67327Z" fill="#12991F"/>
</svg>
