<svg width="25" height="28" viewBox="0 0 25 28" fill="none" xmlns="http://www.w3.org/2000/svg">
<path d="M4.39401 18.668H6.24852C6.65659 18.6281 7.16771 18.8849 7.30673 19.3376C7.46299 19.8459 7.78226 19.8929 8.24354 19.8741C8.94277 19.8456 9.64463 19.8837 10.3442 19.8634C11.9465 19.8171 13.0115 21.3505 12.3235 22.7357C12.065 23.1564 11.6752 23.3551 11.1664 23.3548C10.6418 23.3548 10.1172 23.3548 9.59254 23.3548C9.49546 23.3503 9.39815 23.3539 9.30176 23.3658C9.09116 23.4014 8.97088 23.5211 8.978 23.7277C8.98512 23.9343 9.12788 24.0166 9.32611 24.0258C9.60753 24.039 9.8882 24.0301 10.1707 24.0312C10.4915 24.0312 10.8126 24.0173 11.1323 24.034C12.1317 24.0857 12.9879 23.483 13.1794 22.4383C13.1859 22.402 13.1954 22.3663 13.2079 22.3314C13.2686 22.2011 13.3997 22.1533 13.5208 22.0974C15.3039 21.2765 17.0841 20.4493 18.8613 19.6158C18.9396 19.5802 19.0209 19.5485 19.1023 19.5175C19.5459 19.3497 19.5459 19.3497 19.5463 18.8806C19.5463 17.6247 19.5463 16.3688 19.5463 15.1128C19.5463 14.9792 19.5088 14.8321 19.6336 14.721C19.7172 14.8186 19.6823 14.9347 19.6827 15.0416C19.6849 16.4097 19.6913 17.7782 19.6771 19.1464C19.6748 19.3704 19.752 19.4488 19.966 19.4908C20.521 19.6012 20.8721 19.9275 21.022 20.445C20.6098 21.0171 20.0304 21.4324 19.5017 21.8926C18.7635 22.5338 18.0242 23.1767 17.274 23.8064C16.3413 24.5901 15.4708 25.4392 14.4785 26.1548C13.6302 26.7664 12.6585 27.0809 11.5962 27.1878C10.4308 27.3064 9.35721 27.0453 8.32073 26.5847C7.11487 26.0465 5.90377 25.519 4.69267 24.9918C4.57613 24.9409 4.46371 24.8878 4.40076 24.7728C4.33368 24.6225 4.34605 24.464 4.34605 24.3076C4.3443 22.5266 4.3443 20.7447 4.34605 18.9618C4.34455 18.8625 4.32656 18.7585 4.39401 18.668Z" fill="#F5CBAE"/>
<path d="M20.668 9.05896C20.0996 9.32005 19.6031 9.69405 19.0519 9.98506C17.8186 10.6383 16.6368 10.6169 15.4661 9.85647C15.2788 9.73537 15.1038 9.57152 14.8523 9.56475C14.7306 9.5562 14.6331 9.49351 14.5349 9.43367C13.564 8.85414 12.5703 8.31059 11.596 7.73641C11.1857 7.49455 10.8436 7.19001 10.7368 6.7323C10.4595 5.5444 11.5237 4.34794 12.7603 4.64964C12.8071 4.66104 12.8566 4.66246 12.9034 4.67386C13.6529 4.97199 14.2899 5.45464 14.9887 5.83541C15.1491 5.92267 15.3001 6.02561 15.4643 6.10611C15.6966 6.22045 15.9072 6.18163 16.005 6.01742C16.1028 5.85322 16.0477 5.64128 15.8454 5.51234C15.2083 5.10628 14.5428 4.73869 13.8889 4.35542C13.5431 4.15275 13.217 3.91909 12.8161 3.80332C12.39 3.68008 12.0127 3.8133 11.6275 3.94366C11.2999 3.85728 11.0051 3.68363 10.778 3.44321C10.754 3.33814 10.8136 3.26084 10.8859 3.19993C11.5372 2.65104 12.085 1.98318 12.824 1.53117C14.348 0.599009 15.9342 0.518153 17.5455 1.32671C18.5572 1.83536 19.548 2.38639 20.5462 2.9221C20.6212 2.96271 20.7055 2.99334 20.7583 3.06458C20.8014 3.1693 20.7426 3.25657 20.7044 3.34704C20.6261 3.53369 20.5856 3.72461 20.6351 3.92585C20.6752 4.90254 20.6384 5.87922 20.6549 6.85554C20.6665 7.54549 20.6096 8.23722 20.6958 8.9261C20.7026 8.97209 20.6928 9.01893 20.668 9.05896Z" fill="#F5CBAE"/>
<path d="M19.6359 14.7214C19.6336 16.1899 19.6269 17.6585 19.634 19.1267C19.634 19.3536 19.5965 19.4876 19.3237 19.5186C19.1667 19.5374 19.0168 19.629 18.8692 19.6967C17.4212 20.3727 15.9741 21.0496 14.5276 21.7273C14.1016 21.9254 13.6572 22.0889 13.2555 22.3328C13.1715 22.4187 13.0793 22.4686 12.9594 22.392C12.8646 22.2826 12.8747 22.1501 12.8747 22.0222C12.8725 20.3553 12.8725 18.688 12.8747 17.0206C12.8747 16.9194 12.8747 16.8175 12.9148 16.7214C13.0201 16.57 13.1363 16.6612 13.2401 16.7178C13.4844 16.851 13.704 17.0195 13.9359 17.1709C14.093 17.2735 14.2563 17.3508 14.4482 17.2478C14.6303 17.1506 14.6374 16.9839 14.6374 16.8143C14.6374 15.9385 14.6352 15.0629 14.6397 14.1874C14.6397 13.983 14.5928 13.8052 14.4362 13.6603C14.4261 13.6478 14.4196 13.633 14.4175 13.6175C14.4154 13.6019 14.4177 13.586 14.4242 13.5716C15.7357 13.5691 17.0503 13.557 18.3629 13.5687C19.0228 13.573 19.5643 14.0863 19.6359 14.7214Z" fill="#FEB955"/>
<path d="M12.9702 16.6637C12.9702 18.4945 12.9692 20.3253 12.9672 22.1562C12.9672 22.2363 12.9425 22.3254 13.0245 22.3884C12.893 22.6121 12.5543 22.7621 12.2635 22.7247C12.4415 22.2762 12.5134 21.8203 12.3856 21.3458C12.1735 20.5597 11.3626 19.9492 10.5098 19.946C9.57771 19.9429 8.64552 19.9429 7.71321 19.946C7.54721 19.946 7.43704 19.9168 7.3962 19.7419C7.2583 19.1506 6.86259 18.8015 6.24805 18.6662C6.24805 17.4015 6.24805 16.1365 6.24805 14.8713C6.24805 14.1536 6.79777 13.5762 7.54309 13.5669C8.86361 13.5509 10.1849 13.5669 11.5058 13.5691C11.206 13.8832 11.2277 14.2676 11.233 14.654C11.2427 15.3176 11.2356 15.9812 11.236 16.6451C11.236 16.7278 11.2326 16.8111 11.2397 16.8945C11.2716 17.2603 11.5365 17.3974 11.8655 17.2111C12.1237 17.0651 12.3661 16.8952 12.6187 16.7402C12.7158 16.6808 12.8061 16.6063 12.9294 16.5978C12.9706 16.606 12.9837 16.6277 12.9702 16.6637Z" fill="#FECB66"/>
<path d="M4.39356 18.668C4.45876 18.8649 4.45876 19.0676 4.45876 19.2696C4.45876 21.005 4.45876 22.7404 4.45876 24.4761C4.45876 24.5947 4.43515 24.7168 4.49623 24.8301C4.62963 25.031 4.59328 25.2504 4.5678 25.4666C4.55993 25.5332 4.54195 25.6177 4.4314 25.607C4.32536 25.4901 4.34334 25.3459 4.34747 25.2105C4.35421 24.9968 4.25079 24.9167 4.03232 24.9177C3.40166 24.9202 2.77101 24.9177 2.14072 24.9177C1.56815 24.9177 0.995945 24.9177 0.423369 24.9177C0.280599 24.9177 0.128837 24.9384 0.00892525 24.8315C0.00617728 22.6528 0.00417876 20.4739 0.00292969 18.2947C0.00292969 17.9894 0.169307 17.8316 0.487821 17.8284C1.39128 17.8238 2.29511 17.8149 3.19819 17.8348C3.78426 17.8477 4.16385 18.1711 4.39356 18.668Z" fill="#425B72"/>
<path d="M10.6364 11.2196C9.65763 10.6371 8.67898 10.0546 7.70045 9.47209C6.39342 8.68989 5.08738 7.90698 3.78235 7.12335C3.72577 7.08952 3.67518 7.04642 3.62159 7.00759C3.61372 6.89468 3.69654 6.82202 3.75574 6.74009C4.42462 5.8318 4.25825 4.66455 3.36903 3.96178C3.17455 3.80755 2.91599 3.75056 2.74512 3.56641L3.20827 2.83728C4.51681 3.64869 5.85457 4.41522 7.17546 5.20775C7.27289 5.26616 7.38418 5.30891 7.44639 5.41042C7.48049 5.5301 7.4003 5.62414 7.36507 5.72601C6.97761 6.8612 7.58991 7.80831 8.71707 7.97003C9.23307 8.0434 9.69435 7.89166 10.0874 7.56076C10.2115 7.4564 10.2965 7.31748 10.4296 7.22238C10.5378 7.18676 10.6147 7.25336 10.6949 7.30074C11.9772 8.0605 13.2613 8.81741 14.5361 9.58821C14.6141 9.63523 14.7531 9.64983 14.7235 9.79302C14.6193 10.0142 14.4668 10.2069 14.3214 10.4043C14.2625 10.3987 14.2082 10.3718 14.1697 10.3291C13.3513 9.50985 11.3866 9.72642 10.8039 11.0386C10.7683 11.1149 10.7312 11.1911 10.6364 11.2196Z" fill="#9CCB6B"/>
<path d="M20.6678 9.05894C20.6034 8.89473 20.5445 8.73017 20.5449 8.55101C20.5477 6.98376 20.5497 5.41532 20.5509 3.84569C20.6394 3.7538 20.7596 3.75629 20.8747 3.75593C22.181 3.74988 23.4872 3.75593 24.7939 3.75202C24.8618 3.74715 24.9298 3.75944 24.991 3.78764C24.9938 5.61609 24.9958 7.44455 24.997 9.27301C24.997 9.59109 24.8329 9.75886 24.4979 9.76242C23.6233 9.77133 22.7487 9.77346 21.8748 9.76242C21.336 9.75387 20.935 9.50276 20.6678 9.05894Z" fill="#425B72"/>
<path d="M14.7221 9.79231C13.8255 9.25256 12.9284 8.71305 12.0309 8.17377C11.508 7.85985 10.9846 7.54675 10.4608 7.23449C10.4502 7.22434 10.4422 7.21204 10.4374 7.19853C10.4326 7.18501 10.4311 7.17063 10.433 7.15648C10.5576 6.88655 10.6206 6.59459 10.6178 6.29984C10.605 5.61951 10.2431 5.16002 9.61989 4.89857C8.97537 4.62787 8.35145 4.69056 7.80735 5.15753C7.7073 5.24373 7.62561 5.35023 7.50158 5.41078C7.48772 5.41642 7.47246 5.41817 7.45759 5.41584C7.44272 5.4135 7.42886 5.40718 7.41764 5.3976C6.9305 5.18887 6.50294 4.88148 6.04916 4.61825C5.15469 4.09999 4.27147 3.56356 3.383 3.03711C3.29794 2.98689 3.20951 2.94913 3.20801 2.83728C3.3474 2.61692 3.48668 2.39655 3.62582 2.17619C3.71426 2.15197 3.77571 2.2054 3.83342 2.25063C4.84517 3.02535 6.50782 2.63176 7.05004 1.55428C7.09126 1.47235 7.13061 1.38402 7.2374 1.35516C8.16172 1.89515 9.08728 2.43502 10.0141 2.97477C10.0797 3.01324 10.1501 3.04352 10.2187 3.07771C10.451 3.14646 10.656 3.25581 10.8059 3.44424L11.6175 3.90729C12.0781 4.06579 12.4535 4.36215 12.8624 4.604C12.8836 4.61583 12.8995 4.63471 12.907 4.657C12.9144 4.67929 12.913 4.70343 12.9028 4.72475C12.7593 4.70837 12.6165 4.68415 12.4727 4.67702C11.6655 4.63749 10.9363 5.26154 10.795 6.04017C10.6294 6.95096 11.1697 7.42755 11.8948 7.83254C12.8534 8.36683 13.8025 8.91929 14.7543 9.46569C14.7915 9.49465 14.8243 9.52833 14.8518 9.56578C14.8088 9.64129 14.7656 9.7168 14.7221 9.79231Z" fill="#83B649"/>
<path d="M4.44407 25.6191C4.54337 25.3616 4.45794 25.0926 4.49653 24.8315C5.95196 25.467 7.38565 26.1537 8.86805 26.7261C10.8668 27.4977 12.7779 27.2483 14.5294 26.0348C15.078 25.6544 15.5505 25.1863 16.0552 24.756C16.9785 23.9692 17.9161 23.1963 18.8218 22.3909C19.4588 21.8239 20.1352 21.2956 20.7453 20.6993C20.8322 20.6142 20.8101 20.4069 21.0214 20.4454C21.1758 21.0317 20.9023 21.4602 20.4646 21.8345C19.6702 22.5113 18.8874 23.2037 18.0855 23.8737C16.8684 24.8903 15.7382 26.0016 14.4488 26.9391C13.2313 27.8243 11.8299 28.1249 10.3047 27.9536C9.38704 27.8503 8.58101 27.4734 7.76262 27.1144C6.66118 26.6307 5.56 26.1478 4.45906 25.6658C4.43995 25.6597 4.43171 25.6508 4.43395 25.639C4.4362 25.6273 4.4392 25.6191 4.44407 25.6191Z" fill="#F2BC97"/>
<path d="M10.8059 3.44427C10.6073 3.32637 10.3859 3.24124 10.2188 3.07775C10.9607 2.41416 11.6562 1.70534 12.4135 1.05564C13.6834 -0.0343095 15.7144 -0.336361 17.2474 0.414494C18.4548 1.00399 19.6273 1.65832 20.8137 2.28665C21.0074 2.38923 21.1936 2.50535 21.3836 2.61541C21.2124 2.80858 20.9995 2.96455 20.7593 3.07276C20.2823 2.90998 19.872 2.6261 19.4283 2.40312C18.6234 1.99884 17.874 1.49198 17.0282 1.17497C15.5372 0.614319 14.1181 0.783154 12.786 1.64229C12.5177 1.8154 12.2898 2.02306 12.0598 2.23357C11.7038 2.55949 11.3414 2.87864 10.9851 3.20384C10.9105 3.27081 10.8116 3.3278 10.8059 3.44427Z" fill="#F2BC97"/>
<path d="M4.44421 25.6191C4.44756 25.6349 4.45207 25.6505 4.4577 25.6657C4.28645 26.3528 3.8143 26.725 3.07647 26.7322C2.2326 26.74 1.39022 26.7364 0.544097 26.7322C0.149889 26.7311 0 26.5843 0 26.2153C0 25.7544 0.00599556 25.2935 0.00936807 24.8326C1.3846 24.8326 2.76021 24.8376 4.13544 24.8269C4.37976 24.8248 4.46445 24.8946 4.44121 25.1229C4.42435 25.2864 4.44196 25.4534 4.44421 25.6191Z" fill="#374F68"/>
<path d="M12.9619 16.6184C12.6074 16.8424 12.2548 17.0693 11.8977 17.2898C11.5406 17.5103 11.1643 17.3397 11.1602 16.9422C11.1508 15.9833 11.158 15.0244 11.1565 14.0652C11.1565 13.8233 11.297 13.6755 11.5076 13.5708H14.4233C14.4255 13.5854 14.427 13.6 14.4285 13.6143C14.2715 13.7468 14.0789 13.7012 13.8998 13.7026C13.0601 13.709 13.0601 13.7065 13.0601 14.5151C13.0601 15.085 13.0623 15.6577 13.0601 16.2291C13.0571 16.363 13.0822 16.508 12.9619 16.6184Z" fill="#F7834B"/>
<path d="M10.6367 11.2196C10.9365 10.4327 11.5226 9.9558 12.3829 9.81831C13.1219 9.70041 13.8114 9.80157 14.3206 10.4039C13.9197 11.0034 13.5228 11.6057 13.1148 12.2009C12.9649 12.421 12.7142 12.4762 12.4777 12.337C11.8598 11.9711 11.2501 11.5925 10.6367 11.2196Z" fill="#6F993D"/>
<path d="M2.74516 3.565C4.16274 4.00098 4.70871 5.6986 3.79026 6.81776C3.73705 6.88294 3.67785 6.94385 3.62164 7.0069C3.00597 6.64287 2.38693 6.28347 1.77613 5.91232C1.54005 5.76984 1.49172 5.52692 1.64423 5.28399C2.00583 4.70767 2.37756 4.13776 2.74516 3.565Z" fill="#6F993D"/>
<path d="M7.23755 1.35516C6.82461 2.27913 6.07029 2.72259 5.03606 2.72544C4.77412 2.72958 4.51403 2.68302 4.27162 2.5886C4.02921 2.49417 3.80954 2.35386 3.62598 2.17619C3.9962 1.58313 4.36118 0.987214 4.73853 0.398426C4.88842 0.167613 5.12637 0.105635 5.36544 0.243482C5.99535 0.605018 6.61402 0.983652 7.23755 1.35516Z" fill="#678B38"/>
<path d="M20.7595 3.07273C20.9334 2.88154 21.1458 2.72542 21.3842 2.6136C21.5714 2.56728 21.764 2.54334 21.9575 2.54236C22.7819 2.54236 23.6063 2.54236 24.4307 2.54236C24.8582 2.54236 25.0003 2.68484 24.9999 3.0941C24.9999 3.32456 24.9939 3.55466 24.9909 3.78512C24.8785 3.85921 24.7488 3.83926 24.624 3.83926C23.2663 3.84116 21.9086 3.84235 20.5508 3.84282C20.4822 3.5543 20.6404 3.31815 20.7595 3.07273Z" fill="#374F68"/>
<path d="M12.2643 22.7246C12.5385 22.6604 12.7969 22.5462 13.0253 22.3884L13.2554 22.3311C13.2509 23.2326 12.3613 24.0981 11.4167 24.1088C10.7275 24.1167 10.0381 24.1131 9.34856 24.1088C9.01131 24.1088 8.87079 23.9745 8.87716 23.6814C8.88241 23.4342 9.06452 23.2767 9.35456 23.2753C9.91664 23.2728 10.4817 23.2564 11.0438 23.28C11.5673 23.3035 11.9671 23.1271 12.2643 22.7246Z" fill="#E6A173"/>
<path d="M12.9035 4.72479C12.5737 4.45729 12.1802 4.28168 11.8243 4.05194C11.7534 4.00635 11.665 3.98391 11.6182 3.90732C12.1581 3.59387 12.7142 3.60064 13.2433 3.89878C14.1344 4.40101 15.0045 4.93637 15.8896 5.44964C16.1085 5.5768 16.1591 5.75383 16.1171 5.96862C16.0822 6.14671 15.9357 6.22472 15.7656 6.25571C15.6135 6.28313 15.4834 6.21011 15.3601 6.13745C14.6856 5.74065 14.0111 5.34065 13.3366 4.94527C13.1957 4.86406 13.0474 4.79781 12.9035 4.72479Z" fill="#E6A173"/>
<path d="M12.962 16.6184C12.962 15.7151 12.9721 14.8121 12.962 13.9088C12.9597 13.6869 13.0144 13.5964 13.2659 13.6089C13.6526 13.6278 14.0412 13.6135 14.4275 13.6132C14.6568 13.6712 14.7194 13.8365 14.7198 14.0353C14.7198 15.0038 14.7172 15.9723 14.7236 16.9404C14.7236 17.1317 14.6437 17.2574 14.4744 17.3408C14.305 17.4241 14.1499 17.3999 13.9853 17.298C13.6458 17.0879 13.3431 16.8239 12.9695 16.6636C12.9679 16.6484 12.9654 16.6333 12.962 16.6184Z" fill="#F56824"/>
<path d="M15.4446 19.1118C15.6582 19.1118 15.8722 19.1082 16.0858 19.1118C16.198 19.1112 16.3061 19.1521 16.3872 19.2259C16.4683 19.2997 16.5161 19.4005 16.5205 19.5071C16.5321 19.7045 16.3331 19.9346 16.1139 19.9399C15.6477 19.9513 15.1808 19.9541 14.7154 19.9381C14.4599 19.9292 14.2969 19.7244 14.3103 19.489C14.325 19.2361 14.4561 19.1221 14.7454 19.111C14.7548 19.111 14.7645 19.111 14.7743 19.111C14.998 19.1114 15.2213 19.1118 15.4446 19.1118Z" fill="#FEA82C"/>
<path d="M1.80764 23.6732C1.80576 23.406 1.94928 23.2746 2.24269 23.2746C2.35936 23.2752 2.47107 23.3195 2.55367 23.3978C2.63627 23.4762 2.68313 23.5822 2.68411 23.6931C2.68411 23.9125 2.46228 24.0981 2.21234 24.0917C1.98226 24.0856 1.80951 23.9068 1.80764 23.6732Z" fill="#1F2F42"/>
<path d="M7.41982 5.39764H7.47828C7.83876 5.54012 8.14641 5.77022 8.47692 5.96221C9.08247 6.31437 9.68402 6.67293 10.2816 7.03791C10.346 7.07745 10.4214 7.10559 10.4596 7.17612L10.4629 7.23453C10.0968 7.81157 9.35264 8.15885 8.71037 8.05378C7.92045 7.92412 7.36474 7.45893 7.21148 6.76756C7.10543 6.29204 7.20024 5.83398 7.41982 5.39764Z" fill="#6F993D"/>
<path d="M22.7836 7.23022C23.0426 7.23022 23.1902 7.37662 23.1958 7.63344C23.1973 7.7446 23.1526 7.85183 23.0715 7.93186C22.9903 8.01189 22.8792 8.05825 22.7623 8.06087C22.6442 8.05918 22.5315 8.01341 22.4486 7.93343C22.3658 7.85345 22.3193 7.7457 22.3193 7.63344C22.3231 7.40618 22.5277 7.23022 22.7836 7.23022Z" fill="#1F2F42"/>
<path d="M10.4579 7.17608C10.0543 7.0361 9.7264 6.77144 9.36329 6.56556C8.76636 6.22718 8.18479 5.86458 7.59835 5.50981C7.5537 5.47659 7.51288 5.43898 7.47656 5.39761C8.29233 4.29091 9.8894 4.53704 10.4785 5.5237C10.7966 6.05656 10.8221 6.62932 10.4579 7.17608Z" fill="#678B38"/>
</svg>
