<svg width="92" height="16" viewBox="0 0 92 16" fill="none" xmlns="http://www.w3.org/2000/svg">
<path d="M17.1856 6.21111C16.8568 6.53908 16.5377 6.86704 16.2049 7.18173C15.3109 8.02913 14.407 8.86894 13.5071 9.71065C13.3653 9.84335 13.2137 9.97037 13.0837 10.1163C13.0325 10.1751 12.999 10.2794 13.0128 10.3533C13.3397 12.2244 13.6725 14.0936 14.0053 15.9647C14.0073 15.9723 14.0053 15.9818 14.0033 15.995C13.9994 16.0121 13.9167 15.9837 13.8163 15.9325C13.4677 15.7581 13.1251 15.5856 12.7824 15.4112C11.4256 14.7249 10.0668 14.0386 8.71397 13.3467C8.59581 13.286 8.51507 13.3145 8.41267 13.3656C6.71716 14.2263 5.02165 15.0851 3.32417 15.9439C3.29463 15.959 3.26509 15.9723 3.23358 15.9856C3.18238 16.0083 3.15678 15.9382 3.17648 15.8301C3.25328 15.3884 3.32614 14.9581 3.40294 14.5296C3.65303 13.1268 3.90903 11.7258 4.15322 10.323C4.16503 10.2566 4.1158 10.158 4.06263 10.1069C3.18238 9.27274 2.29032 8.45188 1.41795 7.61017C0.941392 7.1495 0.488468 6.66609 0.0434207 6.20542C-0.0333795 6.1258 -0.00581011 6.04808 0.106436 6.03102C0.340775 5.99689 0.61253 5.95708 0.886254 5.91917C2.07764 5.75234 3.271 5.58552 4.46239 5.4168C4.86214 5.35992 5.25993 5.29357 5.66165 5.25376C5.81328 5.2386 5.88614 5.17793 5.94916 5.05281C6.78018 3.42058 7.6171 1.79024 8.45206 0.159901C8.46978 0.123882 8.48947 0.0897586 8.51114 0.0518437C8.54461 -0.00692428 8.59581 -0.0182987 8.62732 0.0309906C8.64701 0.0613225 8.66473 0.0897587 8.68049 0.120091C9.52529 1.76749 10.3721 3.41489 11.2129 5.06608C11.274 5.18552 11.3429 5.2367 11.4847 5.25566C13.2334 5.49642 14.9801 5.74476 16.7288 5.99121C16.8607 6.01016 16.9926 6.02722 17.1246 6.04429C17.2368 6.05566 17.2644 6.13149 17.1856 6.21111Z" fill="#FFA305"/>
<path d="M35.6475 6.21111C35.3187 6.53908 34.9997 6.86704 34.6669 7.18173C33.7728 8.02913 32.8689 8.86894 31.969 9.71065C31.8272 9.84335 31.6756 9.97037 31.5456 10.1163C31.4944 10.1751 31.4609 10.2794 31.4747 10.3533C31.8016 12.2244 32.1344 14.0936 32.4672 15.9647C32.4692 15.9723 32.4672 15.9818 32.4652 15.995C32.4613 16.0121 32.3786 15.9837 32.2782 15.9325C31.9296 15.7581 31.587 15.5856 31.2443 15.4112C29.8875 14.7249 28.5287 14.0386 27.1759 13.3467C27.0577 13.286 26.977 13.3145 26.8746 13.3656C25.1791 14.2263 23.4836 15.0851 21.7861 15.9439C21.7565 15.959 21.727 15.9723 21.6955 15.9856C21.6443 16.0083 21.6187 15.9382 21.6384 15.8301C21.7152 15.3884 21.7881 14.9581 21.8649 14.5296C22.1149 13.1268 22.3709 11.7258 22.6151 10.323C22.6269 10.2566 22.5777 10.158 22.5245 10.1069C21.6443 9.27274 20.7522 8.45188 19.8799 7.61017C19.4033 7.1495 18.9504 6.66609 18.5053 6.20542C18.4285 6.1258 18.4561 6.04808 18.5684 6.03102C18.8027 5.99689 19.0744 5.95708 19.3482 5.91917C20.5396 5.75234 21.7329 5.58552 22.9243 5.4168C23.3241 5.35992 23.7218 5.29357 24.1236 5.25376C24.2752 5.2386 24.3481 5.17793 24.4111 5.05281C25.2421 3.42058 26.079 1.79024 26.914 0.159901C26.9317 0.123882 26.9514 0.0897586 26.973 0.0518437C27.0065 -0.00692428 27.0577 -0.0182987 27.0892 0.0309906C27.1089 0.0613225 27.1266 0.0897587 27.1424 0.120091C27.9872 1.76749 28.834 3.41489 29.6748 5.06608C29.7359 5.18552 29.8048 5.2367 29.9466 5.25566C31.6953 5.49642 33.442 5.74476 35.1907 5.99121C35.3226 6.01016 35.4545 6.02722 35.5865 6.04429C35.6987 6.05566 35.7263 6.13149 35.6475 6.21111Z" fill="#FFA305"/>
<path d="M54.1085 6.21111C53.7796 6.53908 53.4606 6.86704 53.1278 7.18173C52.2338 8.02913 51.3299 8.86894 50.4299 9.71065C50.2882 9.84335 50.1365 9.97037 50.0066 10.1163C49.9554 10.1751 49.9219 10.2794 49.9357 10.3533C50.2626 12.2244 50.5954 14.0936 50.9282 15.9647C50.9301 15.9723 50.9282 15.9818 50.9262 15.995C50.9222 16.0121 50.8395 15.9837 50.7391 15.9325C50.3906 15.7581 50.0479 15.5856 49.7053 15.4112C48.3485 14.7249 46.9897 14.0386 45.6368 13.3467C45.5187 13.286 45.4379 13.3145 45.3355 13.3656C43.64 14.2263 41.9445 15.0851 40.247 15.9439C40.2175 15.959 40.1879 15.9723 40.1564 15.9856C40.1052 16.0083 40.0796 15.9382 40.0993 15.8301C40.1761 15.3884 40.249 14.9581 40.3258 14.5296C40.5759 13.1268 40.8319 11.7258 41.0761 10.323C41.0879 10.2566 41.0387 10.158 40.9855 10.1069C40.1052 9.27274 39.2132 8.45188 38.3408 7.61017C37.8642 7.1495 37.4113 6.66609 36.9663 6.20542C36.8895 6.1258 36.917 6.04808 37.0293 6.03102C37.2636 5.99689 37.5354 5.95708 37.8091 5.91917C39.0005 5.75234 40.1939 5.58552 41.3852 5.4168C41.785 5.35992 42.1828 5.29357 42.5845 5.25376C42.7361 5.2386 42.809 5.17793 42.872 5.05281C43.703 3.42058 44.54 1.79024 45.3749 0.159901C45.3926 0.123882 45.4123 0.0897586 45.434 0.0518437C45.4675 -0.00692428 45.5187 -0.0182987 45.5502 0.0309906C45.5699 0.0613225 45.5876 0.0897587 45.6033 0.120091C46.4481 1.76749 47.2949 3.41489 48.1358 5.06608C48.1968 5.18552 48.2657 5.2367 48.4075 5.25566C50.1562 5.49642 51.9029 5.74476 53.6516 5.99121C53.7835 6.01016 53.9155 6.02722 54.0474 6.04429C54.1597 6.05566 54.1872 6.13149 54.1085 6.21111Z" fill="#FFA305"/>
<path d="M72.5704 6.21111C72.2415 6.53908 71.9225 6.86704 71.5897 7.18173C70.6957 8.02913 69.7918 8.86894 68.8919 9.71065C68.7501 9.84335 68.5984 9.97037 68.4685 10.1163C68.4173 10.1751 68.3838 10.2794 68.3976 10.3533C68.7245 12.2244 69.0573 14.0936 69.3901 15.9647C69.392 15.9723 69.3901 15.9818 69.3881 15.995C69.3842 16.0121 69.3015 15.9837 69.201 15.9325C68.8525 15.7581 68.5098 15.5856 68.1672 15.4112C66.8104 14.7249 65.4516 14.0386 64.0987 13.3467C63.9806 13.286 63.8998 13.3145 63.7974 13.3656C62.1019 14.2263 60.4064 15.0851 58.7089 15.9439C58.6794 15.959 58.6499 15.9723 58.6183 15.9856C58.5671 16.0083 58.5415 15.9382 58.5612 15.8301C58.638 15.3884 58.7109 14.9581 58.7877 14.5296C59.0378 13.1268 59.2938 11.7258 59.538 10.323C59.5498 10.2566 59.5006 10.158 59.4474 10.1069C58.5671 9.27274 57.6751 8.45188 56.8027 7.61017C56.3262 7.1495 55.8732 6.66609 55.4282 6.20542C55.3514 6.1258 55.379 6.04808 55.4912 6.03102C55.7255 5.99689 55.9973 5.95708 56.271 5.91917C57.4624 5.75234 58.6558 5.58552 59.8472 5.4168C60.2469 5.35992 60.6447 5.29357 61.0464 5.25376C61.198 5.2386 61.2709 5.17793 61.3339 5.05281C62.1649 3.42058 63.0019 1.79024 63.8368 0.159901C63.8545 0.123882 63.8742 0.0897586 63.8959 0.0518437C63.9294 -0.00692428 63.9806 -0.0182987 64.0121 0.0309906C64.0318 0.0613225 64.0495 0.0897587 64.0653 0.120091C64.9101 1.76749 65.7568 3.41489 66.5977 5.06608C66.6587 5.18552 66.7277 5.2367 66.8694 5.25566C68.6181 5.49642 70.3648 5.74476 72.1135 5.99121C72.2455 6.01016 72.3774 6.02722 72.5093 6.04429C72.6216 6.05566 72.6492 6.13149 72.5704 6.21111Z" fill="#D9D9D9"/>
<path d="M91.0323 6.21111C90.7034 6.53908 90.3844 6.86704 90.0516 7.18173C89.1576 8.02913 88.2537 8.86894 87.3538 9.71065C87.212 9.84335 87.0604 9.97037 86.9304 10.1163C86.8792 10.1751 86.8457 10.2794 86.8595 10.3533C87.1864 12.2244 87.5192 14.0936 87.852 15.9647C87.854 15.9723 87.852 15.9818 87.85 15.995C87.8461 16.0121 87.7634 15.9837 87.6629 15.9325C87.3144 15.7581 86.9717 15.5856 86.6291 15.4112C85.2723 14.7249 83.9135 14.0386 82.5606 13.3467C82.4425 13.286 82.3618 13.3145 82.2594 13.3656C80.5638 14.2263 78.8683 15.0851 77.1708 15.9439C77.1413 15.959 77.1118 15.9723 77.0803 15.9856C77.0291 16.0083 77.0035 15.9382 77.0232 15.8301C77.1 15.3884 77.1728 14.9581 77.2496 14.5296C77.4997 13.1268 77.7557 11.7258 77.9999 10.323C78.0117 10.2566 77.9625 10.158 77.9093 10.1069C77.0291 9.27274 76.137 8.45188 75.2646 7.61017C74.7881 7.1495 74.3351 6.66609 73.8901 6.20542C73.8133 6.1258 73.8409 6.04808 73.9531 6.03102C74.1875 5.99689 74.4592 5.95708 74.7329 5.91917C75.9243 5.75234 77.1177 5.58552 78.3091 5.4168C78.7088 5.35992 79.1066 5.29357 79.5083 5.25376C79.66 5.2386 79.7328 5.17793 79.7958 5.05281C80.6269 3.42058 81.4638 1.79024 82.2987 0.159901C82.3165 0.123882 82.3362 0.0897586 82.3578 0.0518437C82.3913 -0.00692428 82.4425 -0.0182987 82.474 0.0309906C82.4937 0.0613225 82.5114 0.0897587 82.5272 0.120091C83.372 1.76749 84.2187 3.41489 85.0596 5.06608C85.1207 5.18552 85.1896 5.2367 85.3314 5.25566C87.08 5.49642 88.8268 5.74476 90.5754 5.99121C90.7074 6.01016 90.8393 6.02722 90.9713 6.04429C91.0835 6.05566 91.1111 6.13149 91.0323 6.21111Z" fill="#D9D9D9"/>
</svg>
