<svg width="20" height="20" viewBox="0 0 20 20" fill="none" xmlns="http://www.w3.org/2000/svg">
<g clip-path="url(#clip0_199_543)">
<g clip-path="url(#clip1_199_543)">
<path d="M14.5835 0.76416C13.6451 0.778756 12.7272 1.0407 11.9224 1.52355C11.1177 2.0064 10.4546 2.69305 10.0001 3.51416C9.54566 2.69305 8.88257 2.0064 8.07782 1.52355C7.27308 1.0407 6.35517 0.778756 5.41679 0.76416C3.92091 0.829152 2.51155 1.48354 1.49661 2.58435C0.481678 3.68517 -0.0563308 5.14293 0.000128002 6.63916C0.000128002 12.285 9.13013 18.8058 9.51846 19.0825L10.0001 19.4233L10.4818 19.0825C10.8701 18.8075 20.0001 12.285 20.0001 6.63916C20.0566 5.14293 19.5186 3.68517 18.5036 2.58435C17.4887 1.48354 16.0793 0.829152 14.5835 0.76416Z" fill="#F13005"/>
</g>
</g>
<defs>
<clipPath id="clip0_199_543">
<rect width="20" height="20" fill="white"/>
</clipPath>
<clipPath id="clip1_199_543">
<rect width="20" height="20" fill="white"/>
</clipPath>
</defs>
</svg>
