<svg width="5" height="5" viewBox="0 0 5 5" fill="none" xmlns="http://www.w3.org/2000/svg">
<path d="M4.99964 2.43499C4.99964 1.9534 4.85303 1.48261 4.57834 1.08218C4.30366 0.681748 3.91323 0.369649 3.45645 0.18535C2.99967 0.00105161 2.49704 -0.0471647 2.01212 0.04679C1.5272 0.140745 1.0818 0.372654 0.732192 0.713193C0.382586 1.05373 0.144494 1.48761 0.0480381 1.95995C-0.0484178 2.43229 0.00107253 2.92189 0.190278 3.36682C0.379483 3.81176 0.699909 4.19205 1.111 4.45961C1.52209 4.72717 2.00541 4.86999 2.49983 4.86999C3.16282 4.86999 3.79866 4.61344 4.26747 4.15679C4.73627 3.70014 4.99964 3.0808 4.99964 2.43499Z" fill="white"/>
</svg>
