<svg width="39" height="36" viewBox="0 0 39 36" fill="none" xmlns="http://www.w3.org/2000/svg">
<g clip-path="url(#clip0_80_272)">
<path d="M38.9988 18.2586C38.5944 18.8491 38.2246 19.0422 37.7532 18.8686C37.5591 18.7971 37.3921 18.6513 37.2199 18.5438C37.1044 19.4449 37.0223 20.3559 36.8733 21.2546C35.69 28.281 30.1233 34.1407 23.2641 35.6026C16.1195 37.1248 8.98475 34.205 4.89709 28.0873C4.45511 27.4254 4.54235 26.6826 5.11144 26.2628C5.69845 25.8306 6.42527 25.9924 6.89326 26.6614C6.93023 26.7139 6.96605 26.7671 7.00303 26.8202C9.09106 29.8422 11.8728 31.8714 15.3482 32.9078C24.0146 35.4704 33.0982 29.6013 34.5125 20.5213C34.6142 19.8718 34.6708 19.2128 34.75 18.5468C34.4929 18.6218 34.2826 18.7174 34.0653 18.7393C33.8738 18.7562 33.6819 18.7101 33.5178 18.6077C33.3537 18.5053 33.2259 18.3519 33.1531 18.1701C32.9959 17.788 33.0375 17.4261 33.3264 17.1267C33.966 16.4607 34.609 15.797 35.2659 15.1487C35.6785 14.7413 36.195 14.7141 36.5988 15.1056C37.3436 15.8289 38.0611 16.5817 38.7851 17.3269C38.8651 17.4234 38.9366 17.527 38.9988 17.6363V18.2586Z" fill="#F13005"/>
<path d="M28.6458 17.9669C28.6458 20.3008 28.6458 22.6345 28.6458 24.968C28.6458 26.388 27.7792 27.2825 26.3972 27.2831C21.8051 27.2855 17.2129 27.2855 12.6204 27.2831C11.2558 27.2831 10.3758 26.3904 10.3753 25.0046C10.373 20.2986 10.373 15.5925 10.3753 10.8862C10.3753 9.51635 11.2523 8.61237 12.5846 8.61178C17.2021 8.60902 21.8197 8.60902 26.4376 8.61178C27.7664 8.61178 28.6441 9.51812 28.6458 10.8886C28.6485 13.248 28.6485 15.6075 28.6458 17.9669ZM21.9438 17.9274C21.94 17.4355 21.7937 16.9557 21.5234 16.5487C21.253 16.1417 20.8707 15.8257 20.4248 15.6406C19.9789 15.4554 19.4892 15.4095 19.0177 15.5085C18.5462 15.6075 18.114 15.847 17.7756 16.1969C17.4373 16.5467 17.2079 16.9912 17.1165 17.4742C17.0251 17.9571 17.0757 18.4569 17.2621 18.9105C17.4484 19.3641 17.762 19.751 18.1634 20.0226C18.5648 20.2941 19.0358 20.4381 19.5172 20.4362C19.8378 20.4345 20.155 20.3683 20.4505 20.2412C20.7461 20.1142 21.0143 19.9289 21.2397 19.6959C21.4652 19.4629 21.6435 19.1868 21.7645 18.8834C21.8855 18.5799 21.9468 18.2551 21.9449 17.9274H21.9438Z" fill="#F13005"/>
<path d="M4.24654 17.396C4.40716 17.2886 4.48515 17.2301 4.56893 17.1811C4.76101 17.0638 4.98735 17.0193 5.20833 17.0553C5.4293 17.0914 5.63082 17.2057 5.7776 17.3783C6.07631 17.7326 6.10693 18.2764 5.78107 18.6254C5.08121 19.3756 4.36344 20.1086 3.62776 20.8242C3.27128 21.1708 2.74783 21.1537 2.38384 20.7965C1.63506 20.0602 0.902459 19.3079 0.173325 18.5468C-0.0704899 18.2935 -0.0479573 17.4988 0.183725 17.2437C0.34457 17.0657 0.564359 16.9551 0.800484 16.9332C1.03661 16.9114 1.27225 16.98 1.46173 17.1256C1.57035 17.2101 1.66741 17.3098 1.81474 17.4427C1.87714 16.8351 1.92741 16.2771 1.99212 15.7215C2.83102 8.52211 8.11811 2.38493 15.0345 0.584635C22.4171 -1.3367 29.9043 1.56656 34.1977 8.01432C34.598 8.61481 34.4738 9.37237 33.9088 9.76738C33.3264 10.176 32.5897 10.0201 32.1795 9.39894C29.9058 5.95659 26.7898 3.76364 22.8314 2.8201C14.429 0.826722 5.9076 6.64506 4.50653 15.32C4.40196 15.9807 4.33956 16.6509 4.24654 17.396Z" fill="#F13005"/>
</g>
<defs>
<clipPath id="clip0_80_272">
<rect width="39" height="36" fill="white"/>
</clipPath>
</defs>
</svg>
