<svg width="34" height="21" viewBox="0 0 34 21" fill="none" xmlns="http://www.w3.org/2000/svg">
<path d="M34 9.52335C33.9126 8.75762 33.8431 7.98603 33.7272 7.22345C33.4855 5.63163 32.9623 4.16052 31.8914 2.94436C31.7388 2.76419 31.5681 2.60127 31.3821 2.45835C30.9127 2.11287 30.5695 2.1962 30.2933 2.71329C30.1651 2.93938 30.0574 3.17716 29.9716 3.42362C29.5782 4.65284 28.7407 5.27804 27.5137 5.44785C26.5647 5.57983 25.6424 5.56316 24.7432 5.19516C24.6613 5.1613 24.5822 5.12047 24.5068 5.0731C24.4416 5.03256 24.3835 4.97986 24.2882 4.90599L24.6751 4.58213C24.9583 4.3461 25.2695 4.138 25.5178 3.86819C25.9816 3.36461 25.9986 2.92229 25.6052 2.36601C25.131 1.69036 24.6436 1.02778 24.1571 0.365199C23.8651 -0.0307293 23.5788 -0.0928887 23.1443 0.121516C21.5007 0.934092 19.8579 1.74787 18.2158 2.56285C18.0344 2.65293 17.9055 2.67951 17.7127 2.54753C16.8822 1.97684 15.8196 2.53042 15.7217 3.5547C15.7099 3.67991 15.6058 3.83396 15.5 3.90468C15.1748 4.12224 14.8614 4.22809 14.4348 4.03981C13.8429 3.77811 13.0819 4.21998 12.9263 4.88932C12.8481 5.22669 12.6597 5.34831 12.4088 5.47488C12.1316 5.61001 11.9122 5.71316 11.5651 5.52623C10.8308 5.1312 9.93909 5.66451 9.81932 6.51717C9.7861 6.7541 9.67638 6.8586 9.49192 6.97031C7.5472 8.14548 5.41671 8.81707 3.27267 9.46749C2.65546 9.65487 2.05487 9.94585 1.49231 10.2729C0.206757 11.0197 0.23954 12.4286 0.871605 13.4709C1.48356 14.4808 2.42423 15.0772 3.45057 15.537C4.82573 16.1532 6.26908 16.4735 7.77188 16.4356C12.6606 16.3131 17.5491 16.184 22.4375 16.0483C25.3912 15.9699 28.3443 15.8906 31.2969 15.8105C31.6282 15.8014 31.9604 15.7857 32.2896 15.7474C33.2941 15.6303 33.812 15.0591 33.9178 13.9637C33.9506 13.6241 33.9729 13.2844 34 12.9453V9.52335ZM25.8216 13.3358C25.7005 13.3678 25.6389 13.3993 25.5773 13.3984C24.8914 13.3867 24.2043 13.3876 23.5202 13.3439C23.3427 13.3322 23.1443 13.211 23.0057 13.0826C20.9898 11.2137 18.979 9.33912 16.9736 7.45902C16.89 7.38442 16.8105 7.30518 16.7353 7.22165C16.5697 7.02706 16.578 6.88202 16.8516 6.81176C17.141 6.73744 17.4325 6.66762 17.7153 6.57033C18.1385 6.42484 18.4882 6.52889 18.8147 6.82797C21.0644 8.88914 23.3153 10.9487 25.5676 13.0065C25.6581 13.0894 25.7211 13.2038 25.8216 13.3358ZM12.7921 8.13557C13.4478 7.98738 14.0064 7.84324 14.5734 7.74685C14.6914 7.72703 14.8584 7.85991 14.9668 7.96125C16.786 9.64226 18.6005 11.3278 20.4101 13.0178C20.4976 13.0989 20.5522 13.2169 20.6654 13.3804C20.4626 13.3948 20.3454 13.4092 20.2283 13.4101C19.7532 13.4137 19.2776 13.4043 18.8029 13.4173C18.6377 13.4251 18.4727 13.3979 18.3181 13.3374C18.1636 13.2769 18.0227 13.1844 17.9042 13.0655C16.3195 11.5602 14.7313 10.0588 13.1396 8.56123C13.0382 8.46844 12.9613 8.34592 12.7921 8.13557Z" fill="#F13005"/>
<path d="M0.499706 14.3011C-0.0401306 14.8727 -0.152466 15.7718 0.211212 16.6218C0.584507 17.4938 1.24149 18.0933 2.01518 18.5663C3.65436 19.568 5.44259 20.0396 7.33616 19.9995C12.4027 19.8874 17.4689 19.7396 22.5355 19.6063C25.4764 19.5275 28.4208 19.459 31.3625 19.3662C31.8245 19.346 32.2822 19.2672 32.7255 19.1316C33.2063 18.9897 33.5 18.6028 33.5997 18.1005C33.6802 17.7011 33.7254 17.2949 33.7348 16.8871C33.7404 16.4965 33.5162 16.342 33.1455 16.4074C33.0904 16.4122 33.036 16.4228 32.9829 16.4389C31.8958 16.8871 30.7563 16.8326 29.6171 16.8555C27.283 16.9006 24.9505 17.0177 22.6163 17.0808C17.506 17.2226 12.3953 17.3654 7.28415 17.4762C5.61087 17.5123 4.02022 17.0911 2.52704 16.3006C1.65369 15.8416 1.16499 15.3601 0.499706 14.3011Z" fill="#F13005"/>
</svg>
