<svg width="17" height="17" viewBox="0 0 17 17" fill="none" xmlns="http://www.w3.org/2000/svg">
<mask id="mask0_0_65" style="mask-type:alpha" maskUnits="userSpaceOnUse" x="0" y="0" width="17" height="331">
<path d="M10.0336 2.69565e-05V11.9525H7.86924V3.16582H5.59181V1.85751L5.9633 1.74444C6.59862 1.56139 7.11548 1.35141 7.51389 1.11451C7.91231 0.877619 8.28919 0.554579 8.64453 0.145395L8.7899 2.69565e-05H10.0336ZM3.99989 47.285V45.7667L6.24502 43.78C7.06338 43.0801 7.76869 42.4771 8.36093 41.971C8.95317 41.4541 9.41081 40.9696 9.73385 40.5173C10.0569 40.065 10.2184 39.5697 10.2184 39.0313C10.2184 38.6221 10.1161 38.2722 9.91152 37.9814C9.7177 37.6907 9.46465 37.47 9.15238 37.3192C8.8401 37.1685 8.51706 37.0931 8.18326 37.0931C7.72023 37.0931 7.34335 37.1846 7.05262 37.3677C6.77265 37.5507 6.55729 37.7715 6.40654 38.0299C6.26655 38.2883 6.16964 38.5414 6.1158 38.789C6.06196 39.0259 6.03504 39.2036 6.03504 39.3221H3.93528C3.93528 39.0852 3.97297 38.7944 4.04835 38.4498C4.13449 38.0945 4.27447 37.7284 4.4683 37.3515C4.66212 36.9746 4.92055 36.6193 5.24359 36.2855C5.56663 35.9517 5.97582 35.6825 6.47114 35.4779C6.96647 35.2733 7.55333 35.171 8.23171 35.171C8.98547 35.171 9.67462 35.3217 10.2992 35.6232C10.9345 35.9248 11.4406 36.3555 11.8175 36.9154C12.2051 37.4753 12.3989 38.1483 12.3989 38.9344C12.3989 39.6559 12.2159 40.3127 11.8498 40.9049C11.4944 41.4972 11.0045 42.0787 10.3799 42.6494C9.75538 43.2093 9.0447 43.8123 8.24786 44.4584L7.24644 45.3629H12.6089V47.285H3.99989ZM8.23436 82.779C7.41599 82.779 6.72684 82.6552 6.16691 82.4075C5.60697 82.1598 5.15472 81.8422 4.81014 81.4545C4.47633 81.0669 4.23405 80.6523 4.0833 80.2108C3.93255 79.7693 3.85717 79.3602 3.85717 78.9833H5.92463C5.92463 79.3063 6.00539 79.624 6.16691 79.9362C6.33919 80.2377 6.59763 80.4854 6.9422 80.6792C7.28678 80.8623 7.71211 80.9538 8.21821 80.9538C8.84275 80.9538 9.365 80.7923 9.78495 80.4693C10.2157 80.1354 10.431 79.6778 10.431 79.0963C10.431 78.5795 10.248 78.1595 9.88187 77.8365C9.52652 77.5134 9.03119 77.3519 8.39588 77.3519H6.78068V75.656H8.41203C8.95043 75.656 9.39192 75.5052 9.7365 75.2037C10.0811 74.9022 10.2534 74.5146 10.2534 74.0408C10.2534 73.5239 10.0542 73.1093 9.65574 72.7971C9.26809 72.474 8.78891 72.3125 8.21821 72.3125C7.75519 72.3125 7.36754 72.4148 7.05527 72.6194C6.74299 72.8132 6.5061 73.0663 6.34458 73.3785C6.18306 73.6908 6.1023 74.0138 6.1023 74.3477H4.0833C4.0833 73.96 4.15329 73.5454 4.29328 73.1039C4.44403 72.6625 4.68092 72.2479 5.00396 71.8602C5.33777 71.4618 5.76849 71.1388 6.29612 70.8911C6.83452 70.6327 7.48599 70.5035 8.25051 70.5035C8.9612 70.5035 9.62882 70.6381 10.2534 70.9073C10.8887 71.1657 11.4002 71.548 11.7878 72.0541C12.1862 72.5494 12.3854 73.1416 12.3854 73.8308C12.3854 74.2938 12.2939 74.703 12.1108 75.0583C11.9386 75.4137 11.7124 75.7044 11.4325 75.9305C11.1633 76.1567 10.8779 76.3236 10.5764 76.4313V76.5282C11.1363 76.722 11.6155 77.0397 12.0139 77.4811C12.4123 77.9226 12.6116 78.4987 12.6116 79.2094C12.6116 79.9632 12.407 80.6092 11.9978 81.1476C11.5994 81.6753 11.0663 82.0791 10.3987 82.359C9.73111 82.639 9.00966 82.779 8.23436 82.779ZM9.04202 117.95V115.398L3.24346 115.382V113.46L8.52516 105.997H11.2225V113.54H13.1608V115.398H11.2225V117.95H9.04202ZM5.40783 113.54H9.04202V108.404L5.40783 113.54ZM8.25051 153.444C7.53983 153.444 6.93143 153.347 6.42534 153.153C5.91924 152.959 5.49929 152.706 5.16548 152.394C4.83168 152.082 4.56786 151.753 4.37404 151.409C4.18021 151.064 4.04023 150.736 3.95408 150.424C3.87871 150.111 3.83564 149.858 3.82487 149.664H5.87617C5.87617 149.664 5.88694 149.734 5.90848 149.874C5.93001 150.004 5.97847 150.165 6.05384 150.359C6.13999 150.553 6.26382 150.752 6.42534 150.957C6.59763 151.15 6.82914 151.312 7.11987 151.441C7.41061 151.57 7.77672 151.635 8.21821 151.635C8.75661 151.635 9.1981 151.522 9.54267 151.296C9.89802 151.07 10.1618 150.779 10.3341 150.424C10.5064 150.068 10.5926 149.691 10.5926 149.293C10.5926 148.894 10.5064 148.518 10.3341 148.162C10.1618 147.796 9.9034 147.495 9.55883 147.258C9.21425 147.021 8.78353 146.902 8.26667 146.902C7.86825 146.902 7.53444 146.967 7.26524 147.096C7.00681 147.225 6.80222 147.371 6.65147 147.532C6.50071 147.694 6.39303 147.839 6.32843 147.968C6.26382 148.098 6.23151 148.162 6.23151 148.162H4.06715L5.08472 141.33H11.917V143.252H6.60301L6.16691 146.208H6.23151C6.30689 146.122 6.43611 145.998 6.61916 145.836C6.80222 145.675 7.06065 145.529 7.39446 145.4C7.72827 145.271 8.16437 145.206 8.70277 145.206C9.57498 145.206 10.3072 145.4 10.8994 145.788C11.5024 146.176 11.9601 146.682 12.2724 147.306C12.5846 147.92 12.7408 148.571 12.7408 149.261C12.7408 149.777 12.6439 150.284 12.45 150.779C12.267 151.274 11.987 151.726 11.6101 152.136C11.244 152.534 10.781 152.852 10.2211 153.089C9.66112 153.326 9.00427 153.444 8.25051 153.444ZM8.44812 188.776C7.64052 188.776 6.9406 188.631 6.34836 188.34C5.75612 188.039 5.2608 187.635 4.86238 187.129C4.47473 186.623 4.184 186.041 3.99017 185.385C3.80712 184.728 3.71559 184.039 3.71559 183.317C3.71559 182.703 3.78558 182.079 3.92557 181.443C4.07632 180.797 4.30783 180.184 4.6201 179.602C4.93237 179.01 5.33079 178.482 5.81535 178.019C6.31068 177.545 6.90292 177.174 7.59207 176.905C8.28122 176.636 9.07805 176.501 9.98256 176.501C10.4779 176.501 10.9032 176.533 11.2586 176.598C11.6139 176.662 11.7916 176.695 11.7916 176.695V178.665C11.7916 178.665 11.6947 178.649 11.5009 178.617C11.3178 178.585 11.0863 178.552 10.8063 178.52C10.5371 178.488 10.2625 178.471 9.98256 178.471C9.29341 178.471 8.70117 178.585 8.20584 178.811C7.72128 179.037 7.31748 179.338 6.99444 179.715C6.68217 180.081 6.44528 180.48 6.28376 180.91C6.12224 181.341 6.02532 181.756 5.99302 182.154C6.08993 181.993 6.25145 181.799 6.47758 181.573C6.70371 181.347 7.0106 181.147 7.39824 180.975C7.79666 180.803 8.29737 180.717 8.90038 180.717C9.76182 180.717 10.4833 180.905 11.0647 181.282C11.6462 181.659 12.0823 182.149 12.3731 182.752C12.6638 183.344 12.8092 183.969 12.8092 184.625C12.8092 185.142 12.7176 185.648 12.5346 186.144C12.3623 186.628 12.0931 187.07 11.727 187.468C11.3609 187.867 10.9032 188.184 10.3541 188.421C9.81566 188.658 9.18035 188.776 8.44812 188.776ZM8.44812 186.951C9.0619 186.951 9.58415 186.752 10.0149 186.354C10.4564 185.944 10.6771 185.39 10.6771 184.69C10.6771 183.99 10.4564 183.441 10.0149 183.042C9.58415 182.633 9.0619 182.429 8.44812 182.429C7.83435 182.429 7.30672 182.633 6.86523 183.042C6.43451 183.441 6.21915 183.99 6.21915 184.69C6.21915 185.39 6.43451 185.944 6.86523 186.354C7.30672 186.752 7.83435 186.951 8.44812 186.951ZM6.08716 223.947C6.13023 222.946 6.25944 221.998 6.4748 221.105C6.70093 220.211 6.97552 219.387 7.29856 218.633C7.63236 217.869 7.98232 217.18 8.34844 216.566C8.71455 215.952 9.05912 215.425 9.38216 214.983C9.71597 214.531 9.99594 214.175 10.2221 213.917H4.13277V211.995H12.661V213.578C12.661 213.578 12.5587 213.691 12.3541 213.917C12.1603 214.132 11.9019 214.455 11.5788 214.886C11.2666 215.306 10.9274 215.823 10.5613 216.437C10.1951 217.04 9.84519 217.729 9.51138 218.504C9.18834 219.269 8.90837 220.109 8.67148 221.024C8.44535 221.939 8.31613 222.914 8.28383 223.947H6.08716ZM8.26326 259.441C7.43412 259.441 6.68575 259.301 6.01813 259.021C5.36128 258.731 4.83904 258.327 4.45139 257.81C4.06374 257.293 3.86992 256.685 3.86992 255.985C3.86992 255.425 3.97221 254.957 4.1768 254.58C4.39216 254.192 4.63444 253.891 4.90364 253.675C5.18361 253.449 5.43128 253.288 5.64664 253.191C5.862 253.094 5.97506 253.045 5.98583 253.045V252.948C5.97506 252.948 5.87815 252.911 5.69509 252.835C5.51204 252.749 5.30206 252.609 5.06516 252.415C4.82827 252.221 4.61829 251.963 4.43524 251.64C4.25218 251.317 4.16065 250.913 4.16065 250.429C4.16065 249.783 4.33832 249.217 4.69367 248.733C5.04901 248.237 5.53357 247.855 6.14735 247.586C6.77189 247.306 7.4772 247.166 8.26326 247.166C9.04932 247.166 9.74924 247.306 10.363 247.586C10.9876 247.855 11.4721 248.237 11.8167 248.733C12.172 249.217 12.3497 249.777 12.3497 250.412C12.3497 250.897 12.2582 251.306 12.0751 251.64C11.9028 251.963 11.6929 252.221 11.4452 252.415C11.2083 252.609 10.9983 252.749 10.8153 252.835C10.6322 252.911 10.5407 252.948 10.5407 252.948V253.045C10.5407 253.045 10.6484 253.094 10.8637 253.191C11.0791 253.288 11.3268 253.449 11.6067 253.675C11.8867 253.891 12.129 254.192 12.3336 254.58C12.5489 254.957 12.6566 255.425 12.6566 255.985C12.6566 256.685 12.4628 257.293 12.0751 257.81C11.6875 258.327 11.1598 258.731 10.4922 259.021C9.83539 259.301 9.09239 259.441 8.26326 259.441ZM8.26326 252.238C8.87703 252.238 9.36698 252.071 9.73309 251.737C10.0992 251.403 10.2823 251.005 10.2823 250.542C10.2823 250.079 10.0992 249.68 9.73309 249.346C9.36698 249.013 8.87703 248.846 8.26326 248.846C7.64948 248.846 7.15954 249.013 6.79343 249.346C6.42732 249.68 6.24426 250.084 6.24426 250.558C6.24426 251.01 6.42732 251.403 6.79343 251.737C7.15954 252.071 7.64948 252.238 8.26326 252.238ZM8.26326 257.713C8.76935 257.713 9.18931 257.622 9.52311 257.439C9.86769 257.245 10.1261 256.997 10.2984 256.696C10.4815 256.394 10.573 256.082 10.573 255.759C10.573 255.436 10.4869 255.129 10.3146 254.838C10.1423 254.547 9.88384 254.31 9.53927 254.127C9.19469 253.944 8.76935 253.853 8.26326 253.853C7.7464 253.853 7.31568 253.944 6.9711 254.127C6.63729 254.31 6.38424 254.547 6.21196 254.838C6.03967 255.129 5.95352 255.436 5.95352 255.759C5.95352 256.082 6.03967 256.394 6.21196 256.696C6.38424 256.997 6.64268 257.245 6.98725 257.439C7.33183 257.622 7.75716 257.713 8.26326 257.713ZM8.07663 282.498C8.88423 282.498 9.58415 282.649 10.1764 282.951C10.7794 283.241 11.2747 283.64 11.6624 284.146C12.05 284.652 12.3354 285.233 12.5184 285.89C12.7122 286.547 12.8092 287.236 12.8092 287.958C12.8092 288.572 12.7338 289.201 12.583 289.848C12.443 290.483 12.2169 291.097 11.9047 291.689C11.6031 292.27 11.2047 292.798 10.7094 293.272C10.2141 293.735 9.62184 294.101 8.93268 294.37C8.24353 294.639 7.4467 294.774 6.54219 294.774C6.05763 294.774 5.63229 294.742 5.26618 294.677C4.91084 294.612 4.73317 294.58 4.73317 294.58V292.61C4.73317 292.61 4.82469 292.626 5.00775 292.658C5.20157 292.69 5.43308 292.723 5.70228 292.755C5.98225 292.787 6.26222 292.803 6.54219 292.803C7.23134 292.803 7.82358 292.69 8.31891 292.464C8.81424 292.238 9.21804 291.942 9.53031 291.576C9.84258 291.199 10.0795 290.795 10.241 290.364C10.4133 289.934 10.5102 289.519 10.5317 289.121C10.4348 289.282 10.2733 289.476 10.0472 289.702C9.83181 289.928 9.52492 290.128 9.12651 290.3C8.73886 290.472 8.24353 290.558 7.64052 290.558C6.76832 290.558 6.04148 290.37 5.46 289.993C4.87853 289.616 4.44243 289.131 4.15169 288.539C3.86096 287.936 3.71559 287.306 3.71559 286.649C3.71559 286.133 3.80712 285.632 3.99017 285.147C4.17323 284.652 4.44243 284.205 4.79777 283.807C5.16388 283.408 5.61614 283.091 6.15454 282.854C6.70371 282.617 7.3444 282.498 8.07663 282.498ZM8.07663 284.324C7.46285 284.324 6.93522 284.528 6.49373 284.937C6.06301 285.336 5.84765 285.885 5.84765 286.585C5.84765 287.285 6.06301 287.839 6.49373 288.248C6.93522 288.647 7.46285 288.846 8.07663 288.846C8.6904 288.846 9.21804 288.647 9.65952 288.248C10.101 287.839 10.3218 287.285 10.3218 286.585C10.3218 285.885 10.101 285.336 9.65952 284.937C9.21804 284.528 8.6904 284.324 8.07663 284.324ZM4.44192 317.992V329.945H2.27756V321.158H0.000126238V319.85L0.371622 319.737C1.00693 319.554 1.5238 319.344 1.92221 319.107C2.32063 318.87 2.69751 318.547 3.05285 318.138L3.19822 317.992H4.44192ZM11.614 330.09C10.8387 330.09 10.1442 329.929 9.53043 329.606C8.92743 329.283 8.42133 328.841 8.01215 328.281C7.60296 327.711 7.29069 327.059 7.07533 326.327C6.85997 325.584 6.75229 324.792 6.75229 323.952C6.75229 323.123 6.85997 322.337 7.07533 321.594C7.29069 320.851 7.60296 320.2 8.01215 319.64C8.42133 319.069 8.92743 318.622 9.53043 318.299C10.1442 317.976 10.8387 317.815 11.614 317.815C12.3893 317.815 13.0785 317.976 13.6815 318.299C14.2953 318.622 14.8068 319.069 15.2159 319.64C15.6251 320.2 15.9374 320.851 16.1528 321.594C16.3681 322.337 16.4758 323.123 16.4758 323.952C16.4758 324.792 16.3681 325.584 16.1528 326.327C15.9374 327.059 15.6251 327.711 15.2159 328.281C14.8068 328.841 14.2953 329.283 13.6815 329.606C13.0785 329.929 12.3893 330.09 11.614 330.09ZM11.614 328.136C12.3678 328.136 12.987 327.786 13.4715 327.086C13.9668 326.386 14.2145 325.342 14.2145 323.952C14.2145 322.574 13.9668 321.54 13.4715 320.851C12.987 320.151 12.3678 319.801 11.614 319.801C10.8603 319.801 10.2357 320.151 9.74041 320.851C9.25585 321.54 9.01357 322.574 9.01357 323.952C9.01357 325.331 9.25585 326.375 9.74041 327.086C10.2357 327.786 10.8603 328.136 11.614 328.136Z" fill="black"/>
</mask>
<g mask="url(#mask0_0_65)">
<rect x="-8.89622" y="-5.20899" width="34.323" height="22.209" fill="black"/>
</g>
</svg>
