<svg width="18" height="18" viewBox="0 0 18 18" fill="none" xmlns="http://www.w3.org/2000/svg">
<path d="M14.2501 17.9995H12.7501C12.5512 17.9995 12.3605 17.9205 12.2198 17.7799C12.0792 17.6392 12.0002 17.4485 12.0002 17.2496C12.0002 17.0506 12.0792 16.8599 12.2198 16.7192C12.3605 16.5786 12.5512 16.4996 12.7501 16.4996H14.2501C14.8468 16.4996 15.419 16.2625 15.841 15.8406C16.2629 15.4187 16.5 14.8464 16.5 14.2497V12.7498C16.5 12.5509 16.579 12.3601 16.7196 12.2195C16.8603 12.0788 17.051 11.9998 17.2499 11.9998C17.4488 11.9998 17.6396 12.0788 17.7802 12.2195C17.9209 12.3601 17.9999 12.5509 17.9999 12.7498V14.2497C17.9987 15.2438 17.6032 16.1969 16.9003 16.8999C16.1973 17.6029 15.2442 17.9983 14.2501 17.9995Z" fill="white"/>
<path d="M0.749965 5.99972C0.551062 5.99972 0.360305 5.9207 0.21966 5.78006C0.0790139 5.63941 0 5.44866 0 5.24975V3.74982C0.00119084 2.75567 0.396643 1.80258 1.09961 1.09961C1.80258 0.396643 2.75567 0.00119084 3.74982 0L5.24975 0C5.44866 0 5.63941 0.0790139 5.78006 0.21966C5.9207 0.360305 5.99972 0.551062 5.99972 0.749965C5.99972 0.948868 5.9207 1.13962 5.78006 1.28027C5.63941 1.42092 5.44866 1.49993 5.24975 1.49993H3.74982C3.15311 1.49993 2.58085 1.73697 2.15891 2.15891C1.73697 2.58085 1.49993 3.15311 1.49993 3.74982V5.24975C1.49993 5.44866 1.42092 5.63941 1.28027 5.78006C1.13962 5.9207 0.948868 5.99972 0.749965 5.99972Z" fill="white"/>
<path d="M5.24975 17.9995H3.74982C2.75567 17.9983 1.80258 17.6028 1.09961 16.8999C0.396643 16.1969 0.00119084 15.2438 0 14.2496L0 12.7497C0 12.5508 0.0790139 12.3601 0.21966 12.2194C0.360305 12.0788 0.551062 11.9998 0.749965 11.9998C0.948868 11.9998 1.13962 12.0788 1.28027 12.2194C1.42092 12.3601 1.49993 12.5508 1.49993 12.7497V14.2496C1.49993 14.8464 1.73697 15.4186 2.15891 15.8406C2.58085 16.2625 3.15311 16.4995 3.74982 16.4995H5.24975C5.44866 16.4995 5.63941 16.5786 5.78006 16.7192C5.9207 16.8598 5.99972 17.0506 5.99972 17.2495C5.99972 17.4484 5.9207 17.6392 5.78006 17.7798C5.63941 17.9205 5.44866 17.9995 5.24975 17.9995Z" fill="white"/>
<path d="M17.2499 5.99984C17.051 5.99984 16.8603 5.92083 16.7196 5.78018C16.579 5.63954 16.5 5.44878 16.5 5.24988V3.74995C16.5 3.15324 16.2629 2.58097 15.841 2.15903C15.419 1.73709 14.8468 1.50005 14.2501 1.50005H12.7501C12.5512 1.50005 12.3605 1.42104 12.2198 1.28039C12.0792 1.13975 12.0002 0.94899 12.0002 0.750087C12.0002 0.551184 12.0792 0.360427 12.2198 0.219782C12.3605 0.079136 12.5512 0.000122067 12.7501 0.000122067L14.2501 0.000122067C15.2442 0.0013129 16.1973 0.396765 16.9003 1.09974C17.6032 1.80271 17.9987 2.7558 17.9999 3.74995V5.24988C17.9999 5.44878 17.9209 5.63954 17.7802 5.78018C17.6396 5.92083 17.4488 5.99984 17.2499 5.99984Z" fill="white"/>
<rect x="2.70012" y="8.1" width="12.5994" height="1.79992" rx="0.899982" fill="white"/>
</svg>
