<svg width="17" height="17" viewBox="0 0 17 17" fill="none" xmlns="http://www.w3.org/2000/svg">
<mask id="mask0_0_9" style="mask-type:alpha" maskUnits="userSpaceOnUse" x="0" y="0" width="17" height="331">
<path d="M10.0336 -3.85094e-06V11.9525H7.86925V3.16579H5.59182V1.85748L5.96331 1.74441C6.59863 1.56136 7.11549 1.35138 7.51391 1.11449C7.91233 0.877589 8.28921 0.554549 8.64455 0.145364L8.78992 -3.85094e-06H10.0336ZM3.9999 47.285V45.7668L6.24503 43.7801C7.0634 43.0801 7.7687 42.4771 8.36094 41.971C8.95318 41.4542 9.41083 40.9696 9.73387 40.5173C10.0569 40.0651 10.2184 39.5698 10.2184 39.0314C10.2184 38.6222 10.1161 38.2722 9.91154 37.9815C9.71771 37.6907 9.46467 37.47 9.15239 37.3192C8.84012 37.1685 8.51708 37.0931 8.18327 37.0931C7.72025 37.0931 7.34337 37.1846 7.05263 37.3677C6.77266 37.5508 6.5573 37.7715 6.40655 38.0299C6.26656 38.2884 6.16965 38.5414 6.11581 38.7891C6.06197 39.026 6.03505 39.2036 6.03505 39.3221H3.93529C3.93529 39.0852 3.97298 38.7945 4.04835 38.4499C4.1345 38.0945 4.27448 37.7284 4.46831 37.3515C4.66213 36.9747 4.92056 36.6193 5.2436 36.2855C5.56664 35.9517 5.97583 35.6825 6.47116 35.4779C6.96649 35.2733 7.55334 35.171 8.23173 35.171C8.98549 35.171 9.67464 35.3218 10.2992 35.6233C10.9345 35.9248 11.4406 36.3555 11.8175 36.9154C12.2051 37.4754 12.3989 38.1484 12.3989 38.9344C12.3989 39.6559 12.2159 40.3128 11.8498 40.905C11.4944 41.4972 11.0045 42.0787 10.3799 42.6494C9.7554 43.2093 9.04471 43.8124 8.24788 44.4584L7.24645 45.363H12.6089V47.285H3.9999ZM8.23438 82.7791C7.41601 82.7791 6.72685 82.6553 6.16692 82.4076C5.60698 82.16 5.15472 81.8423 4.81015 81.4546C4.47634 81.067 4.23406 80.6524 4.08331 80.2109C3.93255 79.7695 3.85718 79.3603 3.85718 78.9834H5.92464C5.92464 79.3064 6.0054 79.6241 6.16692 79.9364C6.33921 80.2379 6.59764 80.4855 6.94222 80.6793C7.28679 80.8624 7.71213 80.9539 8.21823 80.9539C8.84277 80.9539 9.36502 80.7924 9.78497 80.4694C10.2157 80.1356 10.4311 79.6779 10.4311 79.0965C10.4311 78.5796 10.248 78.1596 9.88188 77.8366C9.52654 77.5136 9.03121 77.352 8.3959 77.352H6.78069V75.6561H8.41205C8.95045 75.6561 9.39194 75.5053 9.73652 75.2038C10.0811 74.9023 10.2534 74.5147 10.2534 74.0409C10.2534 73.524 10.0542 73.1094 9.65575 72.7972C9.26811 72.4741 8.78893 72.3126 8.21823 72.3126C7.7552 72.3126 7.36755 72.4149 7.05528 72.6195C6.74301 72.8133 6.50611 73.0664 6.34459 73.3786C6.18307 73.6909 6.10231 74.0139 6.10231 74.3478H4.08331C4.08331 73.9601 4.1533 73.5455 4.29328 73.104C4.44404 72.6626 4.68093 72.248 5.00397 71.8603C5.33778 71.4619 5.7685 71.1389 6.29613 70.8912C6.83454 70.6328 7.486 70.5036 8.25053 70.5036C8.96122 70.5036 9.62883 70.6382 10.2534 70.9074C10.8887 71.1658 11.4002 71.5481 11.7878 72.0542C12.1862 72.5495 12.3854 73.1417 12.3854 73.8309C12.3854 74.2939 12.2939 74.7031 12.1109 75.0584C11.9386 75.4138 11.7124 75.7045 11.4325 75.9307C11.1633 76.1568 10.8779 76.3237 10.5764 76.4314V76.5283C11.1364 76.7221 11.6155 77.0398 12.014 77.4812C12.4124 77.9227 12.6116 78.4988 12.6116 79.2095C12.6116 79.9633 12.407 80.6094 11.9978 81.1478C11.5994 81.6754 11.0664 82.0792 10.3987 82.3592C9.73113 82.6391 9.00967 82.7791 8.23438 82.7791ZM9.04204 117.95V115.398L3.24346 115.382V113.46L8.52518 105.998H11.2226V113.541H13.1608V115.398H11.2226V117.95H9.04204ZM5.40784 113.541H9.04204V108.404L5.40784 113.541ZM8.25053 153.444C7.53984 153.444 6.93145 153.347 6.42535 153.153C5.91925 152.96 5.4993 152.707 5.16549 152.394C4.83168 152.082 4.56787 151.754 4.37404 151.409C4.18022 151.064 4.04023 150.736 3.95409 150.424C3.87871 150.112 3.83564 149.858 3.82487 149.665H5.87618C5.87618 149.665 5.88695 149.735 5.90849 149.875C5.93002 150.004 5.97848 150.165 6.05385 150.359C6.14 150.553 6.26383 150.752 6.42535 150.957C6.59764 151.151 6.82915 151.312 7.11989 151.441C7.41062 151.571 7.77674 151.635 8.21823 151.635C8.75663 151.635 9.19811 151.522 9.54269 151.296C9.89804 151.07 10.1619 150.779 10.3341 150.424C10.5064 150.068 10.5926 149.692 10.5926 149.293C10.5926 148.895 10.5064 148.518 10.3341 148.162C10.1619 147.796 9.90342 147.495 9.55884 147.258C9.21427 147.021 8.78355 146.903 8.26668 146.903C7.86826 146.903 7.53446 146.967 7.26526 147.096C7.00682 147.226 6.80223 147.371 6.65148 147.533C6.50073 147.694 6.39305 147.839 6.32844 147.969C6.26383 148.098 6.23153 148.162 6.23153 148.162H4.06716L5.08473 141.33H11.917V143.252H6.60302L6.16692 146.208H6.23153C6.3069 146.122 6.43612 145.998 6.61917 145.837C6.80223 145.675 7.06066 145.53 7.39447 145.401C7.72828 145.271 8.16438 145.207 8.70279 145.207C9.575 145.207 10.3072 145.401 10.8995 145.788C11.5025 146.176 11.9601 146.682 12.2724 147.306C12.5847 147.92 12.7408 148.572 12.7408 149.261C12.7408 149.778 12.6439 150.284 12.4501 150.779C12.267 151.274 11.987 151.727 11.6101 152.136C11.244 152.534 10.781 152.852 10.2211 153.089C9.66114 153.326 9.00429 153.444 8.25053 153.444ZM8.44814 188.777C7.64054 188.777 6.94062 188.631 6.34838 188.341C5.75614 188.039 5.26081 187.635 4.86239 187.129C4.47474 186.623 4.184 186.042 3.99018 185.385C3.80712 184.728 3.7156 184.039 3.7156 183.317C3.7156 182.704 3.78559 182.079 3.92557 181.444C4.07632 180.798 4.30784 180.184 4.62011 179.602C4.93238 179.01 5.3308 178.483 5.81536 178.02C6.31069 177.546 6.90293 177.174 7.59208 176.905C8.28123 176.636 9.07807 176.501 9.98258 176.501C10.4779 176.501 10.9032 176.534 11.2586 176.598C11.6139 176.663 11.7916 176.695 11.7916 176.695V178.666C11.7916 178.666 11.6947 178.649 11.5009 178.617C11.3178 178.585 11.0863 178.553 10.8063 178.52C10.5371 178.488 10.2625 178.472 9.98258 178.472C9.29343 178.472 8.70119 178.585 8.20586 178.811C7.7213 179.037 7.3175 179.339 6.99446 179.715C6.68218 180.082 6.44529 180.48 6.28377 180.911C6.12225 181.341 6.02534 181.756 5.99303 182.154C6.08994 181.993 6.25146 181.799 6.47759 181.573C6.70372 181.347 7.01061 181.148 7.39826 180.975C7.79667 180.803 8.29739 180.717 8.9004 180.717C9.76184 180.717 10.4833 180.905 11.0648 181.282C11.6462 181.659 12.0823 182.149 12.3731 182.752C12.6638 183.344 12.8092 183.969 12.8092 184.626C12.8092 185.143 12.7177 185.649 12.5346 186.144C12.3623 186.629 12.0931 187.07 11.727 187.468C11.3609 187.867 10.9032 188.185 10.3541 188.421C9.81568 188.658 9.18036 188.777 8.44814 188.777ZM8.44814 186.952C9.06192 186.952 9.58416 186.752 10.0149 186.354C10.4564 185.945 10.6771 185.39 10.6771 184.69C10.6771 183.99 10.4564 183.441 10.0149 183.043C9.58416 182.634 9.06192 182.429 8.44814 182.429C7.83436 182.429 7.30673 182.634 6.86524 183.043C6.43452 183.441 6.21916 183.99 6.21916 184.69C6.21916 185.39 6.43452 185.945 6.86524 186.354C7.30673 186.752 7.83436 186.952 8.44814 186.952ZM6.08717 223.948C6.13024 222.946 6.25946 221.999 6.47482 221.105C6.70094 220.211 6.97553 219.388 7.29857 218.634C7.63238 217.869 7.98234 217.18 8.34845 216.566C8.71456 215.953 9.05914 215.425 9.38218 214.983C9.71599 214.531 9.99596 214.176 10.2221 213.917H4.13277V211.995H12.661V213.578C12.661 213.578 12.5587 213.691 12.3542 213.917C12.1603 214.133 11.9019 214.456 11.5789 214.887C11.2666 215.306 10.9274 215.823 10.5613 216.437C10.1952 217.04 9.8452 217.729 9.5114 218.505C9.18836 219.269 8.90839 220.109 8.67149 221.024C8.44536 221.94 8.31615 222.914 8.28384 223.948H6.08717ZM8.26327 259.442C7.43414 259.442 6.68576 259.302 6.01814 259.022C5.36129 258.731 4.83905 258.327 4.4514 257.811C4.06375 257.294 3.86992 256.685 3.86992 255.985C3.86992 255.425 3.97222 254.957 4.17681 254.58C4.39217 254.192 4.63445 253.891 4.90365 253.676C5.18362 253.449 5.43129 253.288 5.64665 253.191C5.86201 253.094 5.97507 253.046 5.98584 253.046V252.949C5.97507 252.949 5.87816 252.911 5.6951 252.836C5.51205 252.75 5.30207 252.61 5.06517 252.416C4.82828 252.222 4.6183 251.963 4.43524 251.64C4.25219 251.317 4.16066 250.914 4.16066 250.429C4.16066 249.783 4.33833 249.218 4.69368 248.733C5.04902 248.238 5.53358 247.855 6.14736 247.586C6.7719 247.306 7.47721 247.166 8.26327 247.166C9.04934 247.166 9.74926 247.306 10.363 247.586C10.9876 247.855 11.4721 248.238 11.8167 248.733C12.1721 249.218 12.3497 249.778 12.3497 250.413C12.3497 250.897 12.2582 251.307 12.0752 251.64C11.9029 251.963 11.6929 252.222 11.4452 252.416C11.2083 252.61 10.9983 252.75 10.8153 252.836C10.6322 252.911 10.5407 252.949 10.5407 252.949V253.046C10.5407 253.046 10.6484 253.094 10.8637 253.191C11.0791 253.288 11.3268 253.449 11.6067 253.676C11.8867 253.891 12.129 254.192 12.3336 254.58C12.5489 254.957 12.6566 255.425 12.6566 255.985C12.6566 256.685 12.4628 257.294 12.0752 257.811C11.6875 258.327 11.1599 258.731 10.4923 259.022C9.8354 259.302 9.09241 259.442 8.26327 259.442ZM8.26327 252.238C8.87705 252.238 9.367 252.071 9.73311 251.737C10.0992 251.404 10.2823 251.005 10.2823 250.542C10.2823 250.079 10.0992 249.681 9.73311 249.347C9.367 249.013 8.87705 248.846 8.26327 248.846C7.6495 248.846 7.15955 249.013 6.79344 249.347C6.42733 249.681 6.24427 250.084 6.24427 250.558C6.24427 251.011 6.42733 251.404 6.79344 251.737C7.15955 252.071 7.6495 252.238 8.26327 252.238ZM8.26327 257.714C8.76937 257.714 9.18932 257.622 9.52313 257.439C9.86771 257.245 10.1261 256.998 10.2984 256.696C10.4815 256.395 10.573 256.082 10.573 255.759C10.573 255.436 10.4869 255.129 10.3146 254.839C10.1423 254.548 9.88386 254.311 9.53928 254.128C9.19471 253.945 8.76937 253.853 8.26327 253.853C7.74641 253.853 7.31569 253.945 6.97111 254.128C6.6373 254.311 6.38426 254.548 6.21197 254.839C6.03968 255.129 5.95353 255.436 5.95353 255.759C5.95353 256.082 6.03968 256.395 6.21197 256.696C6.38426 256.998 6.64269 257.245 6.98726 257.439C7.33184 257.622 7.75718 257.714 8.26327 257.714ZM8.07664 282.499C8.88424 282.499 9.58416 282.65 10.1764 282.951C10.7794 283.242 11.2747 283.64 11.6624 284.146C12.05 284.652 12.3354 285.234 12.5184 285.891C12.7123 286.548 12.8092 287.237 12.8092 287.958C12.8092 288.572 12.7338 289.202 12.5831 289.848C12.4431 290.483 12.2169 291.097 11.9047 291.689C11.6032 292.271 11.2048 292.798 10.7094 293.272C10.2141 293.735 9.62185 294.101 8.9327 294.371C8.24355 294.64 7.44671 294.774 6.5422 294.774C6.05764 294.774 5.6323 294.742 5.26619 294.677C4.91085 294.613 4.73317 294.581 4.73317 294.581V292.61C4.73317 292.61 4.8247 292.626 5.00776 292.658C5.20158 292.691 5.43309 292.723 5.7023 292.755C5.98226 292.788 6.26223 292.804 6.5422 292.804C7.23135 292.804 7.82359 292.691 8.31892 292.465C8.81425 292.239 9.21805 291.942 9.53032 291.576C9.8426 291.199 10.0795 290.796 10.241 290.365C10.4133 289.934 10.5102 289.52 10.5317 289.121C10.4348 289.283 10.2733 289.477 10.0472 289.703C9.83183 289.929 9.52494 290.128 9.12652 290.3C8.73888 290.473 8.24355 290.559 7.64054 290.559C6.76833 290.559 6.04149 290.37 5.46001 289.993C4.87854 289.617 4.44244 289.132 4.1517 288.54C3.86096 287.937 3.7156 287.307 3.7156 286.65C3.7156 286.133 3.80712 285.632 3.99018 285.148C4.17324 284.652 4.44244 284.206 4.79778 283.807C5.16389 283.409 5.61615 283.091 6.15455 282.854C6.70372 282.617 7.34442 282.499 8.07664 282.499ZM8.07664 284.324C7.46287 284.324 6.93523 284.529 6.49374 284.938C6.06302 285.336 5.84766 285.885 5.84766 286.585C5.84766 287.285 6.06302 287.84 6.49374 288.249C6.93523 288.647 7.46287 288.847 8.07664 288.847C8.69042 288.847 9.21805 288.647 9.65954 288.249C10.101 287.84 10.3218 287.285 10.3218 286.585C10.3218 285.885 10.101 285.336 9.65954 284.938C9.21805 284.529 8.69042 284.324 8.07664 284.324ZM4.44193 317.993V329.945H2.27756V321.159H0.000126239V319.85L0.371623 319.737C1.00694 319.554 1.5238 319.344 1.92222 319.107C2.32063 318.871 2.69751 318.547 3.05286 318.138L3.19823 317.993H4.44193ZM11.6141 330.091C10.8388 330.091 10.1442 329.929 9.53045 329.606C8.92744 329.283 8.42135 328.842 8.01216 328.282C7.60298 327.711 7.2907 327.06 7.07534 326.327C6.85998 325.584 6.7523 324.793 6.7523 323.953C6.7523 323.124 6.85998 322.338 7.07534 321.595C7.2907 320.852 7.60298 320.2 8.01216 319.64C8.42135 319.07 8.92744 318.623 9.53045 318.3C10.1442 317.977 10.8388 317.815 11.6141 317.815C12.3894 317.815 13.0785 317.977 13.6815 318.3C14.2953 318.623 14.8068 319.07 15.216 319.64C15.6251 320.2 15.9374 320.852 16.1528 321.595C16.3681 322.338 16.4758 323.124 16.4758 323.953C16.4758 324.793 16.3681 325.584 16.1528 326.327C15.9374 327.06 15.6251 327.711 15.216 328.282C14.8068 328.842 14.2953 329.283 13.6815 329.606C13.0785 329.929 12.3894 330.091 11.6141 330.091ZM11.6141 328.136C12.3678 328.136 12.987 327.786 13.4715 327.087C13.9669 326.387 14.2145 325.342 14.2145 323.953C14.2145 322.575 13.9669 321.541 13.4715 320.852C12.987 320.152 12.3678 319.802 11.6141 319.802C10.8603 319.802 10.2358 320.152 9.74043 320.852C9.25587 321.541 9.01359 322.575 9.01359 323.953C9.01359 325.331 9.25587 326.376 9.74043 327.087C10.2358 327.786 10.8603 328.136 11.6141 328.136Z" fill="black"/>
</mask>
<g mask="url(#mask0_0_9)">
<rect x="-8.89623" y="-5.20903" width="34.323" height="22.209" fill="white"/>
</g>
</svg>
