<svg width="30" height="30" viewBox="0 0 30 30" fill="none" xmlns="http://www.w3.org/2000/svg">
<circle cx="15" cy="15" r="15" fill="#F13005"/>
<path fill-rule="evenodd" clip-rule="evenodd" d="M19.8275 11.1107C19.6809 10.9631 19.4424 10.9631 19.2969 11.1107L13.7056 16.6776C13.5591 16.8262 13.3201 16.8262 13.1746 16.6776L10.7247 14.182C10.6522 14.108 10.5572 14.0715 10.4617 14.071C10.3652 14.0705 10.2672 14.107 10.1937 14.182L9.11102 15.1555C9.03901 15.2295 9 15.322 9 15.4186C9 15.5156 9.03901 15.6172 9.11152 15.6907L11.5818 18.2839C11.7279 18.4319 11.9674 18.672 12.1129 18.8191L13.1751 19.8901C13.3211 20.0366 13.5596 20.0366 13.7061 19.8901L20.8901 12.7169C21.0366 12.5698 21.0366 12.3282 20.8901 12.1812L19.8275 11.1107Z" fill="white"/>
</svg>
