<svg width="20" height="20" viewBox="0 0 20 20" fill="none" xmlns="http://www.w3.org/2000/svg">
<path d="M15.6838 1.88034H14.8718V1.06838C14.8718 0.620171 14.508 0.25641 14.0598 0.25641C13.6116 0.25641 13.2479 0.620171 13.2479 1.06838V1.88034H6.75214V1.06838C6.75214 0.620171 6.38838 0.25641 5.94017 0.25641C5.49197 0.25641 5.12821 0.620171 5.12821 1.06838V1.88034H4.31624C2.07765 1.88034 0.25641 3.70158 0.25641 5.94017V15.6838C0.25641 17.9224 2.07765 19.7436 4.31624 19.7436H15.6838C17.9224 19.7436 19.7436 17.9224 19.7436 15.6838V5.94017C19.7436 3.70158 17.9224 1.88034 15.6838 1.88034ZM4.31624 3.50427H15.6838C17.0268 3.50427 18.1197 4.59718 18.1197 5.94017V6.75214H1.88034V5.94017C1.88034 4.59718 2.97325 3.50427 4.31624 3.50427ZM15.6838 18.1197H4.31624C2.97325 18.1197 1.88034 17.0268 1.88034 15.6838V8.37607H18.1197V15.6838C18.1197 17.0268 17.0268 18.1197 15.6838 18.1197ZM13.2479 13.2479C13.2479 13.6961 12.8841 14.0598 12.4359 14.0598H7.5641C7.1159 14.0598 6.75214 13.6961 6.75214 13.2479C6.75214 12.7997 7.1159 12.4359 7.5641 12.4359H12.4359C12.8841 12.4359 13.2479 12.7997 13.2479 13.2479Z" fill="#F13005" stroke="#F13005" stroke-width="0.5"/>
</svg>
