<svg width="32" height="20" viewBox="0 0 32 20" fill="none" xmlns="http://www.w3.org/2000/svg">
<path d="M31.2348 17.4913H30.4783C29.5607 17.4913 29.5961 16.6167 29.5961 16.6167C29.5961 16.6167 29.59 16.6187 29.5885 16.6187C29.0778 11.483 25.7322 7.19222 21.1356 5.32339C21.1225 5.31683 21.1134 5.31026 21.1003 5.30421C20.3548 4.97818 20.3372 4.24791 20.3372 4.24791V2.28772C20.3372 1.02501 19.3142 0 18.05 0H13.9504C12.6872 0 11.6627 1.02501 11.6627 2.28772V4.53911C11.642 4.72786 11.5305 5.04127 11.0429 5.24768C11.0117 5.26131 10.9879 5.27443 10.9627 5.28604C6.3272 7.12964 2.94179 11.427 2.4144 16.5828L2.40834 16.5808C2.40834 16.5808 2.33264 17.4913 1.46257 17.4913H0.896315C0.716649 17.4953 0 17.5584 0 18.2973V18.8882C0.0105983 19.1416 0.120619 19.7447 0.950316 19.7447H31.0137C31.8359 19.7447 31.9787 19.2127 31.9999 18.9463V18.3447C31.9999 17.6341 31.4922 17.5089 31.2348 17.4913ZM18.6853 3.64027C18.6808 3.82297 18.6112 4.49773 17.7648 4.419C17.7184 4.41445 17.6876 4.41597 17.6563 4.41748C17.1123 4.35036 16.5632 4.30544 15.9999 4.30544C15.3595 4.30544 14.7332 4.36752 14.1155 4.45483C14.0726 4.45281 14.0231 4.45483 13.962 4.4624C13.2903 4.54214 13.1727 4.12123 13.1566 3.90523V2.86306C13.1566 2.05759 13.8086 1.40453 14.6146 1.40453H17.2278C18.0333 1.40453 18.6859 2.05759 18.6859 2.86306V3.64027H18.6853ZM24.9409 17.4802H23.7857C23.1947 17.4802 23.0443 17.1627 23.01 16.9407C23.01 16.8877 23.0074 16.815 23.0044 16.7292C22.9651 15.5694 22.6683 11.5895 20.4679 8.44131L20.4785 8.44081L20.2241 8.00981C20.1969 7.85134 20.2065 7.6207 20.5951 7.9442C22.5023 9.58745 25.3214 12.717 25.4834 16.9891C25.4728 17.1743 25.3906 17.4802 24.9409 17.4802Z" fill="white"/>
</svg>
