<svg width="21" height="32" viewBox="0 0 21 32" fill="none" xmlns="http://www.w3.org/2000/svg">
<path d="M20.3841 8.54091C19.4731 3.64412 15.2596 0 10.2489 0C5.23823 0 1.02471 3.64412 0.113681 8.54091C6.37702 10.7046 14.1208 10.7046 20.3841 8.54091Z" fill="#F13005"/>
<path d="M10.2491 12.5267C6.71885 12.5267 3.18861 11.9573 0 10.9324C0.341636 16.2847 4.78291 20.4982 10.2491 20.4982C15.7153 20.4982 20.1566 16.2847 20.4982 10.9324C17.3096 11.9573 13.7793 12.5267 10.2491 12.5267Z" fill="#F13005"/>
<path d="M13.5516 22.3203C12.5266 22.6619 11.3879 22.7758 10.2491 22.7758C9.11028 22.7758 7.97149 22.5481 6.94658 22.3203C6.60494 23.4591 6.26331 24.7118 6.03555 25.8505L5.92167 26.0783C5.69391 26.7616 5.69391 27.5587 5.80779 28.3559C6.14943 30.0641 7.62985 31.5445 9.45191 31.8861C9.67967 31.8861 10.0213 32 10.2491 32C11.274 32 12.2989 31.6584 13.2099 30.9751C14.2348 30.0641 14.8042 28.8114 14.8042 27.4448C14.8042 26.9893 14.6903 26.5338 14.5765 26.0783C14.2348 24.9395 13.8932 23.6868 13.5516 22.3203Z" fill="#F13005"/>
</svg>
