<svg width="343" height="302" viewBox="0 0 343 302" fill="none" xmlns="http://www.w3.org/2000/svg">
<path d="M305.953 300.266C329.146 271.127 343 234.279 343 194.206C343 99.8482 266.218 23.3562 171.5 23.3562C76.782 23.3562 0 99.8482 0 194.206C0 234.283 13.8542 271.131 37.0471 300.266H305.953Z" fill="#F13005" fill-opacity="0.06"/>
<path d="M301.096 261.516H270.733V300.355H301.096V261.516Z" fill="#FFA305"/>
<path d="M301.096 300.358V261.516H318.925L318.647 300.358H301.096Z" fill="#DE7F04"/>
<path d="M286.612 261.516H282.074V270.355H286.612V261.516Z" fill="#FFC766"/>
<path d="M256.72 300.358V261.516H270.733L270.515 300.358H256.72Z" fill="#DE7F04"/>
<path d="M272.398 231.217H249.902V261.516H272.398V231.217Z" fill="#DE7F04"/>
<path d="M252.531 261.516V231.217H234.806L235.04 261.516H252.531Z" fill="#FFA305"/>
<path d="M263.552 231.217H260.012V238.113H263.552V231.217Z" fill="#FFC766"/>
<path d="M309.846 231.217H287.35V261.516H309.846V231.217Z" fill="#FFA305"/>
<path d="M287.35 261.516V231.217H272.253L272.491 261.516H287.35Z" fill="#FFA305"/>
<path d="M309.846 231.217H296.351V261.516H309.846V231.217Z" fill="#DE7F04"/>
<path d="M257.458 261.516H226.005V300.355H257.458V261.516Z" fill="#FFA305"/>
<path d="M244 261.516H239.462V270.355H244V261.516Z" fill="#FFC766"/>
<path d="M285.915 231.217H282.374V238.113H285.915V231.217Z" fill="#FFC766"/>
<path d="M289.107 201.424H266.611V231.723H289.107V201.424Z" fill="#DE7F04"/>
<path d="M269.239 231.723V201.424H251.515L251.748 231.723H269.239Z" fill="#FFA305"/>
<path d="M280.261 201.424H276.721V208.32H280.261V201.424Z" fill="#FFC766"/>
<path d="M309.98 23.3994C310.006 15.2457 303.392 8.61518 295.208 8.5897C287.024 8.56422 280.369 15.1534 280.344 23.3071C280.318 31.4608 286.932 38.0913 295.116 38.1168C303.299 38.1423 309.954 31.5531 309.98 23.3994Z" fill="#DBE6F1"/>
<path d="M237.609 14.7943C235.34 1.39735 214.631 -4.64917 215.039 4.09373L120.117 4.64777C113.544 4.68471 108.213 10.5798 108.205 17.8157L108.009 266.513C108.001 274.012 113.425 280.139 120.128 280.198L217.026 281.026C217.626 282.285 218.753 283.43 220.525 284.383C231.636 284.62 236.967 279.153 238.914 272.97C239.548 271.312 239.892 269.476 239.878 267.544C239.492 264.312 238.309 17.9339 237.609 14.7943Z" fill="#4D4D4D"/>
<path d="M219.491 284.424L108.264 283.711C101.324 283.667 95.7078 277.373 95.7227 269.657L96.1416 13.8931C96.1527 6.45403 101.68 0.411206 108.487 0.389044L217.548 0.0381468C224.411 0.0159848 230.02 6.05143 230.075 13.5237L232.051 270.469C232.114 278.219 226.487 284.472 219.491 284.424Z" fill="#4D4D4D"/>
<path d="M221.026 282.566C220.562 282.629 220.092 282.659 219.621 282.655L108.428 281.816C102.463 281.772 97.5874 276.254 97.5986 269.52L97.9841 14.0371C97.9952 7.54367 102.792 2.24327 108.643 2.21742L217.7 1.74463C217.871 1.74463 218.042 1.74832 218.212 1.75571C220.955 1.88129 223.521 3.12975 225.438 5.26099C227.395 7.44025 228.485 10.325 228.511 13.3944L230.461 270.602C230.509 276.693 226.465 281.839 221.026 282.566Z" fill="#0D0D0D"/>
<path d="M224.685 14.6835L226.25 270.994L101.298 270.248L101.617 14.6835H224.685Z" fill="white"/>
<path d="M139.387 68.3155L153.193 68.201L197.562 13.7749L183.693 13.8894L139.387 68.3155Z" fill="#F13005"/>
<path d="M153.193 68.2009L166.988 68.0901L211.428 13.6641L197.562 13.7749L153.193 68.2009Z" fill="#F1E3E0"/>
<path d="M166.988 68.0901L180.794 67.9793L225.286 13.5496L211.428 13.6641L166.988 68.0901Z" fill="#F13005"/>
<path d="M125.592 68.4263L139.387 68.3155L183.693 13.8894L169.839 14.0039L125.592 68.4263Z" fill="#F1E3E0"/>
<path d="M97.9952 68.6516L111.79 68.5408L155.97 14.1147L142.116 14.2293L97.9952 68.6516Z" fill="#F1E3E0"/>
<path d="M57.9489 68.9766L70.3943 68.8768L114.393 14.4545L101.903 14.5579L57.9489 68.9766Z" fill="#F13005"/>
<path d="M70.3943 68.8769L84.1892 68.7661L128.251 14.3438L114.393 14.4546L70.3943 68.8769Z" fill="#F1E3E0"/>
<path d="M111.79 68.5408L125.592 68.4263L169.839 14.0039L155.97 14.1147L111.79 68.5408Z" fill="#F13005"/>
<path d="M84.1892 68.7661L97.9952 68.6516L142.116 14.2292L128.251 14.3438L84.1892 68.7661Z" fill="#F13005"/>
<path d="M166.988 68.0902L166.984 76.3751C166.981 85.1549 180.765 85.0441 180.779 76.2643L180.794 67.9794L166.988 68.0902Z" fill="#D62B04"/>
<path d="M153.193 68.2009L153.197 76.4858C153.201 85.2656 166.977 85.1511 166.984 76.375L166.988 68.0901L153.193 68.2009Z" fill="#F1C5BC"/>
<path d="M139.387 68.3154L139.402 76.6003C139.417 85.3801 153.201 85.2656 153.197 76.4895L153.193 68.2046L139.387 68.3154Z" fill="#D62B04"/>
<path d="M125.592 68.4262L125.615 76.7111C125.641 85.4909 139.413 85.3764 139.402 76.6003L139.387 68.3154L125.592 68.4262Z" fill="#F1C5BC"/>
<path d="M111.79 68.5407L111.823 76.8256C111.857 85.6055 125.644 85.4909 125.618 76.7148L125.596 68.4299L111.79 68.5407Z" fill="#D62B04"/>
<path d="M97.9952 68.6516L98.036 76.9365C98.0805 85.7163 111.857 85.6018 111.82 76.8257L111.786 68.5408L97.9952 68.6516Z" fill="#F1C5BC"/>
<path d="M84.1892 68.7661L84.2411 77.051C84.2967 85.8308 98.0805 85.7163 98.036 76.9402L97.9952 68.6553L84.1892 68.7661Z" fill="#D62B04"/>
<path d="M70.3943 68.8769L70.4536 77.1618C70.5167 85.9416 84.293 85.8271 84.2374 77.051L84.1855 68.7661L70.3943 68.8769Z" fill="#F1C5BC"/>
<path d="M57.9489 68.9767L58.0193 77.2616C58.0935 86.0377 70.5204 85.938 70.4574 77.1618L70.398 68.877L57.9489 68.9767Z" fill="#D62B04"/>
<path d="M180.794 67.9793L179.712 68.1271L225.345 67.7245L225.286 13.5496L180.794 67.9793Z" fill="#F1E3E0"/>
<path d="M217.964 195.185L108.683 195.078V193.638L217.964 193.752V195.185Z" fill="#0776ED"/>
<path d="M217.964 235.442L108.683 235.332V233.891L217.964 234.006V235.442Z" fill="#0776ED"/>
<path d="M217.964 154.012L108.683 153.875V152.69L217.964 152.83V154.012Z" fill="#04F2F5"/>
<path d="M208.202 101.798L118.63 101.274C115.405 101.255 112.78 98.5775 112.78 95.3013C112.78 92.025 115.405 89.3803 118.63 89.4025L208.202 89.9898C211.391 90.0119 213.986 92.6751 213.986 95.9292C213.982 99.1833 211.391 101.817 208.202 101.798ZM118.63 89.7977C115.62 89.7792 113.169 92.2503 113.169 95.3049C113.169 98.3633 115.62 100.864 118.63 100.882L208.202 101.407C211.179 101.425 213.6 98.9654 213.6 95.9292C213.6 92.893 211.179 90.4035 208.202 90.385L118.63 89.7977Z" fill="#0776ED"/>
<path d="M208.202 90.1856L198.882 90.1265V101.551L208.202 101.606C211.291 101.625 213.793 99.0836 213.793 95.9329C213.793 92.7785 211.291 90.2077 208.202 90.1856Z" fill="#0776ED"/>
<path d="M204.751 97.5286C203.976 97.5249 203.249 97.2109 202.701 96.6495C201.57 95.4897 201.57 93.6133 202.701 92.4683C203.249 91.9142 203.976 91.6113 204.751 91.615C205.526 91.6187 206.252 91.9327 206.801 92.4941C207.932 93.6539 207.932 95.5303 206.801 96.6753C206.252 97.2331 205.522 97.536 204.751 97.5286ZM204.751 92.3279C204.165 92.3242 203.613 92.5532 203.197 92.9743C202.341 93.8423 202.341 95.268 203.197 96.1471C203.613 96.5719 204.165 96.812 204.751 96.8157C205.337 96.8194 205.889 96.5904 206.304 96.1693C207.161 95.3013 207.161 93.8755 206.304 92.9965C205.889 92.5717 205.337 92.3316 204.751 92.3279Z" fill="white"/>
<path d="M208.499 98.9469L206.304 96.6753L206.797 96.173L208.992 98.4446L208.499 98.9469Z" fill="white"/>
<path d="M209.478 99.4493C209.233 99.6967 208.833 99.6967 208.588 99.4456L206.749 97.5581L207.639 96.6569L209.478 98.5443C209.726 98.7955 209.726 99.2018 209.478 99.4493Z" fill="white"/>
<path d="M143.432 147.567L112.784 147.423V116.233L143.432 116.414V147.567Z" fill="#0776ED"/>
<path d="M179.107 147.733L148.537 147.589V116.444L179.107 116.621V147.733Z" fill="#0776ED"/>
<path d="M213.897 147.895L183.4 147.751V116.647L213.897 116.824V147.895Z" fill="#0776ED"/>
<path d="M143.432 189.386L112.784 189.286V158.101L143.432 158.234V189.386Z" fill="#0776ED"/>
<path d="M179.107 189.501L148.537 189.401V158.256L179.107 158.389V189.501Z" fill="#0776ED"/>
<path d="M213.897 189.612L183.4 189.515V158.407L213.897 158.537V189.612Z" fill="#0776ED"/>
<path d="M143.432 230.478L112.784 230.426V199.237L143.432 199.326V230.478Z" fill="#0776ED"/>
<path d="M179.107 230.541L148.537 230.486V199.341L179.107 199.426V230.541Z" fill="#0776ED"/>
<path d="M213.897 230.6L183.4 230.548V199.44L213.897 199.525V230.6Z" fill="#0776ED"/>
<path d="M136.507 139.847L135.825 139.64C135.839 139.588 137.022 134.428 137.118 132.463C137.233 130.099 136.507 128.005 135.016 126.406C133.315 124.577 130.723 123.521 127.902 123.506C125.148 123.491 122.749 124.422 121.151 126.132C119.683 127.702 118.979 129.859 119.116 132.367C119.223 134.351 120.221 139.337 120.232 139.389L119.535 139.529C119.494 139.322 118.519 134.439 118.408 132.404C118.259 129.693 119.03 127.351 120.636 125.63C122.371 123.776 124.951 122.764 127.906 122.778C130.916 122.797 133.697 123.934 135.535 125.907C137.163 127.654 137.956 129.933 137.834 132.5C137.73 134.55 136.566 139.64 136.507 139.847Z" fill="#03ABB0"/>
<path d="M119.575 136.16L120.506 141.21C120.606 141.756 121.092 142.129 121.622 142.096L120.313 134.93C119.802 135.086 119.475 135.614 119.575 136.16Z" fill="#03ABB0"/>
<path d="M121.752 142.081L123.754 141.708L122.43 134.531L120.428 134.905C120.391 134.912 120.354 134.919 120.317 134.93L121.626 142.096C121.666 142.092 121.707 142.089 121.752 142.081Z" fill="#03ABB0"/>
<path d="M124.284 142.418C123.672 142.532 123.083 142.118 122.968 141.498L121.774 135.015C121.659 134.391 122.063 133.797 122.675 133.682C123.286 133.568 123.876 133.981 123.991 134.602L125.185 141.084C125.296 141.705 124.895 142.303 124.284 142.418Z" fill="white"/>
<path d="M136.54 136.319L135.487 141.328C135.372 141.871 134.879 142.226 134.349 142.174L135.836 135.06C136.344 135.237 136.655 135.776 136.54 136.319Z" fill="#03ABB0"/>
<path d="M134.223 142.155L132.232 141.712L133.73 134.587L135.721 135.03C135.758 135.038 135.795 135.049 135.832 135.06L134.345 142.174C134.305 142.174 134.264 142.166 134.223 142.155Z" fill="#03ABB0"/>
<path d="M131.684 142.403C132.292 142.539 132.888 142.148 133.018 141.527L134.371 135.093C134.501 134.476 134.116 133.863 133.508 133.73C132.9 133.593 132.303 133.985 132.173 134.602L130.82 141.04C130.686 141.657 131.076 142.266 131.684 142.403Z" fill="white"/>
<path d="M167.689 127.565L166.97 128.869L153.846 128.799V140.235L173.806 140.334V129.043L173.016 127.595L167.689 127.565Z" fill="white"/>
<path d="M166.132 129.442L161.527 129.416V127.532L166.132 127.554V129.442Z" fill="white"/>
<path d="M159.993 129.409L155.392 129.383V127.499L159.993 127.521V129.409Z" fill="white"/>
<path d="M173.806 138.118L153.846 138.018V131.418L173.806 131.521V138.118Z" fill="#073B73"/>
<path d="M172.419 134.812C172.419 137.387 170.373 139.459 167.845 139.448C165.316 139.437 163.27 137.339 163.27 134.764C163.27 132.19 165.32 130.114 167.845 130.129C170.373 130.144 172.419 132.242 172.419 134.812Z" fill="#073B73"/>
<path d="M171.392 134.809C171.392 136.803 169.806 138.414 167.845 138.403C165.887 138.392 164.297 136.766 164.297 134.772C164.297 132.777 165.883 131.167 167.845 131.178C169.802 131.189 171.392 132.814 171.392 134.809Z" fill="white"/>
<path d="M169.543 134.798C169.543 135.751 168.783 136.523 167.845 136.515C166.907 136.511 166.147 135.732 166.147 134.779C166.147 133.826 166.907 133.054 167.845 133.062C168.783 133.065 169.543 133.845 169.543 134.798Z" fill="#4489C8"/>
<path d="M139.977 223.974C139.821 220.838 132.777 218.862 132.777 218.862C132.777 218.862 126.33 211.792 123.631 208.25C119.042 210.034 117.948 212.242 118.63 216.091C120.866 214.2 124.684 217.68 129.322 223.955L139.977 223.974Z" fill="#073B73"/>
<path d="M118.63 216.091L120.161 224.273H120.899C121.103 220.59 121.563 216.42 124.009 217.753C124.009 214.47 118.63 214.459 118.63 216.091Z" fill="#03ABB0"/>
<path d="M130.182 163.006C130.041 162.6 129.956 162.171 129.915 161.739H129.574C129.563 162.131 129.478 162.541 129.418 162.759C129.177 163.656 128.503 164.328 127.702 164.369C126.901 164.321 126.226 163.641 125.985 162.744C125.926 162.522 125.841 162.112 125.83 161.724H125.489C125.448 162.157 125.363 162.585 125.222 162.991C124.877 163.992 124.284 164.831 123.583 165.525L124.128 170.637L127.55 170.652H127.85L131.272 170.667L131.817 165.558C131.12 164.857 130.527 164.011 130.182 163.006Z" fill="white"/>
<path d="M135.665 184.06C134.141 185.611 121.629 185.726 119.735 184.004C120.588 179.169 121.707 174.497 124.128 170.633L131.276 170.659C133.441 174.013 134.675 178.837 135.665 184.06Z" fill="white"/>
<path d="M128.325 171.875C125.429 171.864 124.061 170.63 124.002 170.578C123.957 170.537 123.954 170.471 123.995 170.427C124.035 170.382 124.102 170.379 124.147 170.419C124.161 170.43 125.518 171.649 128.325 171.66H128.328C130.827 171.668 131.172 170.645 131.176 170.634C131.194 170.578 131.253 170.545 131.309 170.563C131.365 170.582 131.398 170.641 131.38 170.696C131.365 170.744 131.009 171.886 128.328 171.875C128.325 171.875 128.325 171.875 128.325 171.875Z" fill="#4489C8"/>
<path d="M128.028 173.836C127.961 173.836 127.88 173.806 127.795 173.703C127.272 173.053 128.577 171.823 128.725 171.686L128.959 171.472L128.903 171.786C128.821 172.237 128.521 173.714 128.087 173.825C128.073 173.832 128.054 173.836 128.028 173.836ZM128.629 172.092C128.225 172.525 127.691 173.226 127.965 173.566C127.987 173.592 128.017 173.625 128.039 173.618C128.217 173.57 128.462 172.846 128.629 172.092Z" fill="#4489C8"/>
<path d="M128.688 172.03L128.695 171.764C128.695 171.697 128.74 170.172 129.326 169.662C129.481 169.525 129.663 169.47 129.867 169.5C130.097 169.533 130.182 169.651 130.215 169.747C130.397 170.305 129.133 171.594 128.877 171.845L128.688 172.03ZM129.771 169.706C129.659 169.706 129.559 169.743 129.467 169.825C129.088 170.153 128.966 171.029 128.925 171.483C129.459 170.922 130.108 170.105 130.012 169.81C130.004 169.791 129.986 169.729 129.837 169.706C129.815 169.71 129.793 169.706 129.771 169.706Z" fill="#4489C8"/>
<path d="M130.827 173.614C130.786 173.614 130.749 173.592 130.731 173.552C130.101 172.24 128.788 171.875 128.773 171.871C128.718 171.856 128.681 171.797 128.695 171.738C128.71 171.679 128.77 171.646 128.825 171.66C128.885 171.675 130.249 172.056 130.92 173.459C130.946 173.515 130.924 173.577 130.872 173.603C130.857 173.611 130.842 173.614 130.827 173.614Z" fill="#4489C8"/>
<path d="M160.3 166.371C160.3 166.371 162.45 167.091 165.598 166.282C167.615 168.764 164.063 169.95 161.842 169.411C159.629 168.872 160.3 166.371 160.3 166.371Z" fill="white"/>
<path d="M165.602 166.282C165.427 166.958 165.079 167.549 164.434 167.93C162.925 168.816 160.975 167.867 160.304 166.371C159.11 166.526 158.061 166.759 157.312 167.036V184.163L169.183 184.204V167.084C168.119 166.666 166.881 166.412 165.602 166.282Z" fill="#073B73"/>
<path d="M157.308 167.032L152.192 171.047L155.559 175.535L160.567 171.753L157.308 167.032Z" fill="#073B73"/>
<path d="M169.22 167.08L174.336 171.132L170.974 175.594L165.965 171.775L169.22 167.08Z" fill="#073B73"/>
<path d="M187.297 181.412H187.06V182.431C187.06 182.431 199.839 183.358 204.869 182.494C209.897 181.629 210.241 179.945 210.241 179.945V178.896H210.067L187.297 181.412Z" fill="#073B73"/>
<path d="M210.041 179.391C208.725 181.127 204.729 181.648 199.731 181.711C197.674 181.74 195.446 181.692 193.162 181.618C191.219 181.552 189.239 181.474 187.293 181.411C187.1 179.956 187.608 177.249 188.009 175.756C188.138 175.273 188.257 174.914 188.335 174.77L188.409 174.744C189.076 175.664 190.708 176.222 191.675 176.203C193.258 176.17 195.041 175.073 194.53 173.743C194.445 173.559 194.381 173.4 194.337 173.248C193.933 171.926 195.045 171.922 196.71 172.953C199.664 174.829 202.289 175.505 204.41 175.845C204.847 175.915 205.266 175.971 205.659 176.022C208.636 176.41 210.308 176.425 210.041 179.391Z" fill="white"/>
<path d="M209.874 179.391C208.558 181.127 204.562 181.648 199.564 181.711C199.42 180.979 199.294 179.055 201.867 178.586C203.82 178.231 204.929 176.957 205.492 176.026C208.469 176.41 210.141 176.425 209.874 179.391Z" fill="#073B73"/>
<path d="M192.999 181.618C191.056 181.552 189.076 181.474 187.13 181.411C186.937 179.956 187.445 177.249 187.846 175.756C189.499 176.347 192.443 177.899 192.999 181.618Z" fill="#073B73"/>
<path d="M204.41 175.849C204.032 176.447 203.446 176.466 202.886 176.462C197.833 176.107 195.271 174.105 194.337 173.248C193.933 171.926 195.045 171.922 196.71 172.953C199.664 174.833 202.293 175.509 204.41 175.849Z" fill="#073B73"/>
<path d="M198.408 181.903C195.816 181.895 193.221 181.748 191.101 181.629C189.236 181.526 187.764 181.441 187.163 181.515L187.067 181.526L187.045 181.326L187.141 181.315C187.76 181.242 189.239 181.326 191.112 181.43C197.047 181.762 208.087 182.387 209.986 178.848L210.034 178.759L210.204 178.855L210.156 178.944C208.847 181.382 203.631 181.921 198.408 181.903Z" fill="#D4E7F7"/>
<path d="M202.141 142.55L195.716 142.521V122.605L202.141 122.642V142.55Z" fill="#073B73"/>
<path d="M204.336 132.308C204.336 135.507 201.792 138.085 198.656 138.07C195.52 138.055 192.973 135.448 192.973 132.249C192.973 129.05 195.516 126.472 198.656 126.487C201.792 126.505 204.336 129.113 204.336 132.308Z" fill="white"/>
<path d="M203.227 132.304C203.227 134.879 201.181 136.955 198.656 136.943C196.131 136.932 194.081 134.831 194.081 132.256C194.081 129.682 196.128 127.606 198.656 127.617C201.181 127.632 203.227 129.73 203.227 132.304Z" fill="#073B73"/>
<path d="M194.026 129.689L193.295 129.165L194.163 127.912L194.889 128.437L194.026 129.689Z" fill="white"/>
<path d="M193.359 132.223L192.477 132.339L192.679 133.862L193.561 133.746L193.359 132.223Z" fill="white"/>
<path d="M203.249 129.708L203.983 129.202L203.134 127.927L202.4 128.433L203.249 129.708Z" fill="white"/>
<path d="M203.731 133.878L204.614 134.003L204.814 132.482L203.932 132.356L203.731 133.878Z" fill="white"/>
<path d="M198.667 132.53L196.435 131.344C196.332 131.289 196.291 131.156 196.343 131.052C196.398 130.945 196.524 130.904 196.628 130.96L198.641 132.027L201.477 130.188C201.577 130.125 201.707 130.155 201.77 130.254C201.833 130.354 201.804 130.491 201.707 130.554L198.667 132.53Z" fill="white"/>
<path d="M152.834 219.752C153.898 220.084 155.425 220.35 157.168 220.542C160.033 220.856 163.492 220.971 166.454 220.852C169.383 220.738 171.826 220.394 172.746 219.796C172.746 219.796 174.699 207.991 163.185 207.699C163.055 207.696 162.925 207.696 162.792 207.692C150.832 207.659 152.834 219.752 152.834 219.752Z" fill="#073B73"/>
<path d="M157.168 220.539C160.033 220.853 163.492 220.967 166.454 220.849C168.082 210.126 163.433 207.81 163.185 207.696C163.177 207.692 163.173 207.692 163.173 207.692H162.792C156.726 211.127 157.023 218.828 157.168 220.539Z" fill="white"/>
<path d="M171.504 220.243C171.504 220.243 168.245 225.75 153.13 224.476C146.657 223.929 152.834 219.752 152.834 219.752C156.908 220.749 164.753 221.222 171.504 220.243Z" fill="#073B73"/>
<path d="M195.027 210.998L201.993 211.016C205.956 211.027 209.266 214.278 209.24 218.319C209.229 219.933 208.725 221.359 207.509 222.108L189.147 222.071C187.986 221.521 187.542 219.604 187.849 217.31C188.335 213.672 191.427 210.99 195.027 210.998Z" fill="#073B73"/>
<path d="M196.079 211.19L196.083 211.127C196.198 209.76 197.355 208.689 198.723 208.693C200.091 208.697 201.247 209.772 201.362 211.138L201.366 211.201L202.263 211.205L202.252 211.064C202.1 209.229 200.547 207.784 198.719 207.781C196.891 207.777 195.338 209.21 195.186 211.046L195.175 211.186L196.079 211.19Z" fill="#073B73"/>
<path d="M197.881 222.086L196.161 222.082V215.216L197.881 215.22V222.086Z" fill="white"/>
<path d="M201.292 222.094L199.572 222.09V215.223L201.292 215.227V222.094Z" fill="white"/>
<path d="M226.25 257.324H101.298V270.994H226.25V257.324Z" fill="#0776ED"/>
<path d="M169.865 268.297H162.336V262.879L166.098 260.02L169.865 262.879V268.297Z" fill="white"/>
<path d="M125.285 261.686H115.957V266.635H125.285V261.686Z" fill="white"/>
<path d="M217.263 261.686H207.935V266.635H217.263V261.686Z" fill="white"/>
<path d="M248.312 280.863H119.182V290.932H248.312V280.863Z" fill="#0D0D0D"/>
<path d="M210.189 280.863H62.8092V290.932H210.189V280.863Z" fill="#4D4D4D"/>
<path d="M202.234 290.932H33.1693V301.001H202.234V290.932Z" fill="#4D4D4D"/>
<path d="M248.308 290.932H189.032V301.001H248.308V290.932Z" fill="#0D0D0D"/>
<path d="M117.006 185.785C113.777 195.215 115.764 215.22 111.16 228.406C104.012 248.869 107.564 257.889 104.301 273.672L111.827 274.241C118.819 243.258 134.475 199.385 136.407 189.408C138.338 179.428 120.039 178.091 117.006 185.785Z" fill="#014A91"/>
<path d="M128.87 197.32C129.181 200.995 134.204 222.13 131.316 232.222C126.753 248.16 129.133 275.995 129.133 275.995L135.194 275.954C141.096 250.114 149.149 212.438 148.507 188.636C147.618 178.63 126.983 175.132 128.87 197.32Z" fill="#014A91"/>
<path d="M132.425 201.136C141.305 201.136 148.504 195.688 148.504 188.969C148.504 182.249 141.305 176.802 132.425 176.802C123.545 176.802 116.346 182.249 116.346 188.969C116.346 195.688 123.545 201.136 132.425 201.136Z" fill="#014A91"/>
<path d="M137.578 288.908C136.94 288.554 135.602 288.232 135.602 288.232L134.297 282.5L141.07 251.225L128.158 250.01L128.191 280.35L127.242 283.855C127.242 283.855 131.646 290.397 132.659 290.397C133.667 290.397 137.571 290.474 138.186 290.474C138.194 290.086 138.134 289.215 137.578 288.908Z" fill="#A64B30"/>
<path d="M127.242 283.855L128.162 290.788H128.577L131.65 283.582L127.242 283.855Z" fill="#A64B30"/>
<path d="M112.68 288.908C112.064 288.554 110.745 288.232 110.745 288.232L109.796 282.5L118.426 249.814L106.466 248.496L103.823 280.35L102.533 283.582C102.533 283.582 106.659 290.397 107.668 290.397C108.676 290.397 112.572 290.474 113.191 290.474C113.221 290.086 113.217 289.215 112.68 288.908Z" fill="#A64B30"/>
<path d="M102.533 283.582L103.145 290.788H103.564L107.078 283.582H102.533Z" fill="#A64B30"/>
<path d="M123.223 173.618C119.19 178.423 117.251 183.266 116.51 187.868C116.51 187.868 121.748 191.865 131.168 191.902C135.914 191.92 145.986 190.712 148.455 187.957C148.151 185.419 147.288 179.65 144.607 172.137C142.171 165.318 126.782 164.665 123.223 173.618Z" fill="#014A91"/>
<path d="M128.821 190.598C129.771 187.436 129.956 183.676 129.956 183.676L120.272 182.837C119.935 185.275 119.635 187.551 119.575 189.504L123.705 192.603L128.821 190.598Z" fill="#0D64B8"/>
<path d="M143.054 191.2C143.832 187.99 143.818 184.226 143.818 184.226L134.104 183.905C133.897 186.357 133.719 188.647 133.767 190.601L138.056 193.479L143.054 191.2Z" fill="#0D64B8"/>
<path d="M125.93 143.504C125.93 143.504 117.577 137.376 100.987 164.749C98.8813 168.225 91.7076 184.869 91.7076 184.869L96.0118 187.672L108.88 169.507C108.884 169.503 134.664 148.006 125.93 143.504Z" fill="#F7A58E"/>
<path d="M88.3785 197.317C88.3599 197.313 88.3377 197.302 88.3229 197.287C88.2747 197.243 88.2747 197.169 88.3192 197.121C88.3637 197.073 92.9162 192.33 92.7086 189.619C92.6678 189.098 92.4491 188.681 92.0524 188.382C89.3387 186.328 82.3912 193.497 82.3207 193.571C82.2763 193.619 82.2021 193.619 82.1539 193.575C82.1057 193.531 82.1057 193.457 82.1502 193.409C82.4431 193.106 89.3127 186.014 92.1933 188.197C92.6456 188.537 92.8977 189.009 92.9422 189.604C93.1609 192.422 88.6788 197.091 88.4897 197.287C88.46 197.317 88.4156 197.328 88.3785 197.317Z" fill="#103558"/>
<path d="M86.0281 195.702C86.0021 195.695 85.9761 195.68 85.9576 195.654C85.9205 195.603 85.9317 195.529 85.9873 195.492C86.0466 195.451 91.804 191.407 91.8522 188.947C91.8596 188.5 91.6817 188.145 91.3035 187.857C88.575 185.792 80.0407 191.905 79.9555 191.968C79.9036 192.005 79.8294 191.994 79.7887 191.942C79.7516 191.891 79.7627 191.817 79.8146 191.776C80.1705 191.517 88.5787 185.497 91.4444 187.669C91.8819 188.001 92.0969 188.43 92.0895 188.95C92.0376 191.529 86.3617 195.514 86.1207 195.684C86.0948 195.702 86.0577 195.71 86.0281 195.702Z" fill="#103558"/>
<path d="M74.8616 188.075L50.5306 216.86L58.9684 222.426L79.2956 191L74.8616 188.075Z" fill="#F05B5B"/>
<path d="M80.3336 191.687L58.9276 222.4L72.7818 231.542L91.5779 199.104L80.3336 191.687Z" fill="#E54547"/>
<path d="M78.1352 190.236L58.2714 215.493L58.9684 222.426L80.3707 191.709L78.1352 190.236Z" fill="#F1696A"/>
<path d="M58.2714 215.493L50.4861 216.83L58.9276 222.4L58.2714 215.493Z" fill="#F05B5B"/>
<path d="M83.6961 194.476L63.3393 227.098L72.6817 231.494L88.6046 196.785L83.6961 194.476Z" fill="#0776ED"/>
<path d="M89.7502 197.324L72.6335 231.472L87.9744 238.689L102.199 203.182L89.7502 197.324Z" fill="#0776ED"/>
<path d="M87.3182 196.179L70.9578 224.59L72.6817 231.494L89.791 197.342L87.3182 196.179Z" fill="#073B73"/>
<path d="M70.9578 224.59L63.2911 227.076L72.6335 231.472L70.9578 224.59Z" fill="#065CB8"/>
<path d="M96.1972 187.381L94.6475 190.099C94.6475 190.099 95.9785 191.418 95.3964 192.289C93.7429 194.125 89.6315 193.479 88.7789 192.736C87.9262 191.994 87.1032 190.07 87.7556 188.622C88.4118 187.174 91.7076 184.869 91.7076 184.869C91.7076 184.869 95.7486 185.741 96.1972 187.381Z" fill="#F7A58E"/>
<path d="M136.095 150.182L124.28 150.544L126.731 130.764L136.184 130.472L136.095 150.182Z" fill="#F7A58E"/>
<path d="M142.605 122.971C143.588 130.886 141.919 136.837 136.136 137.435C130.353 138.033 122.293 131.218 121.659 125.142C121.025 119.063 125.199 113.651 130.983 113.049C136.766 112.447 141.853 116.906 142.605 122.971Z" fill="#F7A58E"/>
<path d="M140.715 124.828C140.941 125.996 140.173 127.122 139.002 127.348C137.83 127.573 136.7 126.808 136.473 125.641C136.247 124.474 137.015 123.347 138.186 123.122C139.358 122.897 140.488 123.661 140.715 124.828Z" fill="#F7A58E"/>
<path d="M145.916 156.572C145.864 158.792 145.69 175.11 145.69 175.11C145.69 175.11 131.962 174.257 122.83 174.098C118.656 156.705 113.521 148.442 123.768 142.658C138.26 137.232 145.975 148.83 145.916 156.572Z" fill="#0386C2"/>
<path d="M138.42 141.694C127.802 145.18 123.768 142.658 123.768 142.658C126.056 140.892 134.583 139.625 138.42 141.694Z" fill="#F7A58E"/>
<path d="M98.9814 202.107C98.9369 202.096 98.8998 202.059 98.8924 202.011C98.8776 201.93 97.4058 193.697 94.5771 190.103C94.5363 190.051 94.5474 189.977 94.5956 189.937C94.6475 189.896 94.7217 189.907 94.7625 189.955C97.6282 193.597 99.1111 201.886 99.126 201.967C99.1371 202.03 99.0926 202.092 99.0296 202.103C99.011 202.111 98.9962 202.107 98.9814 202.107Z" fill="#103558"/>
<path d="M91.9338 198.827C91.9152 198.823 91.8967 198.812 91.8782 198.798C91.83 198.753 87.244 194.358 87.4109 189.578C87.4146 189.512 87.4665 189.464 87.5332 189.464C87.5999 189.467 87.6481 189.519 87.6481 189.586C87.485 194.262 91.9968 198.583 92.0413 198.628C92.0895 198.672 92.0895 198.746 92.045 198.794C92.0153 198.823 91.9708 198.838 91.9338 198.827Z" fill="#103558"/>
<path d="M186.214 136.031C188.075 134.044 189.28 132.197 188.917 131.858C188.557 131.514 186.767 132.803 184.865 134.757C183.556 136.124 185.21 136.899 186.214 136.031Z" fill="#F7A58E"/>
<path d="M185.506 134.136L180.95 137.797C179.523 138.731 177.476 140.08 175.233 141.553C170.855 144.431 165.598 147.016 163.029 148.704C163.029 148.704 154.509 145.613 146.164 143.511C139.491 141.83 132.851 141.635 131.706 144.667C129.352 150.902 136.685 154.141 148.511 156.099C148.511 156.095 148.515 156.092 148.515 156.088C154.517 157.115 161.676 157.953 163.826 156.705C167.785 154.407 173.439 150.791 178.473 145.557C180.094 143.873 181.539 142.311 182.674 141.047C182.87 141.129 183.071 141.188 183.271 141.217C183.271 141.217 186.841 140.896 187.508 138.853C188.075 136.633 185.688 134.314 185.506 134.136Z" fill="#F7A58E"/>
<path d="M149.382 143.74C149.382 143.74 150.617 146.104 149.697 151.053C149.367 152.83 148.585 154.695 147.162 156.387C141.119 155.508 129.478 152.597 130.712 144.97C131.943 137.343 149.382 143.74 149.382 143.74Z" fill="#0386C2"/>
<path d="M125.681 141.228C125.681 141.228 117.084 142.576 110.578 151.094C114.411 157.329 120.117 160.269 120.117 160.269C120.117 160.269 129.93 153.347 130.905 147.589C131.88 141.83 125.681 141.228 125.681 141.228Z" fill="#0386C2"/>
<path d="M145.211 118.269C145.297 113.389 141.567 112.185 141.567 112.185C143.202 106.619 135.769 103.058 128.721 106.63C128.721 106.63 125.87 104.99 121.032 107.941C114.433 111.816 115.112 119.964 115.112 119.964C107.482 122.158 104.476 128.988 106.696 135.112C106.696 135.112 97.8025 138.488 99.3262 147.478C100.85 156.468 108.353 157.381 108.353 157.381C108.353 157.381 110.418 170.77 120.617 169.677C130.812 168.584 131.287 160.302 131.287 160.302C131.287 160.302 139.628 163.213 143.273 154.031C146.917 144.852 138.086 139.766 138.086 139.766C138.086 139.766 143.439 137.372 143.354 131.603C143.299 127.894 141.219 125.612 139.736 124.448C143.117 122.616 145.163 120.976 145.211 118.269Z" fill="#0D0D0D"/>
<path d="M253.735 155.475L255.089 159.734H259.474L255.927 162.367L257.283 166.622L253.735 163.992L250.191 166.622L251.544 162.367L247.997 159.734H252.382L253.735 155.475Z" fill="#DE7F04"/>
<path d="M269.458 155.475L270.811 159.734H275.193L271.649 162.367L273.002 166.622L269.458 163.992L265.91 166.622L267.263 162.367L263.719 159.734H268.101L269.458 155.475Z" fill="#DE7F04"/>
<path d="M285.177 155.475L286.534 159.734H290.916L287.368 162.367L288.725 166.622L285.177 163.992L281.633 166.622L282.986 162.367L279.438 159.734H283.824L285.177 155.475Z" fill="#DE7F04"/>
<path d="M300.9 155.475L302.253 159.734H306.635L303.091 162.367L304.444 166.622L300.9 163.992L297.352 166.622L298.705 162.367L295.161 159.734H299.543L300.9 155.475Z" fill="#DE7F04"/>
<path d="M277.596 124.23C282.729 124.23 286.89 120.076 286.89 114.952C286.89 109.827 282.729 105.673 277.596 105.673C272.463 105.673 268.301 109.827 268.301 114.952C268.301 120.076 272.463 124.23 277.596 124.23Z" fill="#029A65"/>
<path d="M283.772 110.098C281.436 110.822 278.519 113.448 276.869 116.326C276.391 115.158 274.919 114.25 274.204 114.113L272.472 116.44C273.844 116.81 275.494 118.198 275.939 119.805H278.037C278.637 118.006 280.235 113.674 284.332 110.855C284.198 110.545 283.813 110.139 283.772 110.098Z" fill="white"/>
<path d="M285.444 141.28H268.928C268.598 141.28 268.309 141.066 268.209 140.752L265.046 130.856C264.972 130.624 265.013 130.373 265.154 130.177C265.295 129.981 265.525 129.867 265.766 129.867H288.606C288.847 129.867 289.074 129.981 289.218 130.177C289.359 130.373 289.4 130.624 289.326 130.856L286.163 140.752C286.063 141.069 285.77 141.28 285.444 141.28ZM269.48 139.762H284.892L287.568 131.385H266.8L269.48 139.762Z" fill="#0D0D0D"/>
<path d="M284.087 145.472H270.003C269.584 145.472 269.247 145.132 269.247 144.711C269.247 144.29 269.584 143.95 270.003 143.95H283.535C284.454 143.928 284.873 143.286 284.94 142.632C284.999 142.045 284.777 141.45 284.387 141.28L289.144 126.328C289.244 126.014 289.537 125.8 289.863 125.8H294.783C295.202 125.8 295.539 126.14 295.539 126.561C295.539 126.982 295.202 127.322 294.783 127.322H290.416L286.056 141.199C287.212 143.112 285.633 145.472 284.087 145.472Z" fill="#0D0D0D"/>
<path d="M274.622 148.013C274.622 148.978 273.844 149.761 272.884 149.761C271.924 149.761 271.145 148.978 271.145 148.013C271.145 147.049 271.924 146.266 272.884 146.266C273.844 146.266 274.622 147.049 274.622 148.013Z" fill="#0D0D0D"/>
<path d="M283.375 148.013C283.375 148.978 282.597 149.761 281.637 149.761C280.676 149.761 279.898 148.978 279.898 148.013C279.898 147.049 280.676 146.266 281.637 146.266C282.597 146.266 283.375 147.049 283.375 148.013Z" fill="#0D0D0D"/>
<path d="M277.596 141.28C277.177 141.28 276.839 140.94 276.839 140.519V130.624C276.839 130.203 277.177 129.863 277.596 129.863C278.015 129.863 278.352 130.203 278.352 130.624V140.519C278.352 140.94 278.015 141.28 277.596 141.28Z" fill="#0D0D0D"/>
<path d="M273.38 141.28C273.036 141.28 272.724 141.04 272.643 140.689L270.407 130.794C270.315 130.384 270.57 129.977 270.978 129.885C271.386 129.793 271.79 130.048 271.883 130.457L274.118 140.353C274.211 140.763 273.955 141.169 273.547 141.261C273.492 141.276 273.436 141.28 273.38 141.28Z" fill="#0D0D0D"/>
<path d="M281.637 141.28C281.6 141.28 281.563 141.276 281.525 141.273C281.114 141.213 280.825 140.826 280.888 140.412L282.323 130.517C282.382 130.103 282.767 129.815 283.179 129.874C283.59 129.933 283.88 130.321 283.817 130.735L282.382 140.63C282.33 141.01 282.007 141.28 281.637 141.28Z" fill="#0D0D0D"/>
<path d="M287.023 136.397H267.364C266.945 136.397 266.607 136.057 266.607 135.636C266.607 135.215 266.945 134.875 267.364 134.875H287.023C287.442 134.875 287.78 135.215 287.78 135.636C287.78 136.057 287.442 136.397 287.023 136.397Z" fill="#0D0D0D"/>
<path d="M82.925 137.9C77.5346 137.86 66.9021 137.808 47.1792 137.808C44.1132 137.808 41.6256 135.333 41.6256 132.282V122.897C41.6256 119.846 44.1095 117.371 47.1755 117.371H82.3207C85.3867 117.371 87.8706 119.846 87.8706 122.897V133.013C87.8669 135.725 85.6499 137.922 82.925 137.9Z" fill="white"/>
<path d="M51.8689 127.632C51.8689 128.67 51.0237 129.508 49.9856 129.508C48.9439 129.508 48.1023 128.666 48.1023 127.632C48.1023 126.594 48.9476 125.755 49.9856 125.755C51.0237 125.755 51.8689 126.598 51.8689 127.632Z" fill="#B3B3B3"/>
<path d="M61.7081 127.632C61.7081 128.67 60.8628 129.508 59.8248 129.508C58.783 129.508 57.9415 128.666 57.9415 127.632C57.9415 126.594 58.7868 125.755 59.8248 125.755C60.8666 125.755 61.7081 126.598 61.7081 127.632Z" fill="#B3B3B3"/>
<path d="M71.551 127.632C71.551 128.67 70.7058 129.508 69.6677 129.508C68.626 129.508 67.7844 128.666 67.7844 127.632C67.7844 126.594 68.6297 125.755 69.6677 125.755C70.7058 125.755 71.551 126.598 71.551 127.632Z" fill="#B3B3B3"/>
<path d="M81.3902 127.632C81.3902 128.67 80.5449 129.508 79.5069 129.508C78.4651 129.508 77.6236 128.666 77.6236 127.632C77.6236 126.594 78.4688 125.755 79.5069 125.755C80.5486 125.755 81.3902 126.598 81.3902 127.632Z" fill="#B3B3B3"/>
<path d="M68.8447 134.221V142.754L57.9415 134.543L68.8447 134.221Z" fill="white"/>
</svg>
