<svg width="19" height="18" viewBox="0 0 19 18" fill="none" xmlns="http://www.w3.org/2000/svg">
<path d="M16.1826 8.98649V17.2027H2.8163V8.98649" stroke="white" stroke-width="1.5" stroke-linecap="round" stroke-linejoin="round"/>
<path d="M18.2297 4.73521H0.77027V9.02848H18.2297V4.73521Z" stroke="white" stroke-width="1.5" stroke-linecap="round" stroke-linejoin="round"/>
<path d="M9.5 16.5417V4.73521" stroke="white" stroke-width="1.5" stroke-linecap="round" stroke-linejoin="round"/>
<path d="M9.50009 4.87893H5.74085C5.18692 4.87893 4.65568 4.66249 4.264 4.27723C3.87231 3.89197 3.65226 3.36944 3.65226 2.8246C3.65226 2.27976 3.87231 1.75723 4.264 1.37197C4.65568 0.986708 5.18692 0.77027 5.74085 0.77027C8.66422 0.77027 9.50009 4.87893 9.50009 4.87893Z" stroke="white" stroke-width="1.5" stroke-linecap="round" stroke-linejoin="round"/>
<path d="M9.5 4.87893H13.2592C13.5335 4.87893 13.8051 4.82579 14.0585 4.72255C14.3119 4.61931 14.5422 4.46799 14.7361 4.27723C14.93 4.08647 15.0839 3.86 15.1888 3.61076C15.2938 3.36152 15.3478 3.09438 15.3478 2.8246C15.3478 2.55482 15.2938 2.28768 15.1888 2.03844C15.0839 1.7892 14.93 1.56273 14.7361 1.37197C14.5422 1.18121 14.3119 1.02989 14.0585 0.926647C13.8051 0.823407 13.5335 0.77027 13.2592 0.77027C10.3359 0.77027 9.5 4.87893 9.5 4.87893Z" stroke="white" stroke-width="1.5" stroke-linecap="round" stroke-linejoin="round"/>
</svg>
