<svg width="20" height="32" viewBox="0 0 20 32" fill="none" xmlns="http://www.w3.org/2000/svg">
<path d="M15.3125 1.5H4.6875C2.92709 1.5 1.5 2.7592 1.5 4.3125V26.8125C1.5 28.3658 2.92709 29.625 4.6875 29.625H15.3125C17.0729 29.625 18.5 28.3658 18.5 26.8125V4.3125C18.5 2.7592 17.0729 1.5 15.3125 1.5Z" stroke="white" stroke-width="3" stroke-linecap="round" stroke-linejoin="round"/>
<path d="M4.6875 1.5H6.28125C6.42215 1.5 6.55727 1.54939 6.6569 1.63729C6.75653 1.7252 6.8125 1.84443 6.8125 1.96875C6.8125 2.21739 6.92444 2.45585 7.1237 2.63166C7.32296 2.80748 7.59321 2.90625 7.875 2.90625H12.125C12.4068 2.90625 12.677 2.80748 12.8763 2.63166C13.0756 2.45585 13.1875 2.21739 13.1875 1.96875C13.1875 1.84443 13.2435 1.7252 13.3431 1.63729C13.4427 1.54939 13.5779 1.5 13.7188 1.5H15.3125" stroke="white" stroke-width="3" stroke-linecap="round" stroke-linejoin="round"/>
</svg>
