<svg width="344" height="316" viewBox="0 0 344 316" fill="none" xmlns="http://www.w3.org/2000/svg">
<path d="M170.254 316C257.915 316 328.979 245.261 328.979 158C328.979 70.739 257.915 0 170.254 0C82.5924 0 11.5288 70.739 11.5288 158C11.5288 245.261 82.5924 316 170.254 316Z" fill="#161D2E"/>
<path d="M64.7675 17.7327C64.7911 11.7721 59.955 6.92108 53.9659 6.89761C47.9767 6.87413 43.1025 11.6871 43.0789 17.6477C43.0553 23.6082 47.8914 28.4592 53.8805 28.4827C59.8696 28.5062 64.7439 23.6932 64.7675 17.7327Z" fill="#14243D"/>
<path d="M342.863 81.0397C344.976 69.3481 323.071 63.4704 322.246 69.6635L282.323 62.3197C277.692 61.5179 273.197 64.9868 272.274 70.0727L240.543 244.824C239.586 250.091 242.622 255.083 247.326 255.965L290.865 264.362C291.128 265.322 291.775 266.268 292.901 267.163C305.117 269.351 309.929 266.419 312.082 262.319C312.743 261.235 342.957 83.3345 342.863 81.0397Z" fill="#4D4D4D"/>
<path d="M292.169 267.063L238.538 256.941C233.661 256.035 230.514 250.906 231.501 245.484L264.28 65.7953C265.234 60.5685 269.888 57.019 274.676 57.8611L326.923 66.9628C331.752 67.8116 334.93 72.76 334.02 78.017L302.774 258.837C301.838 264.292 297.086 267.975 292.169 267.063Z" fill="#4D4D4D"/>
<path d="M293.487 265.949C293.153 265.936 292.816 265.895 292.486 265.835L238.895 255.629C234.706 254.848 231.98 250.356 232.839 245.622L265.561 66.1274C266.393 61.5649 270.44 58.4448 274.558 59.1628L326.815 68.1773C326.937 68.1974 327.054 68.2209 327.176 68.2477C329.09 68.6838 330.734 69.8815 331.813 71.6193C332.915 73.3974 333.312 75.5646 332.942 77.7218L301.646 258.723C300.901 263.017 297.406 266.123 293.487 265.949Z" fill="#0D0D0D"/>
<path d="M330.087 78.1546L310.363 192.055L298.852 258.518L235.353 246.602L235.876 243.74L268.034 67.0433L330.087 78.1546Z" fill="#151B29"/>
<path d="M253.119 249.936L298.852 258.518L308.486 202.885L253.119 249.936Z" fill="#0776ED"/>
<path d="M288.772 182.904C290.996 170.062 286.64 158.595 279.043 157.291C271.446 155.987 263.485 165.34 261.261 178.182C259.037 191.024 263.393 202.492 270.99 203.796C278.587 205.1 286.548 195.746 288.772 182.904Z" fill="#0776ED" fill-opacity="0.3"/>
<path d="M292.933 183.618C295.83 166.89 290.157 151.953 280.261 150.255C270.366 148.557 259.996 160.74 257.099 177.468C254.203 194.196 259.876 209.133 269.771 210.831C279.666 212.529 290.036 200.346 292.933 183.618Z" stroke="#0776ED" stroke-opacity="0.5" stroke-width="3.0123" stroke-miterlimit="10"/>
<path d="M222.436 122.677C222.436 122.677 225.375 114.246 233.153 114.028C240.93 113.81 243.053 120.795 243.053 120.795C248.135 115.675 258.986 113.199 262.521 122.955C262.521 122.955 272.793 119.033 280.216 127.8C287.64 136.563 283.091 147.204 275.276 149.274C272.978 156.151 262.029 161.382 256.381 155.725C250.733 150.069 250.514 147.278 250.514 147.278C250.514 147.278 245.877 153.018 239.114 150.099C232.351 147.181 232.145 137.965 232.145 137.965C232.145 137.965 220.664 133.879 222.436 122.677Z" fill="#0D0D0D"/>
<path d="M240.186 161.704C238.585 164.492 224.131 182.702 217.803 183.755C214.706 184.272 206.605 184.631 199.144 184.869C196.856 184.939 194.631 184.996 192.63 185.05C187.811 185.171 184.279 185.221 184.279 185.221V179.555C187.11 179.26 189.914 178.813 192.63 178.327C193.981 178.082 195.309 177.831 196.606 177.576C203.626 176.207 209.803 174.878 214.005 175.566L227.124 154.954C232.401 146.557 244.401 154.357 240.186 161.704Z" fill="#E6765C"/>
<path d="M227.929 150.787L223.923 158.473L239.131 165.26C239.131 165.26 246.895 155.675 237.87 149.673C231.474 145.413 227.929 150.787 227.929 150.787Z" fill="#0386C2"/>
<path d="M268.095 193.582C265.51 190.475 259.471 181.729 259.471 181.729C259.471 181.729 236.964 178.934 231.269 173.922C228.468 170.457 227.818 165.693 227.579 159.104C227.542 158.235 227.518 157.336 227.498 156.4C227.195 143.759 233.651 141.682 239.828 142.772C244.614 143.618 249.23 146.359 250.396 147.556C251.893 149.096 268.472 165.257 268.472 165.257L276.887 169.048C281.726 176.539 276.543 197.074 268.095 193.582Z" fill="#0386C2"/>
<path d="M234.905 157.98L240.57 183.819C232.799 187.392 229.816 193.977 220.172 201.257C217.836 203.556 218.982 207.172 222.945 205.116C222.945 205.116 243.316 194.175 248.371 189.136C253.426 184.097 250.528 160.241 250.16 156.678C249.193 147.291 234.214 146.959 234.905 157.98Z" fill="#FFA794"/>
<path d="M228.981 153.759C228.411 152.891 227.636 151.653 226.797 150.294C224.519 146.58 221.813 142.007 221.813 142.007L228.462 136.106L229.584 135.11L236.624 143.755C239.791 146.738 231.107 157 228.981 153.759Z" fill="#FFA794"/>
<path d="M227.201 150.948C224.923 147.234 221.813 142.007 221.813 142.007L229.193 137.777C229.591 139.196 230.713 144.497 227.201 150.948Z" fill="#FA876E"/>
<path d="M235.144 163.727L251.839 160.664C251.839 160.664 251.64 145.08 240.324 147.637C231.323 149.67 235.144 163.727 235.144 163.727Z" fill="#0386C2"/>
<path d="M233.375 158.399C229.436 161.841 228.263 158.523 228.148 155.642C227.828 147.556 231.582 143.396 235.808 142.974C239.795 142.578 238.747 153.706 233.375 158.399Z" fill="#FFA794"/>
<path d="M216.529 209.128C216.529 209.128 212.158 214.174 211.74 213.818C211.319 213.459 213.038 210.215 215.285 207.373C217.749 204.267 218.783 206.884 216.529 209.128Z" fill="#DB8472"/>
<path d="M219.7 201.502C219.7 201.502 214.965 201.221 212.151 204.042C212.151 204.042 211.653 205.535 213.442 205.126C215.232 204.716 216.162 204.31 216.162 204.31C216.162 204.31 212.509 213.217 212.212 214.133C211.916 215.049 213.995 213.409 215.639 211.691C216.532 210.95 222.265 208.078 223.471 204.401C224.347 201.73 219.7 201.502 219.7 201.502Z" fill="#FFA794"/>
<path d="M215.643 211.755C215.629 211.755 215.612 211.748 215.602 211.738C215.575 211.715 215.572 211.674 215.596 211.647L218.939 207.843C218.962 207.816 219.003 207.813 219.029 207.836C219.056 207.86 219.06 207.9 219.036 207.927L215.693 211.731C215.676 211.745 215.66 211.755 215.643 211.755Z" fill="#87584C"/>
<path d="M218.955 148.473C226.136 147.975 231.456 140.387 230.837 131.524C230.217 122.661 223.893 115.88 216.712 116.377C209.53 116.874 204.21 124.462 204.83 133.325C205.449 142.188 211.773 148.97 218.955 148.473Z" fill="#FFA88F"/>
<path d="M212.65 123.042C212.67 122.717 215.966 132.5 231.208 130.487C235.451 120.962 223.653 106.436 212.36 117.775C209.004 115.923 200.441 119.09 202.372 127.481C196.684 132.101 200.468 137.891 204.343 135.063C204.34 135.063 212.158 131.352 212.65 123.042Z" fill="#0D0D0D"/>
<path d="M228.327 132.255C229.102 133.503 230.75 133.892 232.003 133.12C233.257 132.349 233.648 130.712 232.873 129.46C232.098 128.212 230.45 127.823 229.196 128.595C227.943 129.366 227.552 131.007 228.327 132.255Z" fill="#FFA88F"/>
<path d="M304.845 95.1762C305.88 89.2077 302.433 83.6334 297.148 82.7257C291.862 81.8179 286.739 85.9204 285.705 91.8889C284.671 97.8573 288.117 103.432 293.402 104.339C298.688 105.247 303.811 101.145 304.845 95.1762Z" fill="#029A65"/>
<path d="M302.619 88.9606C300.068 89.39 296.533 91.9363 294.255 94.9959C293.996 93.5533 292.668 92.2349 291.957 91.9464L289.706 94.3518C291.041 95.0261 292.463 96.9317 292.597 98.8876L294.758 99.2599C295.738 97.2705 298.259 92.5066 303.047 89.9469C302.97 89.5544 302.653 89.0142 302.619 88.9606Z" fill="white"/>
<path d="M271.933 107.825L272.27 110.918L275.013 111.391L272.479 112.83L272.816 115.923L270.912 113.719L268.375 115.162L269.733 112.361L267.829 110.156L270.572 110.626L271.933 107.825Z" fill="#FDDA6D"/>
<path d="M281.777 109.516L282.114 112.609L284.857 113.079L282.323 114.521L282.66 117.611L280.756 115.41L278.218 116.849L279.576 114.048L277.672 111.847L280.419 112.317L281.777 109.516Z" fill="#FDDA6D"/>
<path d="M291.62 111.203L291.957 114.296L294.704 114.769L292.166 116.209L292.503 119.302L290.599 117.098L288.062 118.54L289.423 115.739L287.516 113.535L290.262 114.005L291.62 111.203Z" fill="#FDDA6D"/>
<path d="M301.464 112.894L301.801 115.987L304.547 116.457L302.01 117.899L302.347 120.989L300.443 118.789L297.908 120.228L299.266 117.426L297.359 115.226L300.106 115.695L301.464 112.894Z" fill="#FDDA6D"/>
<path d="M311.307 114.582L311.644 117.675L314.39 118.148L311.853 119.587L312.193 122.68L310.286 120.476L307.752 121.919L309.11 119.117L307.206 116.913L309.949 117.386L311.307 114.582Z" fill="#FDDA6D"/>
<path d="M199.144 184.866C196.856 184.936 194.631 184.993 192.63 185.047V178.324C193.981 178.079 194.716 177.938 196.01 177.686L199.144 184.866Z" fill="#994E3D"/>
<path d="M0.0780027 78.4699C-1.47551 66.6911 20.6848 61.8534 21.2139 68.08L61.4402 62.6283C66.1008 62.0479 70.4277 65.7249 71.1084 70.8477L94.4752 246.9C95.1795 252.208 91.9107 257.049 87.1659 257.71L43.2765 264.043C42.9665 264.99 42.2757 265.905 41.1097 266.744C28.8029 268.354 22.5956 264.147 21.7497 257.75C21.1499 256.636 -0.12419 80.7579 0.0780027 78.4699Z" fill="#4D4D4D"/>
<path d="M41.8511 266.677L95.9041 259.098C100.817 258.424 104.207 253.445 103.48 247.987L79.2939 66.9527C78.5896 61.689 74.111 57.9215 69.2854 58.5354L16.6646 65.1612C11.8019 65.7819 8.39156 70.5726 9.04868 75.8666L31.6438 257.958C32.3278 263.45 36.8974 267.358 41.8511 266.677Z" fill="#4D4D4D"/>
<path d="M40.5874 265.503C40.921 265.503 41.258 265.479 41.5917 265.436L95.6075 257.77C99.83 257.186 102.769 252.828 102.132 248.061L77.9999 67.2245C77.3866 62.6283 73.491 59.3205 69.346 59.8438L16.7185 66.3824C16.5972 66.3992 16.4759 66.416 16.358 66.4361C14.4236 66.7816 12.7252 67.8988 11.566 69.5863C10.3798 71.3107 9.87768 73.4544 10.1473 75.6284L32.7861 257.901C33.322 262.225 36.6649 265.493 40.5874 265.503Z" fill="#0D0D0D"/>
<path d="M12.9779 76.192L35.5865 257.824L99.5806 248.92L75.4859 68.0196L12.9779 76.192Z" fill="#151B29"/>
<path d="M60.3855 98.1495L53.3256 99.0721L27.0674 74.3502L34.1307 73.4276L60.3855 98.1495Z" fill="#F13005"/>
<path d="M53.3256 99.0721L46.269 99.9946L20.0075 75.2728L27.0674 74.3502L53.3256 99.0721Z" fill="#F1E3E0"/>
<path d="M46.269 99.9946L39.2091 100.917L12.9509 76.1953L20.0075 75.2728L46.269 99.9946Z" fill="#F13005"/>
<path d="M67.4419 97.2269L60.3854 98.1495L34.1306 73.4276L41.1838 72.505L67.4419 97.2269Z" fill="#F1E3E0"/>
<path d="M81.5584 95.3817L74.5019 96.3043L48.2471 71.5824L55.3003 70.6598L81.5584 95.3817Z" fill="#F1E3E0"/>
<path d="M102.041 92.7046L95.6749 93.5366L69.4168 68.8147L75.7791 67.9827L102.041 92.7046Z" fill="#F13005"/>
<path d="M95.6749 93.5366L88.6183 94.4591L62.3636 69.7339L69.4167 68.8147L95.6749 93.5366Z" fill="#F1E3E0"/>
<path d="M74.5018 96.3043L67.4419 97.2269L41.1838 72.505L48.2471 71.5824L74.5018 96.3043Z" fill="#F13005"/>
<path d="M88.6183 94.4591L81.5584 95.3817L55.3003 70.6598L62.3635 69.7339L88.6183 94.4591Z" fill="#F13005"/>
<path d="M46.2689 99.9946L46.8317 104.259C47.4282 108.781 40.3683 109.707 39.7718 105.181L39.209 100.917L46.2689 99.9946Z" fill="#D62B04"/>
<path d="M53.3256 99.0721L53.8884 103.336C54.4848 107.858 47.4283 108.781 46.8318 104.259L46.269 99.9946L53.3256 99.0721Z" fill="#F1C5BC"/>
<path d="M60.3854 98.1495L60.9482 102.413C61.5447 106.936 54.4848 107.862 53.8883 103.336L53.3255 99.0721L60.3854 98.1495Z" fill="#D62B04"/>
<path d="M67.4419 97.2269L68.0047 101.491C68.6012 106.013 61.5446 106.936 60.9482 102.413L60.3854 98.1495L67.4419 97.2269Z" fill="#F1C5BC"/>
<path d="M74.5019 96.3043L75.0647 100.568C75.6611 105.091 68.6012 106.017 68.0048 101.491L67.442 97.2269L74.5019 96.3043Z" fill="#D62B04"/>
<path d="M81.5584 95.3817L82.1212 99.6457C82.7177 104.168 75.6611 105.091 75.0647 100.568L74.5019 96.3043L81.5584 95.3817Z" fill="#F1C5BC"/>
<path d="M88.6183 94.4591L89.181 98.7232C89.7775 103.245 82.7176 104.171 82.1211 99.6457L81.5584 95.3817L88.6183 94.4591Z" fill="#D62B04"/>
<path d="M95.6749 93.5366L96.2377 97.8006C96.8341 102.323 89.7776 103.245 89.1811 98.7232L88.6184 94.4591L95.6749 93.5366Z" fill="#F1C5BC"/>
<path d="M102.041 92.7046L102.603 96.9686C103.2 101.491 96.8341 102.323 96.2376 97.8006L95.6748 93.5366L102.041 92.7046Z" fill="#D62B04"/>
<path d="M39.2091 100.917H39.7718L16.432 103.953L12.9509 76.1953L39.2091 100.917Z" fill="#F1E3E0"/>
<path d="M11.822 137.519C12.8229 137.401 13.5474 136.492 13.4294 135.496L8.1421 90.2153C8.02415 89.2189 7.11091 88.4976 6.11006 88.615C5.1092 88.7324 4.38468 89.6416 4.50262 90.638L9.78997 135.918C9.90792 136.911 10.8212 137.633 11.822 137.519Z" fill="#0D0D0D"/>
<path d="M62.5005 222.041C70.1431 221.037 74.9506 209.751 73.2385 196.832C71.5265 183.913 63.943 174.254 56.3005 175.258C48.658 176.261 43.8504 187.548 45.5625 200.467C47.2746 213.386 54.858 223.045 62.5005 222.041Z" fill="#03E4E6"/>
<path d="M63.4384 229.119C73.3929 227.811 79.6547 213.11 77.4246 196.282C75.1945 179.454 65.3169 166.872 55.3625 168.18C45.408 169.487 39.1462 184.189 41.3763 201.017C43.6064 217.845 53.484 230.426 63.4384 229.119Z" stroke="#03E4E6" stroke-width="3.0123" stroke-miterlimit="10"/>
<path d="M109.124 136.076L121.208 147.603L121.256 154.528C121.256 154.528 114.961 150.606 110.354 144.004C105.747 137.401 106.9 137.629 106.9 137.629L109.124 136.076Z" fill="#0D0D0D"/>
<path d="M116.615 150.733C121.842 157.138 133.529 168.913 133.529 168.913L158.594 174.305L159.817 181.239C159.817 181.239 138.456 181.672 131.231 180.561C124.39 179.508 107.018 170.134 101.249 165.401C90.4246 156.51 103.827 135.056 116.615 150.733Z" fill="#014C4D"/>
<path d="M60.4192 181.736L57.0426 183.789C50.3163 186.892 50.3971 218.78 64.8169 216.639C74.7985 213.902 79.9443 209.155 83.2164 204.79C83.732 202.002 67.5094 181.316 60.4192 181.736Z" fill="#0D0D0D"/>
<path d="M62.9129 179.676C80.8912 160.493 87.4558 146.818 97.7373 140.229C105.37 135.341 115.574 140.115 119.702 148.271C122.24 153.286 121.775 161.66 118.115 168.44C108.834 185.617 93.4744 200.838 86.5627 202.542C83.1019 202.546 65.2381 191.132 62.9129 179.676Z" fill="#027273"/>
<path d="M106.789 138.904L118.078 126.887L125.812 133.174L119.436 149.542L106.789 138.904Z" fill="#FFA794"/>
<path d="M138.466 130.806C138.466 130.806 138.132 131.587 137.563 132.728C136.299 135.284 133.856 139.615 131.332 140.934C130.216 141.524 127.254 141.128 123.921 139.79C116.4 136.76 107.031 128.893 113.138 116.598C119.294 104.198 132.204 106.704 135.824 112.216C137.856 115.32 139.783 117.752 138.991 126.709C142.25 130.675 140.09 130.876 138.466 130.806Z" fill="#FFA794"/>
<path d="M136.36 103.648C114.863 92.3959 96.2074 118.896 113.771 132.869C113.771 132.869 115.331 131.409 118.209 129.259C113.357 126.87 116.925 119.302 121.812 121.295C123.207 121.758 124.407 123.177 124.626 124.623C124.622 124.582 124.636 124.703 124.649 124.884C125.091 124.827 125.546 124.827 125.721 124.75C125.896 115.551 126.735 112.22 126.735 112.22C126.735 112.22 133.846 114.773 137.175 115.471C146.344 116.903 150.432 100.937 136.36 103.648Z" fill="#994803"/>
<path d="M130.226 134.654C130.226 134.65 130.226 134.65 130.23 134.647C125.943 134.305 125.744 123.932 125.744 123.932L124.629 124.623C125.097 130.158 124.454 135.902 122.86 139.334C122.86 139.334 124.919 141.165 129.064 141.212C129.074 141.226 129.081 141.239 129.087 141.253C129.562 141.3 129.886 141.283 130.246 141.239C128.386 137.129 132.72 133.406 136.764 134.258C137.064 133.708 137.333 133.188 137.563 132.725C134.853 131.882 132.033 132.892 130.226 134.654Z" fill="#994803"/>
<path d="M89.2047 147.828C89.2047 147.828 100.009 139.545 107.8 151.398C116.865 165.186 87.1592 195.611 80.5913 199.05L83.8433 201.039C91.6108 195.44 120.585 166.562 110.293 150.331C103.544 139.679 93.7204 143.695 93.7204 143.695L89.2047 147.828Z" fill="#0D0D0D"/>
<path d="M63.6206 179.038L60.4158 181.736C60.4158 181.736 63.3948 190.901 69.9829 196.467C76.571 202.032 83.2131 204.79 83.2131 204.79L86.5627 202.542C86.5627 202.542 76.3823 197.329 71.678 191.767C66.977 186.204 63.6206 179.038 63.6206 179.038Z" fill="#DB6704"/>
<path d="M79.9443 198.862L83.4221 196.52L87.5198 198.919L84.0286 201.402L79.9443 198.862Z" stroke="#DDC80A" stroke-width="2.326" stroke-miterlimit="10" stroke-linejoin="round"/>
<path d="M195.211 151.32H149.802V196.52H195.211V151.32Z" fill="#DB6704"/>
<path d="M175.679 151.418H169.33V162.187H175.679V151.418Z" fill="#FF851C"/>
<path d="M105.266 138.773L109.124 136.076C109.38 138.512 114.917 146.003 121.209 147.603L117.903 154.243C110.839 148.932 106.122 143.598 105.266 138.773Z" fill="#025859"/>
<path d="M149.138 180.025L157.785 181.504V186.147L148.845 187.113L149.138 180.025Z" fill="#FFA794"/>
<path d="M155.059 182.004C155.878 181.323 158.483 179.24 161.105 176.442C162.446 176.442 162.26 178.602 160.892 179.716C159.453 180.887 159.679 182.081 161.792 182.081C163.015 182.081 170.288 181.658 170.719 182.346C171.133 183.007 163.999 184.282 163.999 184.282C163.999 184.282 170.068 185.144 170.092 185.641C170.136 186.583 163.848 186.13 163.848 186.13C163.848 186.13 169.634 187.415 169.266 188.016C168.737 188.885 163.204 188.09 163.204 188.09C163.204 188.09 167.295 189.831 166.237 190.203C165.175 190.576 156.036 188.64 154.739 187.751C152.737 186.382 154.237 182.685 155.059 182.004Z" fill="#FFA794"/>
<path d="M88.6487 165.914C86.4987 162.546 85.1541 155.504 91.8332 150.049C99.0313 144.175 105.266 149.623 108.858 156.457C111.614 161.694 124.514 175.895 124.514 175.895L155.224 180.743L155.517 188.472C155.517 188.472 128.016 192.83 117.094 187.885C107.449 183.514 93.5654 173.61 88.6487 165.914Z" fill="#027273"/>
<path d="M193.186 185.597H181.627V194.897H193.186V185.597Z" fill="#FFCFA6"/>
<path d="M152.751 180.353L155.231 180.746L155.521 188.928L153.317 190.589L152.751 180.353Z" fill="#03B1B3"/>
<path d="M173.607 152.448L172.394 151.552C172.296 151.535 172.04 151.505 171.774 151.475C168.151 151.045 163.217 150.304 162.173 148.804C161.977 148.523 161.917 148.221 161.991 147.912C162.126 147.362 162.446 146.993 162.941 146.818C165.462 145.912 172.05 150.676 172.623 151.096C172.667 151.116 172.683 151.139 172.71 151.176L173.607 152.448ZM163.699 147.204C163.48 147.204 163.285 147.231 163.113 147.295C162.783 147.412 162.577 147.657 162.483 148.036C162.442 148.204 162.476 148.358 162.587 148.519C163.261 149.489 166.267 150.301 171.528 150.938C169.428 149.492 165.667 147.204 163.699 147.204Z" fill="black"/>
<path d="M172.761 151.32H172.252V196.52H172.761V151.32Z" fill="white"/>
<path d="M172.505 151.32C172.505 151.32 184.417 144.436 186.086 147.878C187.757 151.32 172.505 151.32 172.505 151.32Z" stroke="black" stroke-width="1.5062" stroke-miterlimit="10"/>
<path d="M172.505 151.32C172.505 151.32 185.23 159.865 182.17 163.24C179.106 166.615 172.505 151.32 172.505 151.32Z" stroke="white" stroke-width="1.5062" stroke-miterlimit="10"/>
<path d="M195.083 167.511H149.802C149.66 167.511 149.549 167.397 149.549 167.259C149.549 167.118 149.664 167.008 149.802 167.008H195.083C195.225 167.008 195.336 167.122 195.336 167.259C195.339 167.4 195.225 167.511 195.083 167.511Z" fill="white"/>
<path d="M55.9507 112.575C56.2607 114.904 54.8386 117.01 52.7762 117.282C50.7139 117.554 48.793 115.887 48.483 113.558C48.173 111.23 49.5951 109.123 51.6574 108.851C53.7198 108.58 55.6407 110.247 55.9507 112.575Z" fill="#029A65"/>
<path d="M54.4039 110.536C53.5109 110.988 52.4965 112.334 52.0079 113.729C51.7451 113.226 51.1014 112.891 50.8049 112.864L50.2488 114.011C50.8217 114.109 51.5698 114.652 51.8462 115.357L52.6886 115.246C52.82 114.397 53.2008 112.344 54.6802 110.848C54.6027 110.713 54.4241 110.552 54.4039 110.536Z" fill="white"/>
<path d="M33.7263 144.336L34.9698 147.187L37.7331 146.825L35.7415 148.952L36.9883 151.804L34.5115 150.264L32.5199 152.391L32.9782 149.314L30.5013 147.774L33.2646 147.412L33.7263 144.336Z" fill="#FDDA6D"/>
<path d="M43.6269 143.034L44.8738 145.886L47.6371 145.523L45.6455 147.65L46.8924 150.505L44.4155 148.965L42.4239 151.089L42.8822 148.013L40.4053 146.473L43.1686 146.11L43.6269 143.034Z" fill="#FDDA6D"/>
<path d="M53.5311 141.732L54.778 144.587L57.5379 144.225L55.5463 146.349L56.7932 149.204L54.3163 147.664L52.3247 149.791L52.7864 146.714L50.3095 145.174L53.0728 144.812L53.5311 141.732Z" fill="#FDDA6D"/>
<path d="M63.4351 140.434L64.682 143.286L67.4419 142.923L65.4503 145.05L66.6972 147.902L64.2203 146.362L62.2287 148.489L62.6904 145.413L60.2135 143.873L62.9735 143.51L63.4351 140.434Z" fill="#FDDA6D"/>
<path d="M73.3393 139.132L74.5862 141.987L77.3461 141.625L75.3545 143.749L76.6013 146.604L74.1245 145.064L72.1329 147.191L72.5945 144.111L70.1177 142.574L72.8776 142.209L73.3393 139.132Z" fill="#FDDA6D"/>
<path d="M59.0746 129.121L48.6717 130.487C48.4662 130.514 48.264 130.393 48.1696 130.188L45.2884 123.754C45.221 123.603 45.2243 123.428 45.2951 123.284C45.3659 123.14 45.5007 123.042 45.6523 123.022L60.0417 121.134C60.1934 121.113 60.3484 121.174 60.4562 121.295C60.5641 121.415 60.6112 121.583 60.5843 121.744L59.479 128.702C59.4453 128.924 59.2801 129.095 59.0746 129.121ZM48.8807 129.413L58.5893 128.138L59.5261 122.247L46.4442 123.965L48.8807 129.413Z" fill="#0D0D0D"/>
<path d="M58.5927 132.067L49.7198 133.231C49.457 133.265 49.2143 133.063 49.1739 132.778C49.1368 132.493 49.3188 132.235 49.5817 132.201L58.1075 131.081C58.6871 130.99 58.8893 130.52 58.8724 130.071C58.8589 129.668 58.6635 129.282 58.4006 129.202L60.0553 118.688C60.089 118.466 60.2541 118.299 60.463 118.272L63.5599 117.866C63.8228 117.832 64.0654 118.034 64.1058 118.319C64.1429 118.604 63.9609 118.862 63.6981 118.896L60.9483 119.258L59.4487 129.014C60.3518 130.212 59.57 131.94 58.5927 132.067Z" fill="#0D0D0D"/>
<path d="M52.8605 134.573C52.9481 135.227 52.5269 135.818 51.9203 135.898C51.3137 135.979 50.7543 135.512 50.6667 134.862C50.5791 134.207 51.0003 133.617 51.6069 133.536C52.2135 133.456 52.7729 133.919 52.8605 134.573Z" fill="#0D0D0D"/>
<path d="M58.3736 133.848C58.4613 134.503 58.04 135.093 57.4334 135.174C56.8269 135.254 56.2675 134.788 56.1799 134.137C56.0922 133.483 56.5135 132.892 57.12 132.812C57.7266 132.731 58.2894 133.198 58.3736 133.848Z" fill="#0D0D0D"/>
<path d="M54.1309 129.769C53.8681 129.802 53.6254 129.601 53.585 129.316L52.6987 122.62C52.6616 122.335 52.8436 122.076 53.1065 122.043C53.3693 122.009 53.612 122.21 53.6524 122.496L54.5387 129.192C54.5757 129.477 54.3938 129.735 54.1309 129.769Z" fill="#0D0D0D"/>
<path d="M51.4755 130.118C51.2564 130.148 51.0408 130.01 50.9599 129.779L48.665 123.267C48.5706 122.999 48.6953 122.7 48.9413 122.606C49.1907 122.509 49.467 122.65 49.5614 122.918L51.8563 129.43C51.9506 129.698 51.8259 129.997 51.5799 130.091C51.5429 130.104 51.5092 130.114 51.4755 130.118Z" fill="#0D0D0D"/>
<path d="M56.6752 129.437C56.6516 129.44 56.628 129.44 56.6044 129.44C56.3382 129.433 56.1225 129.195 56.1259 128.91L56.1427 122.093C56.1427 121.808 56.3584 121.58 56.6246 121.586C56.8908 121.593 57.1065 121.831 57.1031 122.117L57.0863 128.934C57.0863 129.195 56.9077 129.403 56.6752 129.437Z" fill="#0D0D0D"/>
<path d="M59.6306 125.683L47.2463 127.31C46.9834 127.343 46.7408 127.142 46.7004 126.857C46.6633 126.572 46.8453 126.313 47.1081 126.28L59.4924 124.653C59.7553 124.619 59.9979 124.821 60.0384 125.106C60.0788 125.391 59.8935 125.649 59.6306 125.683Z" fill="#0D0D0D"/>
<path d="M226.891 97.8106C221.992 97.7737 212.327 97.7268 194.399 97.7268C191.612 97.7268 189.351 95.479 189.351 92.7079V84.1832C189.351 81.4121 191.609 79.1644 194.396 79.1644H226.342C229.129 79.1644 231.387 81.4121 231.387 84.1832V93.3722C231.383 95.838 229.368 97.8308 226.891 97.8106Z" fill="#F13005"/>
<path d="M198.662 88.4875C198.662 89.4302 197.894 90.1918 196.95 90.1918C196.003 90.1918 195.238 89.4269 195.238 88.4875C195.238 87.5448 196.006 86.7832 196.95 86.7832C197.894 86.7832 198.662 87.5448 198.662 88.4875Z" fill="white"/>
<path d="M207.606 88.4875C207.606 89.4302 206.837 90.1918 205.894 90.1918C204.95 90.1918 204.182 89.4269 204.182 88.4875C204.182 87.5448 204.95 86.7832 205.894 86.7832C206.837 86.7832 207.606 87.5448 207.606 88.4875Z" fill="white"/>
<path d="M216.553 88.4875C216.553 89.4302 215.784 90.1918 214.841 90.1918C213.897 90.1918 213.129 89.4269 213.129 88.4875C213.129 87.5448 213.897 86.7832 214.841 86.7832C215.784 86.7832 216.553 87.5448 216.553 88.4875Z" fill="white"/>
<path d="M225.496 88.4875C225.496 89.4302 224.728 90.1918 223.784 90.1918C222.837 90.1918 222.072 89.4269 222.072 88.4875C222.072 87.5448 222.841 86.7832 223.784 86.7832C224.731 86.7832 225.496 87.5448 225.496 88.4875Z" fill="white"/>
<path d="M214.093 94.4692V102.219L204.182 94.7611L214.093 94.4692Z" fill="#F13005"/>
<path d="M328.874 136.006C327.88 135.835 327.21 134.888 327.381 133.899L335.162 88.9773C335.334 87.9876 336.285 87.32 337.279 87.4911C338.273 87.6622 338.943 88.6083 338.772 89.598L330.991 134.519C330.822 135.509 329.868 136.177 328.874 136.006Z" fill="#0D0D0D"/>
<path d="M198.719 226.617H149.657V250.325H198.719V226.617Z" fill="#FFA305"/>
<path d="M191.663 236.755H157.509V240.533H191.663V236.755Z" fill="#0E0E0E"/>
<path d="M192.734 262.963L168.417 263.191C162.159 263.191 168.286 238.469 162.159 238.469H186.476C192.731 238.469 187.757 262.963 192.734 262.963Z" fill="white"/>
<path d="M176.464 252.838C175.47 252.838 174.031 254.234 173.442 257.559C172.474 263.02 168.414 263.188 168.414 263.188C168.414 263.188 192.222 262.94 196.529 262.94C199.1 262.94 198.17 257.736 198.534 255.378C198.787 253.747 199.872 253.046 200.525 252.835H176.464V252.838Z" fill="#0E0E0E"/>
<path d="M205.493 277.56H181.176C180.771 264.352 180.01 252.677 176.465 252.838C176.896 252.496 190.915 252.644 200.697 252.754C205.317 252.741 205.493 268.737 205.493 277.56Z" fill="white"/>
<path d="M201.061 256.827H182.227C182.075 256.827 181.951 256.703 181.951 256.552C181.951 256.401 182.075 256.277 182.227 256.277H201.061C201.213 256.277 201.338 256.401 201.338 256.552C201.338 256.706 201.213 256.827 201.061 256.827Z" fill="#0E0E0E"/>
<path d="M201.718 258.927H182.884C182.732 258.927 182.608 258.803 182.608 258.652C182.608 258.501 182.732 258.377 182.884 258.377H201.718C201.87 258.377 201.995 258.501 201.995 258.652C201.995 258.803 201.87 258.927 201.718 258.927Z" fill="#0E0E0E"/>
<path d="M202.15 261.024H183.315C183.164 261.024 183.039 260.9 183.039 260.749C183.039 260.598 183.164 260.474 183.315 260.474H202.15C202.301 260.474 202.426 260.598 202.426 260.749C202.426 260.903 202.301 261.024 202.15 261.024Z" fill="#0E0E0E"/>
<path d="M202.433 263.463H183.598C183.447 263.463 183.322 263.339 183.322 263.188C183.322 263.037 183.447 262.913 183.598 262.913H202.433C202.584 262.913 202.709 263.037 202.709 263.188C202.706 263.342 202.584 263.463 202.433 263.463Z" fill="#0E0E0E"/>
</svg>
