<svg width="21" height="19" viewBox="0 0 21 19" fill="none" xmlns="http://www.w3.org/2000/svg">
<path d="M14.8538 0C13.8983 0.0148624 12.9636 0.281596 12.1442 0.773263C11.3247 1.26493 10.6495 1.96412 10.1868 2.80023C9.72399 1.96412 9.04879 1.26493 8.22935 0.773263C7.4099 0.281596 6.47523 0.0148624 5.51971 0C3.99651 0.0661794 2.5614 0.732518 1.52793 1.85344C0.494453 2.97436 -0.0533821 4.45875 0.00410794 5.98231C0.00410794 11.7313 9.30087 18.3712 9.6963 18.6529L10.1868 19L10.6772 18.6529C11.0727 18.3729 20.3694 11.7313 20.3694 5.98231C20.4269 4.45875 19.8791 2.97436 18.8456 1.85344C17.8121 0.732518 16.377 0.0661794 14.8538 0ZM10.1868 16.9108C7.42641 14.8489 1.70122 9.78299 1.70122 5.98231C1.64321 4.90865 2.0121 3.8556 2.72743 3.05284C3.44276 2.25009 4.44649 1.76275 5.51971 1.69711C6.59294 1.76275 7.59667 2.25009 8.312 3.05284C9.02733 3.8556 9.39621 4.90865 9.33821 5.98231H11.0353C10.9773 4.90865 11.3462 3.8556 12.0615 3.05284C12.7769 2.25009 13.7806 1.76275 14.8538 1.69711C15.927 1.76275 16.9308 2.25009 17.6461 3.05284C18.3614 3.8556 18.7303 4.90865 18.6723 5.98231C18.6723 9.78468 12.9471 14.8489 10.1868 16.9108Z" fill="black"/>
</svg>
