<svg width="42" height="18" viewBox="0 0 42 18" fill="none" xmlns="http://www.w3.org/2000/svg">
<path d="M42.0001 9.10861C41.7947 9.16157 41.5966 9.25106 41.3908 9.26748C41.052 9.29396 40.7092 9.27489 40.3329 9.27489C40.103 12.5671 38.6755 15.1169 35.9187 16.7946C34.0417 17.9342 31.9983 18.2519 29.8667 17.805C25.4689 16.8835 22.1788 12.5004 23.0175 7.32401C21.6758 6.93161 20.3382 6.93903 18.9672 7.32401C19.4101 10.2562 18.7362 12.8557 16.8114 15.0555C15.3958 16.6749 13.6111 17.6207 11.5118 17.9109C9.87291 18.137 8.29818 17.8855 6.79376 17.1796C5.3134 16.4919 4.0514 15.3868 3.15307 13.9916C2.22917 12.5804 1.75593 11.0129 1.67739 9.2786C1.22571 9.2786 0.804821 9.30084 0.385986 9.26536C0.250993 9.25371 0.129346 9.08849 0 8.9937C0.117541 8.90209 0.227896 8.74587 0.354162 8.72892C0.783263 8.67597 1.36635 8.84172 1.60862 8.6103C1.85088 8.37889 1.74412 7.76301 1.82933 7.32401C2.67008 3.01873 6.18296 0.0145628 10.4257 0.00820811C17.4676 -0.00273603 24.5094 -0.00273603 31.5512 0.00820811C36.2252 0.0145628 39.9423 3.61289 40.2903 8.44084C40.2955 8.50969 40.3067 8.578 40.3144 8.63943L42.0001 8.85708V9.10861ZM23.1499 6.77486C23.9711 3.84166 25.726 1.81505 28.4777 0.585423H13.508C16.2853 1.81664 18.0248 3.85966 18.8461 6.77328C20.2561 6.3855 21.7401 6.38605 23.1499 6.77486Z" fill="#F13005"/>
</svg>
