<svg width="30" height="30" viewBox="0 0 30 30" fill="none" xmlns="http://www.w3.org/2000/svg">
<path fill-rule="evenodd" clip-rule="evenodd" d="M25.6556 24.2899C25.507 24.2895 25.3528 24.3242 25.2108 24.3912C25.0486 24.4569 24.8845 24.5305 24.7308 24.5966L24.502 24.6909L24.2058 24.8091V24.8133C20.9874 26.1189 17.6067 26.8842 14.4774 26.9513C14.362 26.9555 14.2472 26.9555 14.1342 26.9555C9.21516 26.9579 5.19938 24.6745 1.14798 22.4258C1.00595 22.3508 0.863914 22.3123 0.721414 22.3123C0.538133 22.3123 0.352039 22.3803 0.216102 22.5074C0.0796956 22.635 -0.000929413 22.8211 8.0868e-06 23.0101C-0.000929413 23.2559 0.131727 23.481 0.315946 23.6273C4.11751 26.9283 8.2847 29.9967 13.8877 29.9995C13.9964 29.9995 14.1075 29.9967 14.2195 29.9949C17.7839 29.9142 21.8161 28.7108 24.9441 26.7435L24.9619 26.7309C25.372 26.4875 25.7822 26.2075 26.1675 25.8994C26.4084 25.7203 26.5734 25.4422 26.5711 25.1528C26.5641 24.6388 26.1263 24.2899 25.6556 24.2899ZM29.9958 22.4671V22.4652C29.9845 22.1519 29.9166 21.9137 29.7867 21.7163L29.7741 21.6975L29.7586 21.6783C29.6259 21.5334 29.4989 21.4785 29.3606 21.4171C28.95 21.259 28.3533 21.1751 27.6324 21.1727C27.1153 21.1727 26.5449 21.2215 25.9716 21.3462L25.9706 21.3087L25.3931 21.5005L25.3833 21.5057L25.0575 21.6117L25.0584 21.6267C24.6759 21.7852 24.3272 21.9831 24.0042 22.2166C23.8041 22.3681 23.6363 22.567 23.6264 22.8718C23.6222 23.0373 23.7056 23.2291 23.8472 23.3417C23.9855 23.4547 24.1486 23.4922 24.2906 23.4922C24.3249 23.4922 24.3567 23.4913 24.3853 23.4861L24.413 23.4838L24.435 23.48C24.7177 23.4205 25.1283 23.3801 25.6083 23.3121C26.0213 23.2671 26.4586 23.2329 26.8388 23.2329C27.1083 23.2315 27.3483 23.2502 27.5133 23.2863C27.5963 23.3032 27.6591 23.3253 27.6942 23.3426C27.7045 23.3468 27.7134 23.352 27.7186 23.3562C27.7261 23.3787 27.7364 23.4373 27.7345 23.5213C27.7392 23.8388 27.6024 24.4283 27.42 25.0023C27.2391 25.5777 27.0197 26.155 26.8744 26.5386C26.8406 26.6268 26.8186 26.7229 26.8186 26.8289C26.8153 26.9836 26.8781 27.1703 27.0122 27.2936C27.142 27.4184 27.3099 27.4671 27.4524 27.4671H27.458C27.6703 27.4648 27.8503 27.3794 28.0064 27.2589C29.4713 25.9402 29.9803 23.8383 30.0005 22.6547L29.9958 22.4671Z" fill="#FFCC66"/>
<path d="M23.4228 17.9491C22.6967 17.0205 21.9678 16.2252 21.9678 14.4361V8.47603C21.9678 5.95911 22.1665 3.64009 20.3136 1.9204C18.7911 0.530865 16.407 0 14.5531 0H13.7581C10.3826 0.196495 6.80746 1.65403 6.0134 5.82827C5.88074 6.35866 6.27871 6.5561 6.54309 6.62175L10.25 7.08462C10.6479 7.01849 10.8457 6.68647 10.9123 6.35819C11.2428 4.90113 12.4348 4.17095 13.7581 4.03824H14.0239C14.8184 4.03824 15.6781 4.37026 16.1417 5.03337C16.6714 5.8278 16.6057 6.88765 16.6057 7.81526V8.34659C15.7442 8.41037 14.7518 8.47603 13.7581 8.60734C12.2356 8.80899 10.7126 9.07161 9.45543 9.67001C7.00621 10.6628 5.35059 12.7811 5.35059 15.8936C5.35059 19.8033 7.8659 21.7889 11.0445 21.7889C12.1034 21.7889 12.965 21.6553 13.7576 21.4583C15.0167 21.0602 16.0742 20.3323 17.3337 19.0056C18.0612 20.0003 18.2604 20.4651 19.5176 21.524C19.849 21.6553 20.18 21.6553 20.4439 21.4583C21.2398 20.7947 22.6306 19.6022 23.3571 18.9414C23.6895 18.6755 23.6229 18.2778 23.4228 17.9491ZM15.8778 16.2256C15.4142 17.1509 14.6187 17.7479 13.7581 17.9495C13.6264 17.9495 13.4286 18.0157 13.2284 18.0157C11.7734 18.0157 10.9123 16.8883 10.9123 15.2328C10.9123 13.1127 12.17 12.1194 13.7581 11.6556C14.6192 11.4572 15.612 11.3906 16.6057 11.3906V12.1865C16.6057 13.7082 16.6709 14.8994 15.8778 16.2256Z" fill="#666666"/>
</svg>
