<svg width="18" height="18" viewBox="0 0 18 18" fill="none" xmlns="http://www.w3.org/2000/svg">
<path d="M0 5.40005C0 4.41005 0.81 3.60005 1.8 3.60005H4.5L6.3 1.80005H11.7L13.5 3.60005H16.2C16.6774 3.60005 17.1352 3.78969 17.4728 4.12726C17.8104 4.46482 18 4.92266 18 5.40005V14.4C18 14.8774 17.8104 15.3353 17.4728 15.6728C17.1352 16.0104 16.6774 16.2 16.2 16.2H1.8C1.32261 16.2 0.864773 16.0104 0.527208 15.6728C0.189642 15.3353 0 14.8774 0 14.4V5.40005ZM9 14.4C10.1935 14.4 11.3381 13.9259 12.182 13.082C13.0259 12.2381 13.5 11.0935 13.5 9.90005C13.5 8.70657 13.0259 7.56198 12.182 6.71807C11.3381 5.87415 10.1935 5.40005 9 5.40005C7.80653 5.40005 6.66193 5.87415 5.81802 6.71807C4.97411 7.56198 4.5 8.70657 4.5 9.90005C4.5 11.0935 4.97411 12.2381 5.81802 13.082C6.66193 13.9259 7.80653 14.4 9 14.4ZM9 12.6C8.64543 12.6 8.29433 12.5302 7.96675 12.3945C7.63918 12.2588 7.34153 12.06 7.09081 11.8092C6.84009 11.5585 6.64121 11.2609 6.50552 10.9333C6.36984 10.6057 6.3 10.2546 6.3 9.90005C6.3 9.54548 6.36984 9.19438 6.50552 8.8668C6.64121 8.53922 6.84009 8.24158 7.09081 7.99086C7.34153 7.74014 7.63918 7.54126 7.96675 7.40557C8.29433 7.26989 8.64543 7.20005 9 7.20005C9.71608 7.20005 10.4028 7.48451 10.9092 7.99086C11.4155 8.49721 11.7 9.18396 11.7 9.90005C11.7 10.6161 11.4155 11.3029 10.9092 11.8092C10.4028 12.3156 9.71608 12.6 9 12.6Z" fill="white"/>
</svg>
